<svg version="1.1" xmlns="http://www.w3.org/2000/svg" viewBox="0 0 997.05072 892.09827" width="997.05072" height="892.09827">
  <path style="fill:#6c228f" d="m 718.21163,1146.48 c 0.10153,-4.972 0.26251,-18.4 0.35774,-29.84 0.0952,-11.44 0.26006,-21.6402 0.36629,-22.6671 0.22938,-2.2174 0.43753,-2.3599 3.94434,-2.7001 l 2.4,-0.2328 0.21136,-2.24 c 0.11625,-1.232 0.23853,-3.9278 0.27174,-5.9906 l 0.0604,-3.7507 2.39118,-2.945 c 6.72582,-8.2837 12.39933,-16.9462 22.18574,-33.8737 1.98416,-3.432 4.02336,-6.8471 4.53154,-7.5892 l 0.92397,-1.3492 1.35205,0.7502 c 0.74362,0.4126 1.91047,1.0475 2.593,1.4108 0.68253,0.3634 1.69053,1.0317 2.24,1.4851 0.54947,0.4535 1.79104,1.3909 2.75904,2.0832 0.968,0.6924 1.97164,1.4456 2.23031,1.6739 0.6993,0.6173 4.42428,2.6183 6.08969,3.2713 0.264,0.1036 1.056,0.541 1.76,0.9722 0.704,0.4312 1.45128,0.7902 1.66062,0.7978 1.3917,0.051 15.96183,-27.6205 24.50859,-46.5461 10.11898,-22.4071 15.90514,-37.84495 23.86749,-63.68 9.76087,-31.67061 14.76389,-56.81584 16.36179,-82.23454 0.50282,-7.99876 0.55599,-7.57088 -1.03849,-8.35751 -4.20626,-2.07516 -7.49848,-3.78807 -7.92,-4.12071 -0.264,-0.20833 -1.2,-0.64334 -2.08,-0.9667 -1.52663,-0.56095 -5.59207,-2.68537 -10.08,-5.26735 -1.144,-0.65816 -2.52914,-1.38918 -3.07808,-1.62448 -0.95857,-0.4109 -1.00607,-0.52238 -1.2,-2.81655 -0.11106,-1.3138 -0.20192,-4.51762 -0.20192,-7.11961 0,-2.60199 -0.13287,-5.08036 -0.29527,-5.5075 -0.21532,-0.56634 -0.71353,-0.89171 -1.84,-1.20169 -0.8496,-0.23379 -1.76073,-0.44199 -2.02473,-0.46268 -0.264,-0.0207 -0.876,-0.1529 -1.36,-0.29383 l -0.88,-0.25623 -0.003,-4.52531 c -0.008,-10.86017 -0.88412,-25.57703 -2.09884,-35.24531 -1.19403,-9.50356 -3.40419,-22.26044 -5.11934,-29.54837 -0.42823,-1.81961 -0.7786,-3.57173 -0.7786,-3.89361 0,-0.59214 2.16234,-1.43182 8.16,-3.16869 8.87229,-2.56933 26.89263,-5.41517 27.89055,-4.40459 1.04147,1.05469 5.66152,20.97704 7.91606,34.13526 3.48639,20.34762 4.66672,33.33295 4.90118,53.92 0.22369,19.6413 -0.48189,32.63683 -2.64954,48.8 -3.35758,25.03582 -9.06389,47.99306 -20.6804,83.2 -13.52894,41.00306 -32.59451,81.6986 -58.24304,124.32 -4.71976,7.8431 -33.80268,53.8521 -38.43245,60.8 -4.91168,7.3709 -11.22888,15.84 -11.81529,15.84 -0.18398,0 -0.22863,-3.4965 -0.11544,-9.04 z M 702.56,1134.4 c -0.10877,-0.176 -0.0453,-0.32 0.14111,-0.32 0.18639,0 0.33889,0.144 0.33889,0.32 0,0.176 -0.0635,0.32 -0.14111,0.32 -0.0776,0 -0.23012,-0.144 -0.33889,-0.32 z m 0.0265,-1.5571 c -0.13784,-0.223 -0.16421,-0.4919 -0.0586,-0.5975 0.28638,-0.2864 0.59864,0.1348 0.44396,0.5988 -0.10839,0.3252 -0.18377,0.325 -0.38538,0 z M 553.35643,1110 c -12.64829,-19.3959 -23.51735,-39.3851 -32.32029,-59.44 -2.33793,-5.3263 -5.51614,-13.3225 -5.51614,-13.8783 0,-0.067 1.044,-0.4403 2.32,-0.8299 1.276,-0.3897 2.87215,-0.9391 3.54701,-1.2209 0.88154,-0.3682 2.36816,-0.5245 5.28,-0.5551 2.22914,-0.024 5.70899,-0.2099 7.73299,-0.4142 2.024,-0.2043 4.544,-0.4355 5.6,-0.5139 1.056,-0.078 3.504,-0.2915 5.44,-0.4738 1.936,-0.1823 4.456,-0.4098 5.6,-0.5057 2.95046,-0.2471 3.84,-0.475 3.84,-0.9839 0,-0.2447 -1.23513,-3.5052 -2.74473,-7.2456 -4.92895,-12.2125 -8.86542,-24.89549 -11.49121,-37.02359 -1.28597,-5.93965 -2.72406,-14.04098 -2.72406,-15.34565 v -0.87131 l 3.05111,0.24561 c 1.6781,0.13508 3.32196,0.39057 3.653,0.56774 0.43446,0.23251 0.79591,1.19095 1.2993,3.44531 6.43064,28.79869 12.91219,46.30519 24.33117,65.71779 4.75626,8.0858 11.54277,17.8023 12.62353,18.0735 0.91468,0.2296 7.02023,-0.3656 10.47704,-1.0214 1.4223,-0.2698 4.32725,-0.9993 6.45543,-1.6212 2.12818,-0.6218 4.80542,-1.1917 5.94942,-1.2664 1.144,-0.075 3.52,-0.2932 5.28,-0.4856 1.76,-0.1923 3.63231,-0.3789 4.1607,-0.4146 1.65271,-0.1116 9.02513,-5.3679 13.9193,-9.9239 2.00612,-1.8675 3.08595,-2.5384 3.3633,-2.0897 0.80496,1.3025 -2.00601,7.6428 -6.09809,13.7547 -5.3002,7.9163 -11.17607,14.9085 -19.64641,23.3788 -10.85663,10.8566 -20.80373,18.6432 -33.2988,26.0661 -3.86863,2.2983 -16.5404,8.7903 -17.16364,8.7933 -0.20001,10e-4 -1.51398,-1.7622 -2.91993,-3.9182 z m 310.51759,1.4933 c -0.11959,-0.3117 -0.0481,-0.458 0.18576,-0.38 0.47835,0.1594 0.74173,0.8867 0.32112,0.8867 -0.17183,0 -0.39993,-0.228 -0.50688,-0.5067 z m -4.64396,-2.8171 c -0.26174,-0.3154 -0.27532,-0.5246 -0.0433,-0.668 0.18579,-0.1148 0.42657,0.023 0.53507,0.3053 0.27014,0.704 -0.0268,0.923 -0.49173,0.3627 z m -2.79964,-1.01 c -0.10421,-0.2716 -0.1003,-0.583 0.009,-0.692 0.31005,-0.31 1.86083,0.5099 1.64004,0.8672 -0.30609,0.4952 -1.4376,0.375 -1.64874,-0.1752 z m 4.39228,-0.2788 c -0.23864,-0.2876 -0.33898,-0.6178 -0.22297,-0.7338 0.29886,-0.2989 0.93812,0.4129 0.78457,0.8735 -0.0883,0.2648 -0.2617,0.2216 -0.5616,-0.1397 z m -6.7427,-0.6361 c 0,-0.2468 -0.432,-0.5993 -0.96,-0.7833 -1.12426,-0.392 -1.33791,-1.1839 -0.24,-0.8897 0.396,0.1061 0.972,0.1949 1.28,0.1973 0.40792,0 0.56,0.2651 0.56,0.9644 0,0.528 -0.144,0.96 -0.32,0.96 -0.176,0 -0.32,-0.2019 -0.32,-0.4487 z m 8.16,-0.8313 c -0.10877,-0.176 0.0267,-0.32 0.30111,-0.32 0.27439,0 0.49889,0.144 0.49889,0.32 0,0.176 -0.1355,0.32 -0.30111,0.32 -0.16562,0 -0.39012,-0.144 -0.49889,-0.32 z m -2.60428,-1.12 c -0.10131,-0.264 -0.44501,-0.48 -0.76378,-0.48 -0.92164,0 -1.59194,-0.3513 -1.59194,-0.8342 0,-0.6424 0.48225,-0.5534 1.92,0.3542 0.69701,0.44 1.40565,0.8 1.57476,0.8 0.16911,0 0.39647,0.144 0.50524,0.32 0.11241,0.1819 -0.16002,0.32 -0.63116,0.32 -0.45591,0 -0.91181,-0.216 -1.01312,-0.48 z m -9.87572,-1.76 c -0.61067,-0.2624 -0.60701,-0.276 0.08,-0.2975 0.396,-0.012 0.72,0.1215 0.72,0.2975 0,0.176 -0.036,0.3099 -0.08,0.2975 -0.044,-0.012 -0.368,-0.1462 -0.72,-0.2975 z m 5.76,-0.64 c -0.31856,-0.352 -0.47541,-0.64 -0.34856,-0.64 0.45678,0 1.46856,0.6692 1.46856,0.9713 0,0.5021 -0.49947,0.3544 -1.12,-0.3313 z m -2.97262,-2.0922 c -0.53392,-0.6053 -0.0498,-0.6041 0.75146,0 0.46839,0.3543 0.50311,0.4694 0.14116,0.4679 -0.264,0 -0.66568,-0.2126 -0.89262,-0.4699 z m -9.84949,-1.1436 c -0.20508,-0.3318 0.36057,-0.9082 0.90211,-0.9193 0.29066,-0.01 0.29771,0.1124 0.0458,0.7689 -0.22671,0.5908 -0.63558,0.6557 -0.94787,0.1504 z M 850.24,1098.73 c 0,-0.2862 0.18761,-0.3979 0.48,-0.2857 0.264,0.1013 0.48,0.3128 0.48,0.4699 0,0.1572 -0.216,0.2858 -0.48,0.2858 -0.264,0 -0.48,-0.2115 -0.48,-0.47 z m -137.82322,-60.1482 c -5.24074,-3.9395 -14.22149,-15.118 -21.23913,-26.4367 -2.59626,-4.1874 -5.09395,-8.2509 -5.55043,-9.0298 l -0.82997,-1.4162 1.55644,-2.04956 c 0.85604,-1.12725 3.18064,-3.84954 5.16577,-6.04954 6.81386,-7.55139 12.35921,-14.83385 19.12802,-25.12 6.95298,-10.56602 7.48387,-11.35397 7.76826,-11.52973 0.153,-0.0946 1.28643,0.32636 2.51873,0.93538 l 2.24054,1.1073 1.02975,-1.17281 c 1.38162,-1.57359 5.20318,-7.44259 7.54033,-11.58014 1.04386,-1.848 2.81073,-4.97636 3.92637,-6.95192 1.11564,-1.97555 2.42246,-4.06355 2.90405,-4.64 0.83541,-0.99995 0.90346,-1.02292 1.48175,-0.5003 0.33337,0.30128 1.32086,0.86285 2.19443,1.24794 0.87357,0.38509 2.02031,1.02437 2.54831,1.42063 1.08446,0.81388 3.18034,2.06445 7.31203,4.36291 3.29957,1.83556 3.16399,1.89047 4.49248,-1.81926 1.6965,-4.73737 11.53155,-38.89632 13.14173,-45.64368 1.70856,-7.15958 6.20977,-32.50896 8.345,-46.99632 0.42801,-2.904 1.14305,-7.296 1.58898,-9.76 1.74779,-9.65749 3.05678,-21.33882 4.15962,-37.12 0.71782,-10.2717 1.49275,-17.59926 1.9048,-18.01131 0.31129,-0.31129 0.47251,1.88554 1.15741,15.77131 0.90342,18.31602 0.71137,31.4524 -0.67368,46.08 -0.50849,5.37024 -0.79552,7.20632 -3.55169,22.72 -3.11839,17.55244 -5.27277,28.18097 -7.29714,36 -3.12903,12.08576 -10.64344,40.24996 -11.43427,42.85595 -0.44997,1.48277 -3.33379,8.82677 -6.40849,16.32 -12.68069,30.90364 -17.53463,41.23425 -23.90775,50.88245 -1.46102,2.2119 -5.10923,7.7917 -8.10713,12.3997 -5.56999,8.5613 -7.27194,10.9519 -9.73053,13.6675 l -1.39686,1.5429 z M 536,934.66143 c -3.18217,-0.25571 -4.07412,-0.38888 -4.33205,-0.64681 -0.51965,-0.51966 -2.65521,-15.48071 -3.48497,-24.41462 -1.06707,-11.48901 -1.22534,-14.69922 -1.41989,-28.8 l -0.20309,-14.72 -3.00376,0.0771 c -1.65207,0.0424 -3.19108,0.23259 -3.42003,0.4226 -0.2527,0.20972 -0.97202,0.26212 -1.83068,0.13336 -1.18897,-0.1783 -1.44992,-0.11957 -1.63719,0.36843 -0.18608,0.48493 -0.26977,0.50449 -0.50817,0.11875 -0.23096,-0.37371 -0.52758,-0.39714 -1.55517,-0.12286 -0.81407,0.21729 -1.46449,0.22996 -1.81232,0.0353 -0.35317,-0.19764 -0.81484,-0.17955 -1.32267,0.0518 -0.42907,0.1955 -1.14282,0.35545 -1.5861,0.35545 -0.44329,0 -1.12052,0.17274 -1.50495,0.38386 -0.38443,0.21113 -1.34696,0.42172 -2.13896,0.46799 -3.13602,0.18319 -4.02896,0.31515 -4.72661,0.69849 -0.39964,0.21959 -0.87871,0.30526 -1.06459,0.19037 -0.18589,-0.11488 -0.98366,0.0377 -1.77283,0.3391 -0.78917,0.30138 -1.47619,0.49672 -1.52672,0.43408 -0.22991,-0.28505 0.52412,-6.74529 1.43259,-12.27389 1.59329,-9.69616 5.92818,-25.39035 10.38989,-37.61591 3.24279,-8.8856 3.9664,-10.99263 3.82404,-11.13499 -0.0772,-0.0772 -0.34962,0.0334 -0.60546,0.24574 -0.25584,0.21233 -0.9272,0.44452 -1.49192,0.51599 -0.56471,0.0715 -1.27021,0.35027 -1.56777,0.61956 -0.29756,0.26929 -0.91744,0.48961 -1.37753,0.48961 -0.46008,0 -1.34406,0.29946 -1.9644,0.66547 l -1.12789,0.66547 0.7792,-2.29094 c 1.15522,-3.39649 6.60702,-13.82044 10.37647,-19.84 8.03643,-12.83368 15.9372,-22.63435 26.99968,-33.49229 7.08417,-6.95319 14.03714,-12.85259 21.05718,-17.86642 6.14061,-4.38572 14.70134,-9.76129 15.54509,-9.76129 0.52339,0 2.66158,2.1475 2.66158,2.67316 0,0.0829 -1.67445,3.15132 -3.721,6.81876 -19.74058,35.37538 -33.89161,74.7873 -39.32489,109.52351 -2.27442,14.54083 -2.87672,23.10034 -2.86144,40.66457 0.0133,15.3091 0.19802,18.75373 1.93496,36.08575 0.44567,4.44717 0.76578,8.55117 0.71134,9.12 L 538.72,934.88 Z m 78.7249,-105.76254 c 0.003,-0.14239 0.14449,-0.47489 0.3151,-0.73889 0.26733,-0.41366 0.31088,-0.40521 0.3151,0.0611 0.003,0.29762 -0.1391,0.63012 -0.3151,0.73889 -0.176,0.10877 -0.31779,0.0813 -0.3151,-0.0611 z m 0.23532,-4.42653 c -0.0849,-0.4442 -0.0458,-0.87473 0.0868,-0.95673 0.13269,-0.082 0.30444,0.28143 0.38167,0.80764 0.16988,1.1575 -0.2502,1.29118 -0.46852,0.14909 z m -0.97967,-2.93868 c -0.46834,-0.1197 -0.53787,-0.34231 -0.36262,-1.16089 0.26446,-1.23524 0.17955,-1.14094 1.12184,-1.24589 0.56132,-0.0625 0.74446,0.0478 0.65273,0.3931 -0.0701,0.264 -0.14212,0.82802 -0.16,1.25338 -0.0346,0.82377 -0.32164,0.99807 -1.25195,0.7603 z m -1.98923,-4.17302 c 0.2597,-1.03472 0.11745,-0.89989 1.23182,-1.16755 l 0.90314,-0.21692 -0.90314,1.1319 c -1.08274,1.35698 -1.53214,1.44913 -1.23182,0.25257 z M 614.4,814.91424 c 0,-0.24517 -0.1879,-0.51787 -0.41756,-0.606 -0.22966,-0.0881 -0.60441,-0.78753 -0.83279,-1.55424 -0.22838,-0.7667 -0.63051,-1.79997 -0.89362,-2.29615 -0.61936,-1.16801 -0.31142,-1.48406 0.3952,-0.40561 0.29831,0.45527 0.81381,0.82776 1.14557,0.82776 0.42237,0 0.6032,0.22886 0.6032,0.76342 0,0.86572 0.7274,2.41505 1.29999,2.76893 0.2101,0.12985 0.28306,0.3962 0.16212,0.59187 -0.31538,0.5103 -1.46211,0.43972 -1.46211,-0.09 z m -0.7707,-10.01136 c -0.43052,-2.02869 -0.47466,-12.49459 -0.0593,-14.069 0.2272,-0.86129 0.4292,-2.51087 0.44888,-3.66572 0.0197,-1.15486 0.16524,-2.44813 0.32346,-2.87395 0.15823,-0.42582 0.31555,-1.81821 0.3496,-3.09421 0.0581,-2.17866 0.0201,-2.32 -0.62496,-2.32 -0.41774,0 -0.75243,0.25076 -0.85422,0.64 -0.092,0.352 -0.35513,0.64 -0.58462,0.64 -0.60471,0 -0.83575,-1.47069 -0.60417,-3.84589 0.11122,-1.14076 0.24937,-3.01011 0.307,-4.15411 0.23845,-4.73394 0.99268,-9.68348 1.53616,-10.08088 0.7271,-0.53167 0.67089,-1.11912 -0.10709,-1.11912 -0.367,0 -0.64,-0.21333 -0.64,-0.50011 0,-0.33497 0.23776,-0.46706 0.72,-0.4 0.70899,0.0986 0.72106,0.0414 0.78966,-3.73989 0.0939,-5.17389 0.0847,-5.04569 0.38583,-5.42525 0.14604,-0.18411 0.36621,-1.1671 0.48926,-2.18441 0.15728,-1.30037 0.4541,-2.09825 0.99948,-2.68673 1.0965,-1.18314 1.2304,-4.47332 0.20458,-5.02681 -0.74716,-0.40315 -2.94881,-2.71041 -2.94881,-3.09027 0,-0.50875 0.82353,-0.34599 1.68732,0.33347 0.8851,0.69622 2.45704,0.84764 3.01433,0.29035 0.25286,-0.25286 0.5547,-0.2399 1.09042,0.0468 1.12623,0.60274 2.39829,0.43429 3.59117,-0.47556 0.59244,-0.45188 1.22595,-0.8216 1.40778,-0.8216 0.18184,0 0.51494,-0.2221 0.74024,-0.49356 0.24358,-0.29351 0.52668,-0.3765 0.69842,-0.20476 0.3369,0.3369 -0.69826,4.53832 -1.11816,4.53832 -0.15106,0 -0.18724,0.2754 -0.0804,0.612 0.10684,0.3366 -0.17146,2.05469 -0.61843,3.81799 -0.44698,1.76329 -0.81268,3.56412 -0.81268,4.00183 0,1.74372 -0.6036,2.22991 -1.62303,1.30733 -0.35613,-0.32229 -0.62665,-0.38237 -0.75882,-0.16852 -0.11296,0.18277 0.0888,0.58416 0.44823,0.89196 0.83833,0.7178 0.82893,1.05741 -0.0293,1.05741 -1.07565,0 -3.15394,0.70628 -2.96723,1.00838 0.0929,0.15034 0.42927,0.13403 0.74745,-0.0363 0.74642,-0.39947 1.01899,-0.10834 0.78213,0.83539 -0.11982,0.47739 -0.0482,0.75249 0.19579,0.75249 0.21155,0 0.45996,-0.288 0.55201,-0.64 0.11106,-0.4247 0.43649,-0.64 0.96735,-0.64 0.71112,0 0.77627,0.0978 0.58651,0.88 -0.11741,0.484 -0.20169,1.348 -0.18728,1.92 0.0189,0.75057 -0.11618,1.04 -0.4854,1.04 -0.37721,0 -0.45839,0.18912 -0.30906,0.72 0.14287,0.50793 0.113,0.5907 -0.10143,0.281 -0.16717,-0.24145 -0.50061,-0.36999 -0.74096,-0.28563 -0.24036,0.0844 -0.8229,-0.1167 -1.29454,-0.44679 -0.82599,-0.57808 -1.50672,-0.34739 -1.06828,0.36202 0.10558,0.17083 -0.0132,0.71083 -0.26393,1.2 -0.25074,0.48917 -0.5578,2.05694 -0.68236,3.48393 -0.19324,2.21392 -0.15175,2.62319 0.28282,2.78995 0.76195,0.29239 0.61495,1.09153 -0.31258,1.69927 -0.61684,0.40417 -0.7762,0.72042 -0.63882,1.26776 0.10066,0.4011 0.026,0.82634 -0.16602,0.94499 -0.19198,0.11865 -0.2719,0.51076 -0.17761,0.87135 0.23136,0.88471 -0.26157,1.71899 -1.14725,1.94171 -0.66888,0.16819 -0.72817,0.36088 -0.72517,2.35681 0.002,1.19549 -0.1289,2.35973 -0.29044,2.58719 -0.18481,0.26023 -0.16077,0.5465 0.0648,0.77211 0.26473,0.26473 0.44332,0.13558 0.68252,-0.49356 0.43713,-1.14975 0.80495,-1.07197 1.21265,0.25641 0.26261,0.85568 0.23173,1.42135 -0.13538,2.48 -0.26158,0.75432 -0.51514,2.68588 -0.56347,4.29236 -0.0483,1.60649 -0.18854,3.08378 -0.31158,3.28287 -0.12305,0.19909 -0.14057,0.62395 -0.0389,0.94414 0.10163,0.32019 0.0292,3.3069 -0.16091,6.63714 -0.19012,3.33023 -0.38635,6.88534 -0.43606,7.90025 -0.10295,2.10198 -0.35679,2.61891 -0.63719,1.2976 z m 1.87672,-35.27752 c 0.0146,-2.48522 -0.41578,-3.23509 -1.11115,-1.93577 -0.27937,0.522 -0.27635,0.91086 0.0125,1.60815 0.31886,0.7698 0.29535,1.00527 -0.14425,1.44487 -0.41412,0.41412 -0.44448,0.62244 -0.14357,0.98502 0.20989,0.2529 0.60457,0.41688 0.87706,0.3644 0.39255,-0.0756 0.49836,-0.58791 0.50943,-2.46667 z m -0.3746,-6.11035 c -0.25723,-0.98361 -0.73142,-1.09635 -0.73142,-0.1739 0,0.49034 0.18056,0.81889 0.45004,0.81889 0.29366,0 0.39143,-0.22413 0.28138,-0.64499 z m 4.97997,-7.51973 c 0.24731,-0.24731 -0.34187,-0.79498 -0.85028,-0.79038 -0.81595,0.007 -1.45323,0.51479 -1.1872,0.94525 0.20455,0.33096 1.66247,0.22014 2.03748,-0.15487 z m 1.6176,-6.67791 c 0.28327,-0.34133 0.25562,-0.4855 -0.12082,-0.62996 -0.26849,-0.10303 -0.48817,-0.13162 -0.48817,-0.0635 0,0.0681 -0.0874,0.35156 -0.19424,0.62996 -0.23933,0.62368 0.30276,0.66657 0.80323,0.0635 z M 877.12,781.12 c 0,-0.176 0.144,-0.32 0.32,-0.32 0.176,0 0.32,0.144 0.32,0.32 0,0.176 -0.144,0.32 -0.32,0.32 -0.176,0 -0.32,-0.144 -0.32,-0.32 z m -4.8,-3.53889 c 0,-0.18638 0.144,-0.24988 0.32,-0.14111 0.176,0.10877 0.32,0.26127 0.32,0.33889 0,0.0776 -0.144,0.14111 -0.32,0.14111 -0.176,0 -0.32,-0.1525 -0.32,-0.33889 z m 3.23903,-0.41408 c -0.33985,-0.4095 -0.18486,-0.84703 0.30007,-0.84703 0.35882,0 0.62713,0.91838 0.32318,1.10623 -0.14837,0.0917 -0.42883,-0.0249 -0.62325,-0.2592 z M 615.04,775.84 c 0,-0.264 0.21148,-0.48 0.46996,-0.48 0.28627,0 0.39796,0.18761 0.28576,0.48 -0.10131,0.264 -0.31279,0.48 -0.46996,0.48 -0.15717,0 -0.28576,-0.216 -0.28576,-0.48 z m 256.24,-0.0692 c -0.92936,-0.14079 -1.13271,-0.67009 -0.50037,-1.30243 0.29284,-0.29284 0.51678,-0.25551 0.97954,0.16327 0.51792,0.46872 0.64029,0.47905 0.89547,0.0756 0.49493,-0.78248 0.34866,-1.17701 -0.67716,-1.82652 l -0.98252,-0.62208 0.97825,-0.0278 c 1.44314,-0.041 1.76539,-0.34731 1.11804,-1.06263 -0.30274,-0.33453 -0.74864,-0.60823 -0.99089,-0.60823 -0.24225,0 -0.52938,-0.252 -0.63809,-0.56 -0.1087,-0.308 -0.48532,-0.87978 -0.83692,-1.27062 -0.5286,-0.58758 -0.56869,-0.79568 -0.23157,-1.20189 0.3416,-0.4116 0.27138,-0.59852 -0.43303,-1.15261 -0.46241,-0.36373 -0.84075,-0.86688 -0.84075,-1.11811 0,-0.50102 -0.97259,-0.62065 -1.456,-0.17909 -0.1672,0.15273 -0.7697,0.36467 -1.33889,0.47098 -0.99419,0.18569 -1.06657,0.12635 -1.84,-1.50856 -0.44281,-0.93602 -0.80511,-1.91116 -0.80511,-2.16698 0,-0.25581 -0.1728,-0.63792 -0.384,-0.84912 -0.29867,-0.29867 -0.29867,-0.46933 0,-0.768 0.55192,-0.55192 0.47292,-0.85934 -0.17714,-0.68934 -0.72321,0.18912 -1.80238,-1.55337 -1.51765,-2.45048 0.13859,-0.43667 0.0554,-0.63618 -0.26541,-0.63618 -0.90741,0 -0.81804,-0.92098 0.18449,-1.90114 0.75832,-0.7414 0.9141,-1.07247 0.63566,-1.35091 -0.48731,-0.48731 -1.35595,0.2032 -1.35595,1.0779 0,1.17029 -0.79174,0.38371 -2.02228,-2.00911 -2.35465,-4.57868 -3.72276,-7.18358 -4.18942,-7.97674 -0.25888,-0.44 -1.42053,-2.58107 -2.58145,-4.75792 -2.03843,-3.82229 -2.0932,-3.98472 -1.59841,-4.73987 0.6002,-0.91603 1.31473,-0.82124 1.17345,0.15568 -0.0741,0.51224 0.16899,0.78999 0.99243,1.13405 1.13993,0.47629 2.3056,1.83526 2.51159,2.92806 0.0663,0.352 0.41154,0.68187 0.7671,0.73305 0.35555,0.0512 0.78608,0.35513 0.95673,0.67546 0.93264,1.75072 2.15217,3.2166 3.18108,3.82367 0.65641,0.3873 1.30346,1.09227 1.48776,1.62094 0.17938,0.51456 0.53208,1.01459 0.78378,1.11118 0.2517,0.0966 0.45764,0.52473 0.45764,0.95142 0,0.42669 0.216,0.85869 0.48,0.96 0.68278,0.26201 0.59442,0.80893 -0.24,1.48544 -0.86176,0.69868 -0.49076,1.26939 0.44521,0.68487 0.5527,-0.34517 0.75213,-0.32283 1.26544,0.14171 0.33514,0.3033 0.60935,0.83024 0.60935,1.17099 0,0.34074 0.48887,1.19066 1.08637,1.88871 1.73851,2.03106 2.10637,5.78094 0.57763,5.88829 -0.77745,0.0546 -1.664,0.57947 -1.664,0.98515 0,0.35615 0.30433,0.45247 1.19562,0.37844 1.03159,-0.0857 1.19622,-0.20829 1.2,-0.8936 0.007,-1.26078 1.01659,-1.22497 1.29573,0.046 0.12652,0.57602 0.38813,1.30047 0.58136,1.60988 0.2792,0.44708 0.22158,0.66148 -0.28069,1.04442 -0.53742,0.40973 -0.56178,0.52793 -0.16275,0.78963 0.30649,0.20102 0.61174,0.18954 0.88,-0.0331 0.55047,-0.45685 1.56166,0.31456 1.06429,0.81193 -0.39177,0.39177 -0.44887,1.48556 -0.0776,1.48556 0.1408,0 0.44739,-0.18 0.68131,-0.4 0.34956,-0.32875 0.38913,-0.24627 0.22216,0.46307 -0.13069,0.55518 -0.0542,0.95472 0.2143,1.12 0.47402,0.29173 2.14092,3.60701 2.15641,4.28882 0.006,0.24646 0.22159,0.72763 0.48,1.06927 0.2584,0.34164 0.45021,0.98964 0.42624,1.44 -0.0401,0.75298 -0.0547,0.76093 -0.18225,0.0988 -0.0763,-0.396 -0.3396,-0.72 -0.58517,-0.72 -0.46071,0 -1.32858,1.27202 -0.88026,1.29018 0.13819,0.006 -0.0283,0.22159 -0.3699,0.48 -0.34164,0.2584 -0.70164,0.44824 -0.8,0.42187 -0.0984,-0.0264 -0.57484,-0.10793 -1.05884,-0.18125 z m -2.96,-11.95747 c 0,-0.24933 -0.31719,-0.49845 -0.70487,-0.5536 -0.38768,-0.0552 -0.79338,-0.37915 -0.90156,-0.72 -0.20739,-0.65341 -0.79357,-0.85974 -0.79357,-0.27932 0,0.48993 1.70009,2.20344 2.08,2.09641 0.176,-0.0496 0.32,-0.29415 0.32,-0.54349 z M 865.6,759.2 c 0,-0.264 -0.1355,-0.48 -0.30111,-0.48 -0.40352,0 -0.69251,0.49971 -0.43686,0.75537 0.36038,0.36038 0.73797,0.21948 0.73797,-0.27537 z m 0.96,-2.08 c 0,-0.352 -0.144,-0.64 -0.32,-0.64 -0.176,0 -0.32,0.288 -0.32,0.64 0,0.352 0.144,0.64 0.32,0.64 0.176,0 0.32,-0.288 0.32,-0.64 z m -2.88,-4.48 c 0,-0.176 -0.144,-0.32 -0.32,-0.32 -0.176,0 -0.32,0.144 -0.32,0.32 0,0.176 0.144,0.32 0.32,0.32 0.176,0 0.32,-0.144 0.32,-0.32 z m 4.05972,18.49028 c -0.29685,-0.65435 -0.53972,-1.25611 -0.53972,-1.33725 0,-0.0812 0.50335,-0.12177 1.11857,-0.0903 1.16215,0.0595 1.4531,0.3415 0.66451,0.64411 -0.25131,0.0964 -0.51244,0.57985 -0.58028,1.07424 l -0.12337,0.8989 z M 869.28,771.52 c 0.10877,-0.176 0.26127,-0.32 0.33889,-0.32 0.0776,0 0.14111,0.144 0.14111,0.32 0,0.176 -0.1525,0.32 -0.33889,0.32 -0.18638,0 -0.24988,-0.144 -0.14111,-0.32 z m -249.92,-1.28 c 0.10877,-0.176 0.34177,-0.32 0.51777,-0.32 0.176,0 0.231,0.144 0.12223,0.32 -0.10877,0.176 -0.34177,0.32 -0.51777,0.32 -0.176,0 -0.231,-0.144 -0.12223,-0.32 z m 247.34277,-1.62788 c -0.32977,-0.53358 0.4119,-1.14545 0.85335,-0.704 0.36925,0.36925 0.13815,1.05188 -0.35612,1.05188 -0.15523,0 -0.37898,-0.15655 -0.49723,-0.34788 z m 1.51029,-0.76643 c -1.39309,-0.7676 -1.46661,-1.04019 -0.42572,-1.57846 1.27628,-0.65999 1.33266,-0.6484 1.33266,0.27388 0,0.42962 0.144,0.87012 0.32,0.97889 0.45258,0.27971 0.39779,0.8061 -0.08,0.76862 -0.22,-0.0172 -0.73612,-0.21657 -1.14694,-0.44293 z M 618.8532,765.84951 c -0.27027,-0.71085 -0.22825,-0.94559 0.22908,-1.28 0.83422,-0.60999 0.92546,-0.52743 0.96212,0.87049 0.0399,1.52066 -0.67527,1.76651 -1.1912,0.40951 z M 865.76,766.4 c -0.10877,-0.176 -0.0453,-0.32 0.14111,-0.32 0.18639,0 0.33889,0.144 0.33889,0.32 0,0.176 -0.0635,0.32 -0.14111,0.32 -0.0776,0 -0.23012,-0.144 -0.33889,-0.32 z m -244.90947,-3.84 c 0,-0.44 0.0726,-0.62 0.1614,-0.4 0.0888,0.22 0.0888,0.58 0,0.8 -0.0888,0.22 -0.1614,0.04 -0.1614,-0.4 z M 619.2,761.78667 c 0,-0.24934 -0.18,-0.51762 -0.4,-0.59619 -0.22,-0.0786 -0.29051,-0.26006 -0.15669,-0.40331 0.13381,-0.14325 0.45324,0.017 0.70982,0.35619 0.55187,0.72946 0.60774,1.09664 0.16687,1.09664 -0.176,0 -0.32,-0.204 -0.32,-0.45333 z m -28.48,-1.16556 c 0,-0.18638 0.144,-0.24988 0.32,-0.14111 0.176,0.10877 0.32,0.26127 0.32,0.33889 0,0.0776 -0.144,0.14111 -0.32,0.14111 -0.176,0 -0.32,-0.1525 -0.32,-0.33889 z m 28.48,-0.64 c 0,-0.18638 0.144,-0.24988 0.32,-0.14111 0.176,0.10877 0.32,0.26127 0.32,0.33889 0,0.0776 -0.144,0.14111 -0.32,0.14111 -0.176,0 -0.32,-0.1525 -0.32,-0.33889 z M 596.32,759.04 c -0.10877,-0.176 0.0267,-0.32 0.30111,-0.32 0.27439,0 0.49889,0.144 0.49889,0.32 0,0.176 -0.1355,0.32 -0.30111,0.32 -0.16562,0 -0.39012,-0.144 -0.49889,-0.32 z m 10.72,-5.90111 c 0,-0.27439 0.144,-0.49889 0.32,-0.49889 0.176,0 0.32,0.1355 0.32,0.30111 0,0.16562 -0.144,0.39012 -0.32,0.49889 -0.176,0.10877 -0.32,-0.0267 -0.32,-0.30111 z m -3.9356,-0.38116 C 602.72623,752.37956 602.85427,752 603.36,752 c 0.264,0 0.48,-0.216 0.48,-0.48 0,-0.264 0.15356,-0.48 0.34126,-0.48 0.53472,0 0.19814,1.74329 -0.35686,1.84833 -0.27259,0.0516 -0.59659,-0.007 -0.72,-0.1306 z m -14.12333,-0.40363 c -0.23381,-0.37833 0.11737,-1.3141 0.49317,-1.3141 0.37872,0 0.36859,1.19104 -0.0121,1.42633 -0.16384,0.10126 -0.3803,0.0508 -0.48104,-0.11223 z m 5.72009,-1.4892 c 0.34164,-0.25569 0.89705,-0.4649 1.23424,-0.4649 0.44123,0 0.55559,-0.1498 0.408,-0.53442 -0.22408,-0.58393 0.29623,-1.05298 1.1766,-1.06068 0.61944,-0.005 0.78562,1.09789 0.21818,1.44858 -0.18799,0.11619 -0.27413,0.38762 -0.19142,0.60318 0.1067,0.27805 -0.37505,0.40372 -1.65818,0.43253 -1.64898,0.037 -1.75377,-4.1e-4 -1.18742,-0.42429 z M 602.4,750.4 c -0.10877,-0.176 0.0352,-0.32 0.32,-0.32 0.28477,0 0.42877,0.144 0.32,0.32 -0.10877,0.176 -0.25277,0.32 -0.32,0.32 -0.0672,0 -0.21123,-0.144 -0.32,-0.32 z m -1.75717,-0.73275 c -0.88822,-0.4494 -1.12068,-1.10434 -0.64852,-1.82725 0.27605,-0.42266 0.43045,-0.414 1.29251,0.0725 0.84505,0.47692 1.00381,0.48787 1.16033,0.08 0.23704,-0.61772 1.07285,-0.6119 1.07285,0.007 0,0.264 -0.21956,0.48 -0.48792,0.48 -0.26836,0 -0.62479,0.36 -0.79208,0.8 -0.34634,0.91094 -0.49219,0.9463 -1.59717,0.38725 z m 6.30732,-0.76596 c -0.24594,-0.41744 0.1326,-2.34129 0.46067,-2.34129 0.1698,0 0.20477,0.51666 0.0812,1.2 -0.24422,1.35083 -0.32197,1.51459 -0.5419,1.14129 z m 3.82318,0.005 c -0.3682,-0.36821 -0.23303,-0.74667 0.26667,-0.74667 0.72454,0 0.577,-0.50284 -0.32,-1.09057 -0.93193,-0.61062 -1.01047,-1.08497 -0.26939,-1.62686 0.49053,-0.35869 0.48449,-0.45029 -0.08,-1.21291 -0.33584,-0.4537 -0.83966,-0.8875 -1.11962,-0.96399 -0.28125,-0.0769 -0.75776,-0.91016 -1.06496,-1.86238 -0.30578,-0.94781 -0.83273,-2.19952 -1.171,-2.78158 -0.33827,-0.58206 -0.61503,-1.34521 -0.61503,-1.69589 0,-0.59144 0.1448,-0.62223 2,-0.42528 1.16014,0.12317 2.2317,0.43247 2.55177,0.73655 0.64652,0.61425 2.20905,4.85812 2.34272,6.36291 0.0813,0.91531 -0.002,1.04 -0.6911,1.04 -0.97173,0 -1.32368,0.80115 -0.67298,1.53192 0.43792,0.49179 0.43417,0.67132 -0.0365,1.74808 -0.527,1.20571 -0.72618,1.38109 -1.12061,0.98667 z m 0.92551,-6.36623 c -0.94141,-0.69783 -1.14029,-0.5601 -0.76126,0.52719 0.31899,0.91504 0.38245,0.94889 0.86336,0.46045 0.47906,-0.48657 0.47119,-0.56268 -0.1021,-0.98764 z M 610.24,740.864 c 0,-0.33249 -0.69334,-1.024 -1.02671,-1.024 -0.14229,0 -0.0788,0.288 0.14097,0.64 0.40377,0.64654 0.88574,0.85549 0.88574,0.384 z m -16.16,6.976 c 0.10877,-0.176 0.26127,-0.32 0.33889,-0.32 0.0776,0 0.14111,0.144 0.14111,0.32 0,0.176 -0.1525,0.32 -0.33889,0.32 -0.18638,0 -0.24988,-0.144 -0.14111,-0.32 z m 19.75985,-0.08 c 0.0733,-0.22 0.40467,-0.45261 0.73648,-0.51691 0.52195,-0.10114 0.54545,-0.0472 0.1743,0.4 -0.50758,0.6116 -1.10085,0.68775 -0.91078,0.11691 z m -24.03041,-0.73663 c 0.0608,-0.31368 0.30431,-0.63485 0.54112,-0.71371 0.2754,-0.0917 0.39072,0.0622 0.32,0.42697 -0.0608,0.31368 -0.30431,0.63485 -0.54112,0.71371 -0.2754,0.0917 -0.39072,-0.0622 -0.32,-0.42697 z m 11.79056,0.0123 c 0,-0.0904 0.17361,-0.44233 0.3858,-0.7821 0.31863,-0.51021 0.27906,-0.73569 -0.22728,-1.2952 -0.52346,-0.57841 -0.54477,-0.72064 -0.1458,-0.973 0.7182,-0.45427 0.86211,-0.38212 1.40384,0.7038 0.6191,1.24101 0.62439,1.47561 0.0463,2.0537 -0.43516,0.43515 -1.46286,0.64085 -1.46286,0.2928 z m -3.97703,-0.7585 c -0.39129,-0.63312 -3.08235,-1.60437 -4.79302,-1.72989 -2.03086,-0.14901 -2.64346,-0.52989 -2.26102,-1.40576 0.13965,-0.31983 0.2856,-0.97133 0.32435,-1.44778 0.11897,-1.46292 0.4617,-2.49373 0.82914,-2.49373 0.21289,0 0.29054,0.40663 0.19802,1.03699 -0.10432,0.71076 0.006,1.15287 0.3516,1.40537 0.42993,0.31436 0.43952,0.44584 0.0654,0.89657 -0.3252,0.39185 -0.34525,0.6213 -0.0777,0.88888 0.26757,0.26757 0.43206,0.16773 0.63719,-0.38681 0.2725,-0.73661 0.28544,-0.73856 0.88976,-0.13424 0.41242,0.41242 0.95388,0.5804 1.65345,0.51295 0.88478,-0.0853 1.09058,0.0322 1.37735,0.78647 l 0.33714,0.88676 0.41527,-0.78647 c 0.34733,-0.65781 0.33985,-0.84798 -0.0457,-1.16248 -0.38047,-0.31035 -0.30234,-0.39417 0.44739,-0.48 0.72701,-0.0832 0.92895,-0.28365 1.01153,-1.00394 0.0568,-0.49497 0.47245,-1.43097 0.92377,-2.08 0.59178,-0.85101 0.77213,-0.97929 0.64678,-0.46005 -0.0956,0.396 -0.0537,0.72 0.093,0.72 0.53786,0 1.59327,-1.71187 1.59327,-2.58427 0,-1.02744 0.57738,-1.55082 0.98924,-0.89673 0.15272,0.24255 0.27262,1.017 0.26643,1.721 -0.006,0.704 0.0779,2.12432 0.18686,3.15627 0.2902,2.74855 0.0503,3.07649 -1.22905,1.6798 -1.17651,-1.28445 -1.97665,-1.53429 -1.65356,-0.51632 0.15396,0.48509 0.012,0.7124 -0.58735,0.94026 -0.98263,0.3736 -1.38113,0.97332 -0.86053,1.29507 0.31196,0.1928 0.31172,0.39734 -10e-4,0.9819 -0.36105,0.67462 -0.42911,0.69194 -0.78832,0.20069 -0.54745,-0.74868 -0.89824,-0.6743 -0.4826,0.10233 0.336,0.62781 -0.086,0.95756 -0.45703,0.35716 z M 612.8,746.40822 c 0,-0.0835 0.42383,-0.37095 0.94184,-0.63883 0.98682,-0.5103 1.82769,-0.0613 0.93916,0.50149 -0.46394,0.29385 -1.881,0.39731 -1.881,0.13734 z M 590.4,745.44 c -0.33765,-0.40684 -0.26449,-0.48 0.48,-0.48 0.74449,0 0.81765,0.0732 0.48,0.48 -0.2191,0.264 -0.4351,0.48 -0.48,0.48 -0.0449,0 -0.2609,-0.216 -0.48,-0.48 z m 16.17384,-0.88 c -0.0693,-0.22 -0.22303,-1.12 -0.34153,-2 -0.11851,-0.88 -0.32552,-1.816 -0.46002,-2.08 -0.1345,-0.264 -0.33733,-1.08788 -0.45074,-1.83085 -0.17151,-1.12368 -0.12508,-1.31972 0.27613,-1.16576 0.31691,0.12161 0.48232,0.61777 0.48232,1.44674 0,0.69391 0.20866,1.66515 0.46369,2.15832 0.25502,0.49317 0.46329,1.17002 0.46281,1.50411 -4.8e-4,0.33409 0.0957,1.00344 0.21362,1.48744 0.21462,0.88055 -0.38068,1.3227 -0.64628,0.48 z M 593.92,739.36946 c 0,-0.28558 -0.43109,-0.76453 -0.95798,-1.06434 -1.07038,-0.60908 -1.12305,-0.83925 -0.58587,-2.56042 l 0.37615,-1.20523 1.86348,0.0103 1.86349,0.0103 3.6e-4,0.99225 c 5.5e-4,1.48913 -0.57354,2.76119 -1.62116,3.59209 -0.77321,0.61326 -0.93847,0.6529 -0.93847,0.22512 z m 349.50012,-5.28692 c -20.12077,-1.08006 -38.79763,-4.86828 -57.38289,-11.63893 -7.01292,-2.55483 -17.87723,-7.30891 -17.87723,-7.82285 0,-0.14553 0.21825,-0.99951 0.48499,-1.89774 l 0.48499,-1.63315 1.99501,-0.17784 c 1.09726,-0.0978 4.22701,-0.33226 6.95501,-0.52098 23.23927,-1.60772 47.63107,-5.67448 74.87495,-12.48364 l 8.79495,-2.19815 0.73118,0.68691 c 0.40215,0.3778 1.17544,1.37922 1.71841,2.22537 0.80122,1.2486 1.15948,1.53846 1.90148,1.53846 1.39317,0 5.54834,-1.04095 12.69706,-3.18086 3.56292,-1.06653 6.5957,-1.93914 6.73951,-1.93914 0.14381,0 0.44203,0.684 0.66272,1.52 0.22069,0.836 0.66914,2.024 0.99656,2.64 0.32741,0.616 0.89695,1.73042 1.26564,2.4765 0.36869,0.74607 1.40266,2.61807 2.29772,4.16 0.89506,1.54192 2.13439,3.7395 2.75406,4.8835 0.61968,1.144 1.23485,2.224 1.36706,2.4 0.1322,0.176 0.34889,0.68 0.48152,1.12 0.46928,1.55685 1.42282,2.56 2.43337,2.56 1.59382,0 10.65321,-2.41006 17.25111,-4.5893 21.5774,-7.12687 38.9803,-15.55175 56.6017,-27.40122 16.7753,-11.28052 37.6284,-28.77231 52.5112,-44.04708 7.5816,-7.78127 16.7661,-18.43309 18.1222,-21.01754 0.4563,-0.86961 0.4282,-0.94132 -0.9864,-2.51461 -0.8008,-0.89071 -1.456,-1.76874 -1.456,-1.95117 0,-0.46938 -3.8077,-7.97138 -4.3639,-8.59779 -0.5028,-0.56633 -2.1719,-4.4015 -3.2871,-7.55301 -0.6096,-1.72283 -1.1282,-2.75486 -2.7491,-5.47177 -0.7892,-1.32276 -0.8235,-1.34641 -1.4593,-1.00612 -0.9381,0.50203 -0.7543,0.009 0.7197,-1.93039 17.549,-23.0912 23.8605,-33.57026 31.0071,-51.48141 2.2151,-5.55149 2.4371,-6.28986 1.9167,-6.37589 -0.3237,-0.0535 -2.4048,0.41448 -4.6247,1.04 -2.22,0.62551 -4.1009,1.1373 -4.1799,1.1373 -0.079,0 -0.9797,-1.11283 -2.0015,-2.47295 -2.4887,-3.31238 -7.3635,-8.18509 -10.559,-10.55446 -3.3263,-2.46628 -9.384,-6.30832 -19.459,-12.34169 -11.2378,-6.72971 -11.5742,-7.16417 -5.3133,-6.8609 3.8673,0.18732 13.019,1.85798 20.4378,3.73094 3.696,0.93311 5.8355,1.21767 5.8355,0.77617 0,-0.11159 -0.5849,-1.35073 -1.2997,-2.75365 -0.7148,-1.40292 -1.2146,-2.63579 -1.1107,-2.73971 0.3065,-0.30654 7.7547,0.53122 13.862,1.55916 14.0794,2.36977 29.0402,6.96083 41.735,12.80731 8.4965,3.91299 19.1351,9.93222 19.1312,10.8243 0,0.70701 -6.9061,14.64219 -10.8711,21.94548 -10.7518,19.80445 -20.1524,34.63257 -34.0833,53.76163 -16.4036,22.52455 -24.4175,32.12724 -38.8669,46.5728 -10.6926,10.68972 -17.1966,16.45311 -31.1685,27.61896 -17.1091,13.67301 -27.8896,21.11765 -41.328,28.53968 -18.3656,10.14332 -43.0676,19.57153 -62.77792,23.96094 -17.02037,3.79037 -35.96573,5.50572 -51.56196,4.66853 z M 474.4,733.85646 c -15.71608,-0.49942 -32.31922,-3.09435 -47.94145,-7.49285 -17.20825,-4.84504 -38.59336,-13.57765 -50.62363,-20.67216 -5.48636,-3.23543 -5.36272,-3.1095 -4.95986,-5.05145 0.18256,-0.88 0.40931,-2.104 0.50389,-2.72 0.29631,-1.92979 1.18941,-4.8 1.49359,-4.8 0.16016,0 2.83736,1.24181 5.94933,2.75959 13.14888,6.41298 24.98123,11.22876 25.66962,10.44756 0.11978,-0.13593 0.39085,-1.18315 0.60236,-2.32715 0.21152,-1.144 0.51012,-2.584 0.66357,-3.2 0.15345,-0.616 0.51269,-2.56 0.79831,-4.32 0.28561,-1.76 0.6614,-3.704 0.83508,-4.32 0.17368,-0.616 0.44445,-2.056 0.60171,-3.2 0.15727,-1.144 0.65361,-4.168 1.10299,-6.72 l 0.81705,-4.64 -2.21927,-2.01636 -2.21926,-2.01637 0.158,-1.66363 c 0.41302,-4.34871 0.4358,-4.42929 1.18977,-4.20817 0.38401,0.11261 3.91753,1.93596 7.85228,4.05188 20.74043,11.15321 37.26312,17.86185 60.52021,24.57274 23.06474,6.65539 57.66285,12.57621 81.28571,13.91053 7.21717,0.40765 6.77953,0.2303 7.19575,2.91613 l 0.20251,1.30674 -5.54217,2.59442 c -17.55618,8.21848 -37.93212,13.70832 -59.04571,15.90857 -4.68618,0.48835 -17.77061,1.13324 -20.89038,1.02962 -0.968,-0.0322 -2.768,-0.0905 -4,-0.12964 z m 133.22,-2.23506 c 0.231,-0.0924 0.507,-0.0811 0.61333,0.0253 0.10634,0.10633 -0.0827,0.18196 -0.42,0.16807 -0.37278,-0.0154 -0.4486,-0.0912 -0.19333,-0.19334 z M 809.76,712.32 c 0.10877,-0.176 0.33327,-0.32 0.49889,-0.32 0.16561,0 0.30111,0.144 0.30111,0.32 0,0.176 -0.2245,0.32 -0.49889,0.32 -0.27438,0 -0.40988,-0.144 -0.30111,-0.32 z m 66.14133,-21.464 c 0.0631,-0.1892 0.25147,-0.344 0.41867,-0.344 0.1672,0 0.3556,0.1548 0.41867,0.344 0.0631,0.1892 -0.12534,0.344 -0.41867,0.344 -0.29333,0 -0.48173,-0.1548 -0.41867,-0.344 z M 877.76,690.56 c 0,-0.176 0.1525,-0.32 0.33889,-0.32 0.18638,0 0.24988,0.144 0.14111,0.32 -0.10877,0.176 -0.26127,0.32 -0.33889,0.32 -0.0776,0 -0.14111,-0.144 -0.14111,-0.32 z m 6.11876,-2.93624 c -0.33731,-0.90182 0.1479,-1.31764 1.0033,-0.85984 0.71852,0.38454 0.611,1.34628 -0.16726,1.49616 -0.34985,0.0674 -0.66157,-0.16988 -0.83604,-0.63632 z m -98.43934,-1.9359 c -0.0806,-0.22432 -1.02793,-2.99746 -2.10522,-6.16253 -10.65996,-31.31913 -26.69746,-62.28729 -46.30971,-89.42331 -10.68016,-14.77735 -21.49077,-27.33989 -38.19795,-44.38814 -7.2331,-7.38077 -7.14141,-7.25116 -6.41954,-9.07388 0.26437,-0.66754 1.00158,-3.98 1.34196,-6.02977 0.15615,-0.94038 0.3627,-1.78856 0.459,-1.88486 0.29628,-0.29627 4.20672,2.88909 11.23204,9.14937 6.92173,6.16798 8.68705,7.62488 8.93662,7.37531 0.28701,-0.28702 1.14286,-4.96061 1.14312,-6.2423 1.4e-4,-0.72174 0.13579,-1.72974 0.30144,-2.24 0.16565,-0.51026 0.5411,-2.04822 0.83434,-3.41769 0.4648,-2.17072 0.71653,-2.68355 1.96353,-4 0.78671,-0.83053 1.98458,-2.37406 2.66194,-3.43006 0.67736,-1.056 1.54477,-2.32032 1.92757,-2.80959 0.47419,-0.60608 0.63446,-1.13482 0.50289,-1.65904 -0.10622,-0.4232 -3.14475,-3.79188 -6.75229,-7.48596 -3.60754,-3.69409 -6.55862,-6.83552 -6.55796,-6.98096 6.5e-4,-0.14545 0.31878,-0.76845 0.70694,-1.38445 0.38816,-0.616 0.95658,-1.66 1.26316,-2.32 0.30657,-0.66 0.75974,-1.2 1.00704,-1.2 1.43719,0 13.70037,10.70774 24.23431,21.16048 34.91561,34.64646 62.25887,77.95991 78.96119,125.07952 4.07451,11.49475 8.71571,26.65712 8.29004,27.08279 -0.30086,0.30085 -10.69291,3.48486 -17.50388,5.36298 -4.95126,1.36531 -13.75222,3.52569 -21.04703,5.16643 -0.42836,0.0964 -0.78722,-0.004 -0.87355,-0.24434 z m 103.81833,-0.38417 c 0.42931,-0.45698 0.62959,-0.93765 0.48689,-1.16855 -0.41172,-0.66617 0.74677,-1.27267 1.64726,-0.86238 0.81323,0.37053 1.05599,1.20724 0.35027,1.20724 -0.22981,0 -0.90578,0.36 -1.50217,0.8 -1.38195,1.01957 -1.93026,1.03279 -0.98225,0.0237 z m -1.25285,-0.4048 c -0.003,-0.38562 0.1391,-0.79012 0.3151,-0.89889 0.40742,-0.2518 0.40742,0.48956 0,1.12 -0.25219,0.39023 -0.31112,0.34888 -0.3151,-0.22111 z m 5.1151,-1.48929 c 0,-0.29128 0.22335,-0.5296 0.49633,-0.5296 0.27298,0 0.70934,-0.50981 0.96968,-1.1329 0.53114,-1.27119 1.1706,-1.19626 0.99501,0.11659 -0.0717,0.53644 -0.34361,0.89853 -0.72777,0.96935 -0.33729,0.0622 -0.86525,0.33648 -1.17325,0.60959 -0.50778,0.45026 -0.56,0.44718 -0.56,-0.033 z m 4.74474,-2.77152 c -0.4955,-0.54488 -0.49613,-0.60361 -0.008,-0.79075 0.56,-0.2149 1.45101,0.68016 1.15456,1.15981 -0.24335,0.39376 -0.53898,0.29857 -1.14612,-0.36906 z M 902.24,679.04 c -0.11413,-0.18467 0.18237,-0.31793 0.70111,-0.3151 0.69796,0.004 0.79159,0.0742 0.41889,0.3151 -0.61481,0.39732 -0.87444,0.39732 -1.12,0 z m 4.96,-2.7696 c 0,-0.82594 0.0176,-0.83366 0.63245,-0.27723 0.67141,0.60761 0.59246,1.12683 -0.17134,1.12683 -0.2857,0 -0.46111,-0.3232 -0.46111,-0.8496 z m 6.08,-2.68018 c 0,-0.6411 0.66682,-1.61142 0.97606,-1.4203 0.51416,0.31778 0.33749,1.06961 -0.33606,1.43008 -0.45986,0.24611 -0.64,0.24336 -0.64,-0.01 z M 916,671.68 c -0.52173,-0.2242 -0.54,-0.27917 -0.0989,-0.29751 0.29762,-0.0124 0.63012,0.12151 0.73889,0.29751 0.22741,0.36796 0.21629,0.36796 -0.64,0 z m 0.97689,-1.89267 c -0.10303,-0.16671 -0.0509,-0.38741 0.11578,-0.49044 0.16671,-0.10303 0.38741,-0.0509 0.49044,0.11578 0.10303,0.16671 0.0509,0.38741 -0.11578,0.49044 -0.16671,0.10303 -0.38741,0.0509 -0.49044,-0.11578 z m 1.50311,0.0807 c -0.54221,-0.21879 -0.50656,-0.9587 0.0566,-1.17481 0.54479,-0.20906 1.28587,0.57734 0.99206,1.05272 -0.22019,0.35628 -0.41273,0.37869 -1.04866,0.12209 z m 1.56196,-1.49751 c -0.39157,-0.47182 -0.17277,-0.85056 0.49137,-0.85056 0.23467,0 0.42667,0.288 0.42667,0.64 0,0.73835 -0.40325,0.83084 -0.91804,0.21056 z m 1.74367,0.15092 c -0.0982,-0.15893 0.0358,-0.46691 0.29789,-0.6844 0.38742,-0.32153 0.47648,-0.30193 0.47648,0.10485 0,0.59741 -0.52192,0.98802 -0.77437,0.57955 z M 630.204,666.53004 c 0.12364,-0.42352 0.59036,-2.13804 1.03714,-3.81004 2.60488,-9.74832 11.30079,-32.59843 12.41824,-32.63122 0.16465,-0.005 0.64426,0.31522 1.06578,0.71122 0.76218,0.71602 0.76901,0.71646 1.2349,0.08 0.25767,-0.352 1.77692,-3.15248 3.37612,-6.2233 2.48733,-4.77622 4.66427,-8.66019 4.85127,-8.65534 0.0289,7.5e-4 0.84455,1.08278 1.81255,2.40451 1.00769,1.37591 1.95959,2.36622 2.22693,2.31677 1.29239,-0.23906 38.32614,-43.73587 37.89004,-44.50253 -0.6366,-1.11913 -2.95671,-3.73739 -6.85872,-7.74011 -3.79447,-3.89241 -4.41521,-4.67696 -4.73276,-5.9817 -0.43808,-1.79995 -0.45352,-2.1783 -0.0889,-2.1783 0.55445,0 5.41015,4.0512 8.80181,7.34352 3.06201,2.97231 8.84163,9.71291 8.84163,10.31172 0,0.12029 -1.26322,1.63308 -2.80714,3.36174 -21.07568,23.59738 -44.40804,52.4621 -63.38471,78.41387 -2.85981,3.91097 -5.35925,7.20948 -5.55431,7.33004 -0.24278,0.15004 -0.28374,-0.0237 -0.12984,-0.55085 z m 293.52933,-0.0234 c -0.32266,-0.352 -0.53866,-0.67085 -0.48,-0.70854 0.0587,-0.0377 0.52562,-0.24907 1.03766,-0.46971 0.75433,-0.32504 0.98112,-0.32215 1.1951,0.0152 0.42782,0.67446 0.31532,1.17169 -0.34505,1.52511 -0.75425,0.40366 -0.69083,0.41997 -1.40771,-0.36207 z M 926.34,664.7414 c 0.231,-0.0924 0.507,-0.0811 0.61333,0.0253 0.10634,0.10633 -0.0827,0.18196 -0.42,0.16807 -0.37278,-0.0154 -0.4486,-0.0912 -0.19333,-0.19334 z m 2.3,-0.8949 c 0,-0.25943 2.6113,-1.50186 2.7871,-1.32607 0.20663,0.20664 -1.8442,1.47675 -2.3871,1.47837 -0.22,6.6e-4 -0.4,-0.0679 -0.4,-0.1523 z m 3.2,-1.9265 c 0,-0.33029 0.32437,-0.47683 1.04,-0.46982 0.98374,0.01 1.0064,0.0356 0.41884,0.48 -0.79996,0.60505 -1.45884,0.60046 -1.45884,-0.0102 z m 2.8,-1.36043 c -0.66739,-0.15076 -0.71689,-0.511 -0.13639,-0.99277 0.30778,-0.25544 0.5198,-0.25539 0.77535,1.6e-4 0.25564,0.25564 0.62576,0.1566 1.35481,-0.36252 0.98129,-0.69874 1.56201,-0.70955 1.13656,-0.0212 -0.34443,0.55731 -2.52049,1.51404 -3.13033,1.37629 z m 5.08748,-3.20274 c -0.26163,-0.42333 0.67428,-2.25244 1.33288,-2.60491 0.48118,-0.25752 0.72638,-0.22528 1.02522,0.1348 0.24041,0.28968 0.26357,0.47328 0.0597,0.47328 -0.18319,0 -0.64457,0.504 -1.02528,1.12 -0.67932,1.09916 -1.09381,1.36015 -1.39252,0.87683 z m 3.42475,-2.0126 c -0.23436,-0.23436 -0.18121,-0.66612 0.176,-1.42958 0.3936,-0.84123 0.71061,-1.09621 1.37288,-1.10423 0.47362,-0.006 0.95139,-0.15648 1.06172,-0.33499 0.36907,-0.59717 2.77273,-1.64258 3.30611,-1.43791 0.45042,0.17285 0.41108,0.29116 -0.27103,0.81522 -0.43885,0.33717 -0.99715,0.61623 -1.24067,0.62014 -0.24351,0.004 -1.15149,0.72712 -2.01772,1.60712 -1.66931,1.69585 -1.85653,1.79499 -2.38729,1.26423 z m 6.41532,-4.91339 c -0.33133,-0.86343 0.0519,-1.37143 0.4597,-0.60941 0.24686,0.46127 0.26436,0.76779 0.0514,0.89943 -0.17772,0.10984 -0.4077,-0.0207 -0.51106,-0.29002 z m 1.15245,-1.61195 c 0,-1.27964 0.56514,-1.79183 1.12789,-1.02222 0.22952,0.31389 0.60566,0.452 0.91145,0.33465 0.65372,-0.25085 0.68115,-0.77132 0.0407,-0.77132 -0.264,0 -0.48,-0.22744 -0.48,-0.50543 0,-0.38344 0.21238,-0.46022 0.88,-0.31813 0.7522,0.16009 0.98806,0.0197 1.62405,-0.96678 0.65755,-1.0199 0.87146,-1.13919 1.84,-1.02612 0.63013,0.0736 1.0993,-0.0148 1.10382,-0.2078 0.01,-0.42674 2.23213,-1.55065 2.23213,-1.12897 0,0.17228 -0.16612,0.31323 -0.36916,0.31323 -0.20303,0 -0.88703,0.54892 -1.52,1.21981 -1.44344,1.52995 -3.13385,2.7179 -3.52419,2.47666 -0.16374,-0.1012 -0.61507,0.26169 -1.00295,0.80643 -0.48338,0.67883 -0.89377,0.94112 -1.30447,0.83372 -0.43089,-0.11268 -0.59923,0.0147 -0.59923,0.45334 0,0.33552 -0.216,0.61004 -0.48,0.61004 -0.33367,0 -0.48,-0.33568 -0.48,-1.10111 z M 961.00082,642 c 0.24155,-0.308 0.63129,-0.68193 0.8661,-0.83097 0.25682,-0.163 0.35335,-0.56407 0.24228,-1.00663 -0.2509,-0.99964 0.60239,-1.29081 1.41153,-0.48167 0.48278,0.48278 0.53609,0.69991 0.23275,0.94792 -1.83658,1.50155 -2.45943,1.93135 -2.79886,1.93135 -0.29305,0 -0.2813,-0.14241 0.0462,-0.56 z M 964.8,638.78079 c 0,-0.16838 0.29622,-0.38361 0.65827,-0.47829 0.41875,-0.1095 0.61287,-0.0358 0.53349,0.20268 -0.15324,0.46027 -1.19176,0.70044 -1.19176,0.27561 z m 1.92,-2.61834 c 0,-0.43679 1.47385,-1.56341 2.32,-1.77342 0.73421,-0.18223 0.88,-0.11485 0.88,0.40668 0,0.89835 -0.95548,1.601 -2.16,1.58845 -0.572,-0.006 -1.04,-0.10573 -1.04,-0.22171 z m 3.84,-1.60245 c 0,-0.176 0.2245,-0.32 0.49889,-0.32 0.27438,0 0.40988,0.144 0.30111,0.32 -0.10877,0.176 -0.33327,0.32 -0.49889,0.32 -0.16561,0 -0.30111,-0.144 -0.30111,-0.32 z m 5.93603,-4.24 c -0.135,-0.30921 -0.58745,-0.56 -1.01027,-0.56 -1.06292,0 -0.95702,-0.48313 0.21204,-0.96737 1.18393,-0.4904 1.54426,-0.16705 1.2563,1.12737 -0.17441,0.78403 -0.25838,0.85735 -0.45807,0.4 z m 0.6773,-1.73333 c -0.40094,-0.40095 -0.21353,-0.7603 0.58667,-1.1249 0.44,-0.20047 0.8,-0.55739 0.8,-0.79313 0,-0.24388 0.34483,-0.42864 0.8,-0.42864 0.49778,0 0.8,-0.18133 0.8,-0.48 0,-0.85859 3.90435,-4.31394 4.88,-4.3188 0.49671,-0.002 0.21271,0.87288 -0.50062,1.54302 -0.40735,0.38268 -0.8204,0.69578 -0.9179,0.69578 -0.0975,0 -0.81652,0.612 -1.59782,1.36 -3.98374,3.81392 -4.32993,4.06706 -4.85033,3.54667 z m 8.66781,-7.62387 c 0.0844,-0.44154 0.28068,-0.8028 0.43616,-0.8028 0.43734,0 0.33378,0.83925 -0.15346,1.24362 -0.35303,0.29298 -0.40691,0.20896 -0.2827,-0.44082 z M 987.04,619.84 c -0.29546,-0.47806 0.11564,-0.96 0.81889,-0.96 0.70794,0 0.79691,0.3362 0.23711,0.896 -0.46792,0.46792 -0.79415,0.48769 -1.056,0.064 z m 1.76,-1.75262 c 0,-0.49661 0.30491,-0.99241 0.81643,-1.32757 1.21046,-0.79313 1.55715,-0.15418 0.58815,1.08397 -0.97067,1.24028 -1.40458,1.31554 -1.40458,0.2436 z m 4.50308,-3.60738 c 1.08081,-1.43612 8.43102,-9.04 8.73842,-9.04 0.1092,0 0.1985,0.19609 0.1985,0.43575 0,0.475 -5.46809,6.28425 -5.91519,6.28425 -0.15098,0 -0.89541,0.648 -1.65428,1.44 -1.37393,1.43391 -2.16974,1.94604 -1.36745,0.88 z m 9.58892,-9.58874 c 0.01,-0.13819 0.5042,-0.8265 1.1057,-1.52956 0.8518,-0.9956 1.1788,-1.19322 1.4784,-0.89356 0.4527,0.45269 -0.1337,1.37186 -0.8753,1.37186 -0.2424,0 -0.4408,0.13893 -0.4408,0.30874 0,0.16981 -0.288,0.46288 -0.64,0.65126 -0.352,0.18838 -0.6346,0.22945 -0.628,0.0913 z m -740.40339,-4.02168 c -7.45784,-9.23777 -19.77492,-27.99945 -28.82673,-43.90958 -6.35108,-11.16313 -15.54333,-29.23713 -15.35196,-30.18535 0.24438,-1.21087 16.77186,-9.91752 24.57008,-12.94348 4.81743,-1.86932 5.44,-2.01366 5.44,-1.26127 0,0.32016 -0.12941,0.7189 -0.28758,0.8861 -0.45678,0.48285 -1.57492,4.944 -1.23917,4.944 0.16671,0 2.80918,-0.78956 5.87217,-1.75458 6.04988,-1.90606 11.56843,-3.35617 15.76993,-4.14385 3.46124,-0.64891 3.64923,-0.64554 3.26216,0.0584 -0.16935,0.308 -0.53902,1.568 -0.82149,2.8 -0.28246,1.232 -0.86512,3.34942 -1.29479,4.70538 -0.42968,1.35596 -0.78123,2.85773 -0.78123,3.33728 0,0.47955 -0.13525,1.31413 -0.30056,1.85462 -1.50749,4.92904 -4.1474,17.66929 -5.14351,24.82272 -0.95087,6.82861 -1.29649,9.0817 -1.76714,11.52 -0.28876,1.496 -0.58413,3.584 -0.65638,4.64 -0.0722,1.056 -0.27271,2.496 -0.44548,3.2 -0.44673,1.82032 -1.28693,7.04932 -1.28693,8.00927 0,0.97027 1.05228,3.08081 4.29766,8.61972 l 2.43099,4.14898 -0.17026,2.25102 c -0.0937,1.23805 -0.24332,2.82701 -0.3326,3.53101 -0.0893,0.704 -0.20804,1.712 -0.26392,2.24 -0.24536,2.31856 -0.62415,4.34544 -0.83663,4.47676 -0.12672,0.0783 -0.9532,-0.75291 -1.83663,-1.84718 z M 1006.72,601.024 c 0,-0.67384 0.5904,-1.344 1.184,-1.344 0.5721,0 0.5226,0.80765 -0.087,1.41714 -0.6653,0.66534 -1.0971,0.63655 -1.0971,-0.0731 z m 1.751,-1.99856 c -0.1258,-0.2035 0.075,-0.67387 0.4466,-1.04527 0.5369,-0.53692 0.7565,-0.59407 1.0717,-0.27892 0.2917,0.29176 0.3047,0.54184 0.049,0.94756 -0.4259,0.67629 -1.2586,0.87638 -1.5675,0.37663 z m 2.409,-2.21054 c 0,-0.16781 0.648,-0.94394 1.44,-1.72473 0.792,-0.7808 1.44,-1.53513 1.44,-1.6763 0,-0.33389 2.53,-2.69387 2.8879,-2.69387 0.4141,0 0.6178,0.46712 0.371,0.85063 -0.1204,0.18704 -0.6869,0.57986 -1.2589,0.87294 -0.572,0.29307 -1.04,0.74517 -1.04,1.00465 0,0.25948 -0.144,0.47178 -0.32,0.47178 -0.176,0 -0.32,0.19865 -0.32,0.44145 0,0.2428 -0.6362,0.9628 -1.4139,1.6 -1.4793,1.21225 -1.7861,1.35882 -1.7861,0.85345 z m 6.9074,-7.25901 c -0.1407,-0.36658 0.06,-0.82846 0.5893,-1.35802 l 0.8025,-0.8025 -0.07,1.25832 c -0.075,1.35498 -0.9257,1.9355 -1.3222,0.9022 z m 2.3726,-2.64165 c 0,-0.32438 0.9747,-0.76626 1.1978,-0.54306 0.081,0.0804 0.051,0.29982 -0.065,0.48753 -0.2553,0.41308 -1.1332,0.4561 -1.1332,0.0555 z m 1.4187,-1.66871 c -0.3288,-0.53193 1.8658,-2.59582 2.501,-2.35208 0.4348,0.16686 0.4617,0.34295 0.1611,1.05345 -0.6219,1.4699 -2.1082,2.19492 -2.6621,1.29863 z m 6.1413,-5.98081 c -0.087,-0.1404 -0.038,-0.44939 0.1088,-0.68663 0.3602,-0.5827 1.3338,-0.18149 1.0916,0.4498 -0.2,0.52106 -0.9351,0.6661 -1.2004,0.23683 z m 1.2052,-2.04101 c -0.1258,-0.20363 0.081,-0.61672 0.4639,-0.92683 0.38,-0.30771 0.6909,-0.71639 0.6909,-0.90817 0,-0.19179 0.1984,-0.34871 0.441,-0.34871 0.2425,0 0.6608,-0.324 0.9295,-0.72 0.651,-0.95959 1.3529,-0.38612 0.9153,0.74789 -0.6248,1.61929 -2.8936,3.04086 -3.4406,2.15582 z m 4.0756,-5.30245 c 0.2416,-0.30731 0.6192,-0.7496 0.8392,-0.98286 0.22,-0.23326 0.4,-0.58015 0.4,-0.77085 0,-0.19071 0.2633,-0.10842 0.5852,0.18285 0.3219,0.29128 0.7762,0.5296 1.0096,0.5296 0.2985,0 0.2495,0.19323 -0.165,0.65129 -0.3242,0.3582 -0.7739,0.58049 -0.9994,0.49397 -0.2254,-0.0865 -0.495,-0.0196 -0.599,0.14872 -0.1041,0.16831 -0.4863,0.30602 -0.8495,0.30602 -0.5826,0 -0.6086,-0.0657 -0.2211,-0.55874 z M 289.18937,569.2 c -3.02049,-3.7567 -8.03568,-12.16045 -12.42019,-20.81201 -3.39683,-6.70266 -7.64918,-16.03718 -7.64918,-16.79104 0,-0.23764 0.55796,-1.25217 1.23992,-2.25451 7.32879,-10.77191 18.48087,-20.41943 26.12008,-22.59614 7.0797,-2.01728 15.89876,-3.7173 21.84,-4.21 2.27271,-0.18848 2.64,-0.14944 2.64,0.28059 0,0.66273 -0.36975,0.90995 -10.36802,6.93225 -17.65446,10.63389 -21.95175,13.83353 -27.36895,20.37817 -4.04322,4.88471 -3.97478,3.73506 -0.67039,11.26037 2.39472,5.45367 6.83682,14.40336 10.44365,21.04129 l 0.88512,1.62897 -0.8697,1.57103 c -0.47834,0.86407 -1.22384,2.32703 -1.65667,3.25103 -0.43283,0.924 -0.85114,1.68 -0.92958,1.68 -0.0784,0 -0.63468,-0.612 -1.23609,-1.36 z m 746.66793,0.3231 c -0.3686,-0.83268 -0.3435,-1.04257 0.2147,-1.79308 0.3477,-0.46751 0.948,-0.89686 1.334,-0.9541 0.509,-0.0755 0.6521,-0.2609 0.5207,-0.67482 -0.2098,-0.66098 0.6137,-1.53063 0.9437,-0.99664 0.4278,0.69223 1.0905,0.34187 1.0298,-0.54446 -0.053,-0.78079 0.039,-0.86962 0.8198,-0.78789 0.6253,0.0655 0.88,-0.0532 0.88,-0.41004 0,-0.27619 -0.216,-0.58504 -0.48,-0.68635 -0.6795,-0.26075 -0.5985,-0.6663 0.3157,-1.58048 0.7552,-0.75519 0.8356,-0.7695 1.5807,-0.2813 0.8253,0.54075 0.7933,1.60571 -0.039,1.28646 -0.3272,-0.12553 -0.4071,-0.0109 -0.2775,0.39762 0.1229,0.38705 -0.183,0.92796 -0.939,1.66076 -0.6167,0.59772 -1.1213,1.26635 -1.1213,1.48585 0,0.21949 -0.2879,0.60074 -0.6398,0.84722 -0.3519,0.24648 -1.3341,1.24153 -2.1827,2.21123 l -1.5428,1.76309 z m 7.4227,-9.41503 c -0.22,-0.0888 -0.3958,-0.3294 -0.3906,-0.53474 0.014,-0.57457 1.8522,-2.466 2.3071,-2.37449 0.2305,0.0463 0.4035,-0.23189 0.4035,-0.64875 0,-0.40145 0.144,-0.83345 0.32,-0.96 0.176,-0.12655 0.4787,-0.51809 0.6727,-0.87009 0.194,-0.352 0.6704,-0.68712 1.0587,-0.7447 0.5708,-0.0847 0.6336,-0.1919 0.3281,-0.56 -0.4462,-0.53767 0.1081,-1.4153 0.8939,-1.4153 0.2949,0 0.4038,-0.18563 0.2872,-0.48956 -0.1837,-0.47878 3.1656,-4.95044 3.7079,-4.95044 0.1383,0 0.2515,-0.1872 0.2515,-0.416 0,-0.2288 0.1708,-0.58683 0.3796,-0.79563 0.2929,-0.29284 0.5044,-0.26673 0.9254,0.11422 0.4532,0.41016 0.4854,0.65356 0.1899,1.43643 -0.1957,0.51842 -0.6121,1.02392 -0.9254,1.12334 -0.3132,0.0994 -0.5695,0.454 -0.5695,0.78795 0,0.33394 -0.288,0.76131 -0.64,0.94969 -0.352,0.18838 -0.64,0.56 -0.64,0.8258 0,0.26581 -0.36,0.84329 -0.8,1.28329 -0.44,0.44 -0.8,0.9583 -0.8,1.15178 0,0.19348 -0.2974,0.65493 -0.6608,1.02545 -0.3635,0.37053 -1.1738,1.46568 -1.8007,2.43368 -2.0802,3.21202 -3.2305,4.13973 -4.4985,3.62807 z m 13.5319,-17.73289 c -0.3095,-0.78919 0.3782,-2.25917 1.0058,-2.14975 0.385,0.0671 0.6058,-0.20582 0.761,-0.94061 0.2181,-1.0335 1.3845,-2.29403 2.1413,-2.31417 0.7337,-0.0195 0.413,0.81168 -0.96,2.48826 -0.748,0.91337 -1.6728,2.05676 -2.0551,2.54088 -0.5686,0.72005 -0.7311,0.78836 -0.893,0.37539 z m 4.5318,-7.2181 c -0.2404,-0.24046 1.438,-2.67708 1.8441,-2.67708 0.1948,0 0.6094,-0.432 0.9213,-0.96 0.3119,-0.528 0.7749,-0.96 1.029,-0.96 0.6209,0 0.5946,0.11801 -0.375,1.68636 -1.2344,1.99679 -2.9084,3.42171 -3.4194,2.91072 z m 4.2563,-5.48011 c 0,-0.30966 0.288,-0.74288 0.64,-0.96271 0.352,-0.21982 0.64,-0.58165 0.64,-0.80406 0,-0.22241 0.4047,-0.90519 0.8993,-1.51729 0.4946,-0.6121 1.2296,-1.65812 1.6333,-2.32449 0.5894,-0.97307 0.8219,-1.13859 1.1807,-0.84082 0.7288,0.60487 0.5318,1.06959 -1.1542,2.72271 -0.8806,0.86333 -1.8893,2.18169 -2.2417,2.92969 -0.6447,1.36854 -1.5974,1.84385 -1.5974,0.79697 z M 786.29333,522.9387 c 0.86399,-2.11652 23.56216,-18.07231 31.17774,-21.91655 l 1.63107,-0.82334 1.13538,0.80783 1.13538,0.80783 3.95355,-1.58573 c 2.17445,-0.87215 6.40155,-2.5942 9.39355,-3.82679 7.86977,-3.24203 17.1256,-5.92746 31.2,-9.05217 14.41324,-3.19993 21.17537,-4.38089 38.4,-6.70629 6.6,-0.89103 13.5493,-1.84969 15.44288,-2.13035 l 3.44288,-0.51029 -1.42825,-1.48142 c -0.78554,-0.81479 -2.16798,-2.41743 -3.07209,-3.56143 -0.90411,-1.144 -2.65767,-3.11049 -3.8968,-4.36998 l -2.25296,-2.28997 0.92217,-0.47614 c 2.63141,-1.35866 22.93393,-6.52265 33.72217,-8.57731 11.95549,-2.27696 20.85847,-4.0784 21.03666,-4.2566 0.11262,-0.11261 -0.48645,-0.9065 -1.33124,-1.7642 l -1.536,-1.55945 0.91529,-0.19188 c 10.21443,-2.14141 37.91779,-2.48179 52.59529,-0.64623 7.3064,0.91374 17.1056,2.70939 17.6261,3.22989 0.3883,0.38831 -0.457,5.71093 -1.44,9.06702 -2.5126,8.57839 -7.156,16.99238 -12.8424,23.27092 l -2.1606,2.38556 -1.6316,-0.1887 c -2.7787,-0.32139 -16.5402,-1.11122 -26.27071,-1.50779 -15.18097,-0.61871 -43.2083,-0.15431 -60.32079,0.99948 -16.66028,1.12331 -39.59326,3.80468 -52.16,6.09867 -15.53369,2.83558 -25.22507,5.56616 -48.8,13.74953 -18.18903,6.31381 -27.80767,9.99628 -38.94376,14.90952 -5.4774,2.41663 -5.8266,2.54635 -5.64291,2.09636 z m 284.90177,-1.03406 c -0.3912,-1.23266 0.9579,-2.07706 1.7649,-1.10464 0.225,0.27114 0.2583,0.48 0.076,0.48 -0.177,0 -0.3972,0.288 -0.4892,0.64 -0.2181,0.83394 -1.0857,0.82409 -1.3522,-0.0154 z M 759.75715,517.68 c -1.5466,-2.12173 -8.23666,-9.1922 -11.59715,-12.25659 -1.672,-1.52467 -4.588,-3.99538 -6.48,-5.49047 -1.892,-1.49508 -3.44,-2.9077 -3.44,-3.13916 0,-0.42782 5.64451,-1.898 10.54465,-2.74647 2.32813,-0.40313 2.45137,-0.47281 5.2,-2.94004 1.54844,-1.38992 2.81535,-2.32645 2.81535,-2.0812 0,0.24526 -0.15976,0.60569 -0.35502,0.80095 -0.20594,0.20594 -0.38349,1.78403 -0.42281,3.75809 l -0.0678,3.40306 2.44542,2.94592 c 1.34497,1.62025 2.68331,3.14028 2.97406,3.37784 0.46414,0.37922 1.04714,0.025 4.77739,-2.90268 22.10293,-17.34743 44.21742,-31.34271 69.60044,-44.04706 16.71617,-8.36653 39.62055,-17.80706 54.3283,-22.39256 23.25403,-7.25002 42.76048,-11.15941 72.21086,-14.47217 1.87597,-0.21102 3.58285,-0.48997 3.79307,-0.61989 0.28623,-0.1769 0.36683,-2.99838 0.32098,-11.23689 -0.0337,-6.05037 -0.0578,-11.28868 -0.0536,-11.64068 0.004,-0.352 0.026,-1.82997 0.0483,-3.28438 0.0224,-1.4544 -0.0462,-2.91828 -0.1525,-3.25307 -0.10626,-0.33478 -0.0322,-0.70817 0.1645,-0.82976 0.71258,-0.4404 4.13198,-1.0667 11.41105,-2.09007 4.08248,-0.57397 7.57706,-1.13897 7.76571,-1.25556 0.18866,-0.1166 0.40408,-1.33354 0.47871,-2.70432 0.0746,-1.37078 0.19364,-2.55028 0.26447,-2.6211 0.31708,-0.31709 7.28897,-0.78188 16.70837,-1.1139 11.6138,-0.40937 40.9133,-0.21258 50.08,0.33635 11.0787,0.66344 31.7232,2.63373 33.0442,3.15373 0.508,0.19998 0.2798,1.06612 -2.2935,8.70208 -5.4027,16.03187 -15.2301,41.11566 -16.2639,41.51237 -0.2398,0.092 -3.4894,-0.13773 -7.2214,-0.51056 -21.8298,-2.18084 -43.134,-2.92649 -66.14537,-2.31509 -14.6169,0.38836 -21.84351,0.72961 -31.68,1.49595 -46.17689,3.59756 -87.13012,15.84672 -130.24,38.95495 -24.41971,13.08972 -47.50946,28.77626 -67.78182,46.0491 -1.816,1.54731 -3.41159,2.81328 -3.54575,2.81328 -0.13417,0 -0.69004,-0.612 -1.23528,-1.36 z M 1075.2,517.75 c 0,-0.6198 0.8007,-1.21593 1.156,-0.86065 0.2083,0.20831 -0.5788,1.51069 -0.913,1.51069 -0.1336,0 -0.243,-0.29252 -0.243,-0.65004 z m 1.0453,-2.57111 c -0.4647,-0.17837 -0.6486,-0.44644 -0.5257,-0.76657 0.242,-0.63076 0.8876,-0.63018 1.4117,10e-4 0.5475,0.65981 0.022,1.11377 -0.886,0.76529 z m 1.5713,-2.11858 c -0.324,-0.1295 -0.2776,-0.33007 0.198,-0.85474 0.3418,-0.37704 0.72,-1.10121 0.8405,-1.60927 0.2247,-0.94754 1.6254,-3.03524 2.343,-3.49216 0.221,-0.14075 0.4019,-0.46981 0.4019,-0.73126 0,-0.60513 0.9409,-2.08857 1.6644,-2.62393 0.3055,-0.22611 0.8421,-1.05902 1.1924,-1.85093 0.5816,-1.3149 0.6924,-1.40514 1.2772,-1.03994 0.5662,0.35358 0.5863,0.45968 0.1732,0.91613 -0.257,0.28392 -0.4672,0.74708 -0.4672,1.02924 0,0.28215 -0.4269,0.81702 -0.9488,1.18859 -0.5402,0.38466 -1.0816,1.15683 -1.2573,1.79315 -0.3211,1.16301 -1.5334,2.67974 -2.1495,2.68932 -0.204,0.003 -0.2918,0.3393 -0.206,0.78833 0.1004,0.52524 -0.1952,1.31491 -0.8983,2.4 -1.0209,1.57554 -1.2873,1.74762 -2.1635,1.39747 z m 7.9434,-13.05042 c 0,-0.64643 1.2799,-3.04985 1.6241,-3.04985 0.1537,0 0.5066,-0.43933 0.7843,-0.97628 0.4067,-0.7865 0.6416,-0.93429 1.2082,-0.76025 0.3869,0.11882 0.7589,0.26565 0.8267,0.3263 0.1895,0.16937 -0.7658,1.52349 -1.8149,2.57258 -0.5183,0.51829 -1.0434,1.26079 -1.1669,1.65 -0.251,0.79086 -1.4615,0.98758 -1.4615,0.2375 z m 5.0133,-6.46318 c -0.4441,-0.44417 -0.1892,-1.45288 0.4066,-1.60869 0.5873,-0.15359 1.3001,-1.56778 1.3001,-2.57954 0,-0.50355 1.4057,-2.31924 2.1147,-2.73153 0.5456,-0.31724 0.3376,0.28151 -0.8659,2.49309 -0.4789,0.88 -1.1895,2.284 -1.5792,3.12 -0.6952,1.49165 -0.9497,1.73326 -1.3763,1.30667 z m 4.2667,-8.40803 c 0,-0.64848 1.0312,-1.44077 1.3979,-1.07405 0.3622,0.36221 0.2157,0.65291 -0.5979,1.18598 -0.7608,0.49852 -0.8,0.49304 -0.8,-0.11193 z m 2.1522,-2.4531 c -0.1153,-0.11533 -0.057,-0.49422 0.1287,-0.84197 0.2488,-0.46483 0.4328,-0.53783 0.695,-0.27564 0.2622,0.26219 0.2281,0.48518 -0.1287,0.84197 -0.2669,0.26694 -0.5797,0.39098 -0.695,0.27564 z m -653.22124,-0.56583 c -0.27111,-0.7065 0.0896,-1.06718 0.57837,-0.57838 0.28861,0.28861 0.28984,0.4675 0.005,0.75218 -0.28468,0.28468 -0.42346,0.24334 -0.58353,-0.1738 z M 1099.12,480.25778 c 0.3862,-0.38622 0.7987,-0.6057 0.9167,-0.48774 0.3114,0.31134 -0.506,1.18996 -1.107,1.18996 -0.4114,0 -0.3741,-0.13786 0.1903,-0.70222 z M 440.96,479.68 c 0,-0.176 0.27121,-0.32 0.60268,-0.32 0.33355,0 0.67741,-0.28579 0.77004,-0.64 0.0921,-0.352 0.34025,-0.64 0.55156,-0.64 0.21886,0 0.30061,0.21782 0.18996,0.50617 -0.10683,0.2784 -0.19424,0.7104 -0.19424,0.96 0,0.29092 -0.34461,0.45383 -0.96,0.45383 -0.528,0 -0.96,-0.144 -0.96,-0.32 z m 252.64127,-4.06706 c -4.31491,-6.79568 -10.90879,-16.35872 -15.57292,-22.58526 -19.85757,-26.50951 -37.9898,-45.81499 -60.58835,-64.50873 -7.46767,-6.17734 -8.50592,-7.09813 -8.32805,-7.38593 0.0882,-0.14273 0.0228,-0.67204 -0.14528,-1.17626 -0.16812,-0.50422 -0.37133,-1.70876 -0.45158,-2.67676 -0.0803,-0.968 -0.29778,-2.9752 -0.48339,-4.46045 -0.1856,-1.48525 -0.27952,-2.7584 -0.2087,-2.82922 0.48103,-0.48103 6.92048,3.70491 15.65028,10.17342 6.66953,4.94191 8.86259,6.48705 9.00505,6.34459 0.1181,-0.1181 0.23429,-17.07023 0.18902,-27.57817 l -0.0274,-6.34983 -5.96461,-5.89169 -5.96462,-5.89168 0.22454,-1.83848 c 0.12349,-1.01117 0.30589,-2.52249 0.40533,-3.35849 0.0994,-0.836 0.34247,-1.51883 0.54007,-1.5174 0.52683,0.004 5.18266,3.51832 10.12053,7.63956 18.53334,15.46831 32.92756,32.42093 43.91287,51.71784 14.26161,25.05211 22.15595,52.04385 23.18382,79.26844 l 0.20197,5.34942 -0.76995,0.2903 c -2.62258,0.98882 -2.53229,1.03893 -4.92868,-2.73522 z m 49.15637,2.66179 -0.76236,-0.42259 0.98588,-0.34368 c 0.89971,-0.31364 0.97037,-0.43919 0.80852,-1.43654 -0.1866,-1.14992 0.52774,-2.96353 1.42668,-3.62213 0.31885,-0.2336 0.41005,-0.62098 0.27392,-1.16339 -0.13444,-0.53565 -0.0413,-0.94825 0.27281,-1.20897 0.2623,-0.21769 0.47691,-0.61882 0.47691,-0.89142 0,-0.27259 0.22667,-0.74609 0.50372,-1.05222 0.27705,-0.30614 0.61263,-1.35916 0.74574,-2.34005 0.13861,-1.02141 0.50448,-2.07383 0.85628,-2.46308 0.33784,-0.37381 0.56741,-0.96277 0.51014,-1.30881 -0.0686,-0.41472 0.11605,-0.68673 0.54189,-0.79809 0.40432,-0.10573 0.68271,-0.48598 0.74412,-1.01635 0.0658,-0.56808 0.25633,-0.80662 0.57811,-0.72367 1.62428,0.41873 1.92,0.41116 1.92,-0.0491 0,-0.26399 -0.30091,-0.55868 -0.66869,-0.65485 -0.52838,-0.13818 -0.62195,-0.33066 -0.44592,-0.91732 0.12252,-0.40836 0.47301,-0.95846 0.77885,-1.22246 0.30585,-0.264 0.80792,-1.308 1.11571,-2.32 0.30779,-1.012 0.67491,-1.84 0.81582,-1.84 0.14091,0 0.12163,-0.59892 -0.0428,-1.33094 -0.36291,-1.61518 0.12816,-2.41113 0.86861,-1.4079 0.25215,0.34164 0.45846,0.89844 0.45846,1.23732 0,0.49332 0.14355,0.57063 0.72,0.38779 0.396,-0.1256 0.98168,-0.24525 1.3015,-0.26589 0.55917,-0.0361 0.55939,-0.0537 0.006,-0.45855 -0.53913,-0.39421 -0.50993,-0.48257 0.4585,-1.38765 0.56885,-0.53164 1.03428,-1.17532 1.03428,-1.4304 0,-0.52842 0.81978,-0.62955 1.12323,-0.13856 0.11054,0.17887 0.33504,0.24237 0.49888,0.14111 0.52146,-0.32228 0.32076,-1.0257 -0.34211,-1.19905 -0.90241,-0.23599 -0.79573,-1.05856 0.32,-2.46728 0.528,-0.66665 0.96,-1.37138 0.96,-1.56605 0,-0.19467 0.13371,-0.35395 0.29714,-0.35395 0.34243,0 0.651,-0.30647 2.46047,-2.44372 0.72468,-0.85595 1.68443,-1.98828 2.13278,-2.51628 0.88306,-1.03996 1.49199,-0.9555 0.8239,0.11429 -0.49988,0.80043 -0.31351,1.03973 0.61968,0.7957 0.42235,-0.11045 0.70603,-0.43438 0.70603,-0.8062 0,-0.34186 0.14635,-0.53111 0.32522,-0.42056 0.17887,0.11054 0.25246,0.31873 0.16352,0.46262 -0.0889,0.1439 0.0497,0.4371 0.30814,0.65156 0.25841,0.21447 0.69174,0.83473 0.96294,1.37837 0.43384,0.86965 0.43656,1.04498 0.0227,1.45884 -0.39142,0.39142 -0.55568,0.39963 -0.97828,0.0489 -0.27933,-0.23182 -0.46655,-0.72345 -0.41606,-1.09251 0.0721,-0.52689 -0.08,-0.67101 -0.70818,-0.67101 -0.72363,0 -0.79328,0.11455 -0.72957,1.2 0.088,1.49881 -0.57399,1.61363 -1.11037,0.1926 -0.33115,-0.87733 -0.44667,-0.95228 -0.89461,-0.58052 -0.37578,0.31187 -0.4595,0.71932 -0.31073,1.51234 0.17207,0.91721 0.10202,1.11204 -0.45194,1.2569 -0.36057,0.0943 -0.57755,0.2977 -0.48218,0.45201 0.31752,0.51376 0.37006,4.46411 0.0619,4.65456 -0.16684,0.10312 -0.71583,-0.11748 -1.21997,-0.4902 -0.50415,-0.37273 -1.06194,-0.67769 -1.23954,-0.67769 -0.50071,0 0.02,1.05437 0.84201,1.70482 1.48825,1.17769 1.51755,1.69144 0.19026,3.3355 -1.83588,2.27405 -2.63659,2.94611 -3.24065,2.71998 -0.46308,-0.17335 -0.47662,-0.1288 -0.10115,0.33291 0.36968,0.45458 0.34226,0.68711 -0.18628,1.57991 -0.39376,0.66513 -0.82461,1.01024 -1.18154,0.94641 -0.41996,-0.0751 -0.51392,0.0503 -0.37221,0.49678 0.10426,0.3285 0.005,0.84978 -0.22077,1.15842 -0.37771,0.51656 -0.48593,0.52174 -1.3615,0.0652 -1.24847,-0.651 -1.82409,-0.63049 -1.68663,0.0601 0.0787,0.39538 0.41484,0.55909 1.14346,0.55691 1.37007,-0.004 1.33334,0.55421 -0.16938,2.57471 -1.25034,1.68117 -2.87073,4.10181 -7.59662,11.34838 -3.52911,5.41145 -3.67719,5.54344 -5.24436,4.67473 z M 754.56,461.76 c 0,-0.176 -0.144,-0.32 -0.32,-0.32 -0.176,0 -0.32,0.144 -0.32,0.32 0,0.176 0.144,0.32 0.32,0.32 0.176,0 0.32,-0.144 0.32,-0.32 z m -0.8,-3.52 c 0.10877,-0.176 0.0453,-0.32 -0.14111,-0.32 -0.18639,0 -0.33889,0.144 -0.33889,0.32 0,0.176 0.0635,0.32 0.14111,0.32 0.0776,0 0.23012,-0.144 0.33889,-0.32 z m 3.04,-1.74874 c 0,-0.0818 -0.324,-0.32138 -0.72,-0.53239 -0.65287,-0.34788 -0.67905,-0.33401 -0.28082,0.14874 0.40891,0.49569 1.00082,0.72259 1.00082,0.38365 z m -0.384,-2.79526 c 0.61021,-0.61021 0.44716,-0.95854 -0.336,-0.71781 -0.92472,0.28424 -0.98736,0.34922 -0.73316,0.76052 0.27466,0.44441 0.59483,0.43162 1.06916,-0.0427 z m 2.55434,-0.52656 c 0.0917,-0.2754 -0.0622,-0.39072 -0.42697,-0.32 -0.31368,0.0608 -0.63485,0.30431 -0.71371,0.54112 -0.0917,0.2754 0.0622,0.39072 0.42697,0.32 0.31368,-0.0608 0.63485,-0.30431 0.71371,-0.54112 z m 1.42669,-1.27735 c -0.0456,-0.21444 0.13437,-0.4733 0.4,-0.57523 0.26563,-0.10193 0.48297,-0.45988 0.48297,-0.79544 0,-0.33556 0.17639,-0.89256 0.39199,-1.23778 0.29298,-0.46913 0.30002,-0.71963 0.0279,-0.99177 -0.55993,-0.55993 -1.13818,-0.007 -0.91652,0.8757 0.11479,0.45738 0.005,1.04904 -0.26609,1.43634 l -0.46129,0.65859 -0.35925,-0.67125 c -0.4823,-0.90119 -0.86358,-0.84561 -1.11666,0.16277 -0.15097,0.60149 -0.0491,0.95681 0.3653,1.27441 0.67025,0.51365 1.57196,0.42896 1.45167,-0.13634 z M 759.68,448.96 c 0,-0.176 -0.0635,-0.32 -0.14111,-0.32 -0.0776,0 -0.23012,0.144 -0.33889,0.32 -0.10877,0.176 -0.0453,0.32 0.14111,0.32 0.18639,0 0.33889,-0.144 0.33889,-0.32 z m 3.84,-3.04 c 0.31782,-0.38295 0.31782,-0.57705 0,-0.96 -0.50202,-0.6049 -0.99583,-0.6257 -0.76814,-0.0324 0.0945,0.2462 0.018,0.5427 -0.17004,0.65889 -0.188,0.11619 -0.34182,0.34675 -0.34182,0.51237 0,0.47046 0.83832,0.3533 1.28,-0.17889 z m -322.88,31.62073 c -1.60089,-0.26437 -1.73504,-0.38112 -1.16356,-1.0126 0.57826,-0.63897 0.69214,-1.32813 0.21946,-1.32813 -0.16725,0 -0.44132,0.2452 -0.60903,0.54488 -0.24721,0.44175 -0.39506,0.47009 -0.78109,0.14971 -0.44781,-0.37165 -0.56796,-0.74748 -1.06598,-3.33459 -0.11011,-0.572 -0.30936,-1.184 -0.44277,-1.36 -0.13341,-0.176 -0.42627,-1.4 -0.6508,-2.72 -0.22453,-1.32 -0.5291,-2.55853 -0.67682,-2.75228 -0.14771,-0.19376 -0.36087,-1.02569 -0.47368,-1.84874 -0.11282,-0.82305 -0.329,-1.57302 -0.48042,-1.6666 -0.54265,-0.33538 -0.28878,-2.03854 0.36469,-2.44664 0.352,-0.21983 0.64,-0.52854 0.64,-0.68602 0,-0.40824 1.52451,-1.76854 1.74025,-1.5528 0.32434,0.32433 0.18791,1.35308 -0.17943,1.35308 -0.24934,0 -0.23826,0.14571 0.0363,0.47648 0.21749,0.26206 0.50803,0.40689 0.64565,0.32183 0.13761,-0.0851 0.34217,0.085 0.45458,0.37794 0.1124,0.29292 0.0195,0.64989 -0.20647,0.79327 -0.30426,0.19306 -0.2689,0.26195 0.13631,0.26558 0.3715,0.003 0.66434,0.44152 0.91215,1.3649 0.20075,0.748 0.50214,1.70748 0.66976,2.13218 0.16762,0.42469 0.3927,1.72069 0.50017,2.88 0.10747,1.1593 0.36722,2.25182 0.57723,2.42782 0.21001,0.176 0.60414,0.89909 0.87583,1.60686 0.45912,1.196 0.45106,1.37514 -0.11415,2.53714 -0.744,1.52959 -0.76855,2.096 -0.0908,2.096 0.37924,0 0.47649,-0.21351 0.36438,-0.8 -0.22141,-1.15825 0.57918,-1.01953 0.99467,0.17234 0.28601,0.82045 0.24091,1.0704 -0.28869,1.6 -0.34521,0.34521 -0.73566,0.60805 -0.86766,0.58408 -0.132,-0.024 -0.6,-0.10303 -1.04,-0.17569 z m -0.10747,-4.12224 c 0.27004,-0.7037 -0.46283,-1.40903 -0.83625,-0.80483 -0.313,0.50645 -0.0999,1.30634 0.348,1.30634 0.16269,0 0.38241,-0.22568 0.48825,-0.50151 z m -0.631,-2.69987 c -0.37836,-1.00239 -0.68269,-1.18688 -1.03023,-0.62455 -0.25888,0.41888 0.73749,1.98771 1.11444,1.75474 0.15269,-0.0944 0.1148,-0.60295 -0.0842,-1.13019 z m -0.69287,-1.93264 c 0.11354,-0.18371 0.0302,-0.54641 -0.18528,-0.806 -0.31495,-0.3795 -0.27928,-0.59622 0.18205,-1.10598 0.51779,-0.57215 0.5221,-0.634 0.0442,-0.634 -0.29128,0 -0.5296,0.14126 -0.5296,0.3139 0,0.17265 -0.36,0.40426 -0.8,0.51469 -0.93215,0.23396 -1.00891,0.65017 -0.2704,1.46621 0.59023,0.65221 1.24593,0.75784 1.55906,0.25118 z m -1.1174,-2.71954 c 0.49648,-0.59823 0.0168,-1.21992 -0.72239,-0.93626 -0.30523,0.11713 -0.43542,0.43099 -0.33619,0.81049 0.19554,0.74774 0.51125,0.78525 1.05858,0.12577 z m 664.53074,8.28893 c -0.2962,-0.2962 0.06,-0.75537 0.5868,-0.75537 0.2695,0 0.377,0.19323 0.2669,0.48 -0.1953,0.50899 -0.5165,0.61258 -0.8537,0.27537 z m 0.9888,-1.43916 c -0.1952,-0.58066 0.072,-1.55621 0.4265,-1.55621 0.3604,0 0.3582,0.98542 0,1.55621 -0.2333,0.36828 -0.2992,0.36828 -0.423,0 z M 1105.28,468.8 c 0,-0.41244 0.1621,-0.63932 0.4,-0.56 0.22,0.0733 0.4,0.32533 0.4,0.56 0,0.23467 -0.18,0.48667 -0.4,0.56 -0.2379,0.0793 -0.4,-0.14756 -0.4,-0.56 z m 2.24,-3.94375 c 0,-0.25678 0.377,-0.56149 0.8378,-0.67713 1.5145,-0.38013 1.407,0.4658 -0.1178,0.92648 -0.5171,0.15622 -0.72,0.0859 -0.72,-0.24935 z m 1.68,-2.29492 c -0.5187,-0.5891 -0.5062,-1.17376 0.041,-1.92206 0.3893,-0.53245 0.4964,-0.5476 0.9146,-0.12942 0.3014,0.3014 0.4187,0.84753 0.3227,1.50189 -0.1605,1.09365 -0.6239,1.29287 -1.2783,0.54959 z m 1.7467,-3.92133 c 0.1136,-0.308 0.3611,-0.66354 0.55,-0.79009 0.1888,-0.12655 0.3433,-0.55855 0.3433,-0.96 0,-1.15795 0.9426,-0.90907 1.058,0.27935 0.073,0.75639 -0.085,1.13723 -0.6312,1.52 -0.9745,0.68259 -1.5818,0.65993 -1.3201,-0.0493 z m 2.4915,-4.56286 c -0.3618,-0.5855 0.1907,-1.59221 0.9831,-1.79109 0.7447,-0.18689 1.1244,-1.08605 0.4587,-1.08605 -0.176,0 -0.32,-0.12197 -0.32,-0.27104 0,-0.35809 1.2474,-1.78909 1.4124,-1.62026 0.1594,0.16314 0.3005,1.81166 0.2359,2.75481 -0.097,1.40805 -2.1996,2.93674 -2.7701,2.01363 z M 547.68,450.50328 c -32.359,-10.76373 -61.65001,-16.75917 -94.24,-19.28956 -11.42912,-0.88739 -17.95589,-1.1521 -33.28,-1.34974 -21.35502,-0.27542 -37.98034,0.49519 -57.37791,2.65955 -3.05957,0.34139 -4.84782,0.41874 -5.04818,0.21838 -0.72817,-0.72817 -8.87656,-20.79326 -12.51671,-30.82191 -2.88612,-7.9513 -6.3372,-18.26665 -6.3372,-18.94203 0,-0.32893 0.18,-0.66032 0.4,-0.73642 1.26203,-0.43656 19.30564,-2.12118 29.2,-2.72623 21.19984,-1.2964 60.58427,-0.90615 81.28,0.80537 8.94274,0.73956 24.99758,2.83751 25.52918,3.336 0.13705,0.12852 -0.0429,0.60505 -0.4,1.05896 -0.35705,0.45391 -0.64918,0.92387 -0.64918,1.04435 0,0.12048 -0.288,0.58519 -0.64,1.03268 -1.41597,1.80012 -0.93446,2.15034 4.48,3.25844 3.31919,0.67928 7.29758,1.69309 9.68,2.46673 2.06628,0.67098 2.0398,1.21599 -0.25466,5.24215 -0.25075,0.44 -0.45803,1.11371 -0.46062,1.49714 -0.003,0.38343 -0.24208,0.93451 -0.53219,1.22461 -0.29011,0.29011 -0.64039,1.0564 -0.77841,1.70286 -0.13803,0.64646 -0.68491,2.39939 -1.21531,3.89539 -0.53039,1.496 -1.30898,3.69767 -1.73019,4.89261 -0.42121,1.19493 -0.93296,2.33973 -1.13723,2.544 -0.20426,0.20426 -0.37139,0.6257 -0.37139,0.93653 0,0.53246 -0.63244,2.2068 -1.36723,3.61964 -0.181,0.34803 -0.50989,1.31812 -0.73085,2.15576 l -0.40176,1.52299 1.16992,0.30563 c 0.64346,0.16809 4.62592,0.97028 8.84992,1.78265 23.69851,4.55775 44.72927,10.31421 62.72,17.16749 7.44587,2.83639 9.31262,3.88034 8.18493,4.57729 -0.37692,0.23295 -1.4758,3.62788 -1.94709,6.01541 -0.27438,1.38996 -0.49463,1.83233 -0.90053,1.80862 -0.29552,-0.0172 -4.42531,-1.32466 -9.17731,-2.90534 z m 208.48,-1.50551 c 0,-0.176 0.144,-0.409 0.32,-0.51777 0.176,-0.10877 0.32,-0.0538 0.32,0.12223 0,0.176 -0.144,0.409 -0.32,0.51777 -0.176,0.10877 -0.32,0.0538 -0.32,-0.12223 z m 8,-0.0378 c 0,-0.176 0.144,-0.32 0.32,-0.32 0.176,0 0.32,0.144 0.32,0.32 0,0.176 -0.144,0.32 -0.32,0.32 -0.176,0 -0.32,-0.144 -0.32,-0.32 z m 353.28,0.0378 c 0,-0.176 0.144,-0.409 0.32,-0.51777 0.176,-0.10877 0.32,-0.0538 0.32,0.12223 0,0.176 -0.144,0.409 -0.32,0.51777 -0.176,0.10877 -0.32,0.0538 -0.32,-0.12223 z m -362.7664,-0.83226 c 0.11352,-0.29582 0.2064,-0.59808 0.2064,-0.67168 0,-0.0736 0.216,-0.13383 0.48,-0.13383 0.68628,0 0.59245,0.41582 -0.2064,0.91471 -0.60784,0.3796 -0.66277,0.36711 -0.48,-0.1092 z m 10.50294,-0.98241 c 0.14472,-0.69508 0.71264,-0.73761 0.84254,-0.0631 0.0675,0.35027 -0.0895,0.56 -0.41908,0.56 -0.30743,0 -0.48383,-0.20699 -0.42346,-0.4969 z m -9.28174,-1.13426 c -0.47766,-0.76486 -0.31133,-1.09575 0.4114,-0.81842 0.49271,0.18907 0.71165,1.48958 0.25077,1.48958 -0.13366,0 -0.43164,-0.30202 -0.66217,-0.67116 z m 361.7745,0.43116 c -0.071,-0.132 -0.036,-0.6 0.076,-1.04 0.1707,-0.6681 0.2395,-0.70856 0.4175,-0.24539 0.1366,0.35525 0.4034,0.48159 0.7425,0.35147 0.4538,-0.17414 0.4768,-0.10487 0.1609,0.4854 -0.3607,0.67398 -1.1417,0.92479 -1.3967,0.44852 z m -351.33926,-1.15625 c -0.11971,-0.62622 -0.0354,-0.72769 0.49055,-0.59016 0.39465,0.1032 0.79873,-0.0577 1.06726,-0.42492 0.31284,-0.42782 0.42921,-0.46367 0.4215,-0.12983 -0.0129,0.55809 -1.08904,1.90116 -1.52334,1.90116 -0.17127,0 -0.37646,-0.34031 -0.45597,-0.75625 z M 1119.0774,442.88 c 0.722,-1.38516 0.9663,-1.51845 1.5326,-0.83616 0.2912,0.35093 0.1603,0.61886 -0.6254,1.28 -1.4001,1.17814 -1.681,1.04074 -0.9072,-0.44384 z M 767.2,443.52 c -0.10877,-0.176 -0.0453,-0.32 0.14111,-0.32 0.18639,0 0.33889,0.144 0.33889,0.32 0,0.176 -0.0635,0.32 -0.14111,0.32 -0.0776,0 -0.23012,-0.144 -0.33889,-0.32 z m 353.3275,-2.71154 c -0.1,-0.25967 0.065,-0.61649 0.3658,-0.79414 0.4162,-0.24561 0.4512,-0.3858 0.1467,-0.58734 -0.3157,-0.20898 -0.3044,-0.39541 0.054,-0.88535 0.5072,-0.69363 0.7244,-0.60672 0.8457,0.33837 0.2106,1.64083 -0.9265,3.19381 -1.4121,1.92846 z M 757.18,439.34 c 0.077,-0.231 0.329,-0.483 0.56,-0.56 0.24,-0.08 0.36,0.04 0.28,0.28 -0.077,0.231 -0.329,0.483 -0.56,0.56 -0.24,0.08 -0.36,-0.04 -0.28,-0.28 z m 365.2068,-2.24129 c -0.116,-0.18771 -0.1307,-0.4215 -0.033,-0.51953 0.2632,-0.26325 1.1658,0.14768 1.1658,0.53078 0,0.43432 -0.8631,0.42575 -1.1332,-0.0113 z m -353.92578,-1.60942 c -0.28242,-0.45696 0.65204,-1.39023 1.10914,-1.10773 0.2473,0.15284 0.25307,0.40134 0.0195,0.83786 -0.37127,0.69373 -0.80285,0.79693 -1.12859,0.26987 z M 758.24,434.88 c 0.10877,-0.176 0.26127,-0.32 0.33889,-0.32 0.0776,0 0.14111,0.144 0.14111,0.32 0,0.176 -0.1525,0.32 -0.33889,0.32 -0.18638,0 -0.24988,-0.144 -0.14111,-0.32 z m 364.8576,-0.51478 c 0.1918,-0.4997 0.7913,-0.4585 0.9663,0.0664 0.057,0.17139 -0.1777,0.33282 -0.5218,0.35874 -0.4298,0.0324 -0.5689,-0.10077 -0.4445,-0.42513 z M 758.72,432.64 c 0,-0.176 0.144,-0.32 0.32,-0.32 0.176,0 0.32,0.144 0.32,0.32 0,0.176 -0.144,0.32 -0.32,0.32 -0.176,0 -0.32,-0.144 -0.32,-0.32 z m 12.85654,-1.1369 c 0.14472,-0.69508 0.71264,-0.73761 0.84254,-0.0631 0.0675,0.35027 -0.0895,0.56 -0.41908,0.56 -0.30743,0 -0.48383,-0.20699 -0.42346,-0.4969 z M 1130.72,419.84 c 0.1088,-0.176 0.2613,-0.32 0.3389,-0.32 0.078,0 0.1411,0.144 0.1411,0.32 0,0.176 -0.1525,0.32 -0.3389,0.32 -0.1864,0 -0.2499,-0.144 -0.1411,-0.32 z m -344.16,-4.77727 c 0,-0.53222 1.24033,-2.26273 1.62179,-2.26273 0.16402,0 0.29421,0.18 0.28932,0.4 -0.0118,0.53141 -1.91111,2.38263 -1.91111,1.86273 z m 2.56,-3.21098 c 0,-0.15849 0.45027,-0.60879 1.00059,-1.00066 l 1.0006,-0.71248 -0.53979,0.82382 c -0.55617,0.84882 -1.4614,1.39968 -1.4614,0.88932 z m 345.92,-1.71085 c 0,-0.25983 0.2265,-0.55933 0.5032,-0.66554 0.351,-0.13467 0.472,-0.032 0.4,0.33924 -0.1313,0.67734 -0.9032,0.95619 -0.9032,0.3263 z m 1.92,-3.9971 c 0,-0.46413 0.795,-1.97876 1.04,-1.9813 0.2887,-0.003 0.316,1.02722 0.046,1.73133 -0.1974,0.51423 -1.0858,0.71877 -1.0858,0.24997 z m 2.5952,-5.94134 c -0.2762,-0.33281 -0.2472,-0.53369 0.1209,-0.83919 0.2661,-0.2209 0.4839,-0.58344 0.4839,-0.80565 0,-0.22221 0.36,-0.63989 0.8,-0.92819 0.7407,-0.48533 0.8,-0.48535 0.8,-3.8e-4 0,0.60895 -1.2922,3.01095 -1.6197,3.01095 -0.1221,0 -0.3853,-0.19689 -0.5851,-0.43754 z m 1.408,-4.03724 c -0.236,-0.38188 0.064,-0.96522 0.4957,-0.96522 0.3894,0 0.3919,0.86612 0,1.10633 -0.1638,0.10126 -0.3883,0.0378 -0.4989,-0.14111 z M 390.90923,367.12 c -2.32352,-2.31036 -5.02935,-6.64198 -8.34558,-13.36 -8.26089,-16.73495 -13.62465,-35.44176 -15.73562,-54.88 -0.62323,-5.7388 -0.8256,-22.9207 -0.3246,-27.55868 l 0.26343,-2.43868 2.29657,-0.20325 c 1.26311,-0.11178 9.56857,-0.2947 18.45657,-0.40648 15.5981,-0.19618 23.63451,9.2e-4 35.04,0.85938 6.4166,0.48296 6.7861,0.55406 6.9931,1.34564 0.0991,0.37882 0.0132,0.88984 -0.19072,1.1356 -0.29287,0.35288 -0.20595,0.57141 0.41339,1.03937 0.62776,0.47432 0.70442,0.67261 0.38423,0.99382 -0.68141,0.68359 -0.44788,1.11779 0.8,1.48747 1.89001,0.5599 11.7994,1.8718 18.64,2.46774 3.6033,0.31391 9.57718,1.14199 14.13775,1.95973 7.66328,1.37408 9.63624,1.8317 10.37786,2.40711 0.25002,0.19399 0.36153,4.19461 0.37554,13.47357 0.011,7.25871 0.0309,13.6477 0.0444,14.19774 0.0243,0.99186 0.0554,1.00987 3.78446,2.18943 16.71483,5.28718 38.24012,13.03229 44.91757,16.16199 0.82771,0.38794 0.8362,0.42703 0.72079,3.32053 -0.0642,1.61038 -0.13752,3.75597 -0.16288,4.76797 -0.0254,1.012 -0.18001,1.84 -0.34368,1.84 -0.16366,0 -8.09927,-2.58195 -17.63469,-5.73767 -21.61739,-7.15421 -28.89374,-9.23817 -40.7886,-11.68192 -10.80004,-2.21882 -21.81778,-3.4614 -34.14851,-3.85127 -9.03523,-0.28567 -26.58629,0.68556 -27.62768,1.52885 -1.25761,1.01837 -4.12074,8.01616 -5.47266,13.37575 -1.17483,4.65754 -1.42826,6.90777 -2.57657,22.87735 -0.5201,7.2331 -1.03697,13.3891 -1.1486,13.68 -0.3675,0.95768 -1.56482,0.5804 -3.14526,-0.99109 z m 683.15357,-66.02788 c -0.2793,-0.45185 0.3375,-1.06861 0.7893,-0.78935 0.1914,0.11825 0.3479,0.4225 0.3479,0.67612 0,0.53875 -0.8236,0.62075 -1.1372,0.11323 z m -3.8254,-6.13212 c 0.085,-1.628 0.2554,-3.896 0.3781,-5.04 0.1228,-1.144 0.2325,-3.88 0.2439,-6.08 0.021,-4.05139 0.5036,-5.68522 0.8331,-2.81977 0.095,0.82513 0.4247,1.77883 0.7328,2.11934 0.5361,0.59237 0.532,0.6265 -0.096,0.79063 -0.5693,0.14889 -0.6123,0.28612 -0.3259,1.03959 0.2055,0.5405 0.2174,1.00431 0.031,1.22913 -0.1642,0.1986 -0.309,0.72108 -0.3218,1.16108 -0.099,3.41898 -0.4286,7.0203 -0.7061,7.72149 -0.1831,0.46282 -0.3056,1.03882 -0.2722,1.28 0.1222,0.88157 -0.023,1.55851 -0.3338,1.55851 -0.1999,0 -0.261,-1.10387 -0.1638,-2.96 z m 5.4563,-1.49789 c -0.1013,-0.16384 -0.038,-0.38834 0.1411,-0.49888 0.1789,-0.11055 0.3252,0.0235 0.3252,0.29788 0,0.56209 -0.192,0.64486 -0.4663,0.201 z m -1.2672,-0.61916 c -0.1378,-0.22304 -0.1642,-0.49195 -0.059,-0.59757 0.2863,-0.28639 0.5986,0.13481 0.4439,0.59886 -0.1084,0.32517 -0.1837,0.32492 -0.3854,-0.001 z m 0.9502,-3.32295 c -0.4828,-1.56704 -0.4468,-2.03718 0.1859,-2.43234 0.7869,-0.49143 1.0888,-0.29105 0.751,0.49854 -0.135,0.31559 -0.2139,0.9698 -0.1754,1.4538 0.069,0.87296 -0.525,1.24768 -0.7615,0.48 z m -0.3708,-4.53339 c -0.2936,-0.76526 0.094,-1.48494 0.6789,-1.26049 0.5842,0.22418 0.5215,1.43581 -0.085,1.63543 -0.2199,0.0724 -0.4873,-0.0963 -0.5943,-0.37494 z M 1074.88,281.76 c 0.2191,-0.264 0.5202,-0.48 0.6691,-0.48 0.149,0 0.1879,0.216 0.087,0.48 -0.1013,0.264 -0.4024,0.48 -0.6691,0.48 -0.3948,0 -0.4109,-0.0892 -0.087,-0.48 z m -1.92,-0.44223 c 0,-0.352 0.144,-0.729 0.32,-0.83777 0.176,-0.10877 0.32,0.0902 0.32,0.44223 0,0.352 -0.144,0.729 -0.32,0.83777 -0.176,0.10877 -0.32,-0.0902 -0.32,-0.44223 z m 2.2449,-4.91777 c 0,-0.22 0.1287,-0.59537 0.28,-0.83416 0.3516,-0.55485 0.8147,0.0889 0.5535,0.76948 -0.2182,0.56871 -0.8403,0.61698 -0.8335,0.0647 z" transform="translate(-217.603436,-266.334707)"/>
</svg>