<svg xmlns="http://www.w3.org/2000/svg" width="997.051" height="892.098" viewBox="0 0 997.051 892.098"><path d="M718.212 1146.48c.101-4.972.262-18.4.357-29.84.096-11.44.26-21.64.367-22.667.229-2.217.437-2.36 3.944-2.7l2.4-.233.211-2.24c.117-1.232.239-3.928.272-5.99l.06-3.751 2.392-2.945c6.726-8.284 12.399-16.946 22.185-33.874 1.985-3.432 4.024-6.847 4.532-7.59l.924-1.348 1.352.75c.744.412 1.91 1.047 2.593 1.41.683.364 1.69 1.032 2.24 1.486s1.791 1.39 2.759 2.083c.968.692 1.972 1.446 2.23 1.674.7.617 4.425 2.618 6.09 3.271.264.104 1.056.541 1.76.972.704.432 1.451.79 1.66.798 1.392.051 15.962-27.62 24.51-46.546 10.118-22.407 15.904-37.845 23.867-63.68 9.76-31.67 14.764-56.816 16.362-82.235.502-7.998.556-7.57-1.039-8.357-4.206-2.075-7.498-3.788-7.92-4.12-.264-.21-1.2-.644-2.08-.967-1.527-.561-5.592-2.686-10.08-5.268-1.144-.658-2.53-1.389-3.078-1.624-.959-.411-1.006-.523-1.2-2.817-.111-1.314-.202-4.517-.202-7.12 0-2.601-.133-5.08-.295-5.507-.216-.566-.714-.892-1.84-1.202-.85-.233-1.761-.442-2.025-.462s-.876-.153-1.36-.294l-.88-.256-.003-4.526c-.008-10.86-.884-25.577-2.099-35.245-1.194-9.504-3.404-22.26-5.12-29.548-.427-1.82-.778-3.572-.778-3.894 0-.592 2.163-1.432 8.16-3.169 8.873-2.569 26.893-5.415 27.89-4.404 1.042 1.054 5.662 20.977 7.917 34.135 3.486 20.348 4.667 33.333 4.901 53.92.224 19.641-.482 32.637-2.65 48.8-3.357 25.036-9.063 47.993-20.68 83.2-13.529 41.003-32.594 81.699-58.243 124.32-4.72 7.843-33.803 53.852-38.432 60.8-4.912 7.37-11.23 15.84-11.816 15.84-.184 0-.228-3.496-.115-9.04m-15.652-12.08c-.109-.176-.045-.32.141-.32s.339.144.339.32-.063.32-.141.32-.23-.144-.339-.32m.027-1.557c-.138-.223-.165-.492-.06-.598.287-.286.6.135.445.6-.109.324-.184.324-.386 0zM553.357 1110c-12.649-19.396-23.518-39.385-32.32-59.44-2.339-5.326-5.517-13.322-5.517-13.878 0-.067 1.044-.44 2.32-.83s2.872-.94 3.547-1.221c.882-.368 2.368-.525 5.28-.555 2.23-.024 5.709-.21 7.733-.414 2.024-.205 4.544-.436 5.6-.514s3.504-.292 5.44-.474 4.456-.41 5.6-.506c2.95-.247 3.84-.475 3.84-.984 0-.244-1.235-3.505-2.745-7.245-4.929-12.213-8.865-24.896-11.49-37.024-1.287-5.94-2.725-14.04-2.725-15.346v-.87l3.051.245c1.678.135 3.322.39 3.653.568.435.232.796 1.19 1.3 3.445 6.43 28.799 12.912 46.305 24.33 65.718 4.757 8.085 11.543 17.802 12.624 18.073.915.23 7.02-.366 10.477-1.021 1.422-.27 4.327-1 6.456-1.622 2.128-.621 4.805-1.191 5.949-1.266s3.52-.293 5.28-.486c1.76-.192 3.632-.378 4.16-.414 1.653-.112 9.026-5.368 13.92-9.924 2.006-1.868 3.086-2.538 3.363-2.09.805 1.303-2.006 7.643-6.098 13.755-5.3 7.916-11.176 14.908-19.646 23.379-10.857 10.856-20.804 18.643-33.299 26.066-3.869 2.298-16.54 8.79-17.164 8.793-.2.001-1.514-1.762-2.92-3.918m310.517 1.493c-.12-.311-.048-.458.186-.38.478.16.742.887.32.887-.17 0-.399-.228-.506-.507m-4.644-2.817c-.262-.315-.275-.524-.043-.668.186-.115.426.023.535.306.27.704-.027.923-.492.362m-2.8-1.01c-.104-.271-.1-.583.01-.692.31-.31 1.86.51 1.64.867-.307.496-1.438.375-1.65-.175m4.393-.279c-.239-.287-.34-.617-.223-.733.299-.3.938.413.784.873-.088.265-.261.222-.561-.14m-6.743-.636c0-.246-.432-.599-.96-.783-1.124-.392-1.338-1.184-.24-.89.396.106.972.195 1.28.198.408 0 .56.265.56.964 0 .528-.144.96-.32.96s-.32-.202-.32-.449m8.16-.831c-.109-.176.027-.32.301-.32s.499.144.499.32-.135.32-.301.32-.39-.144-.499-.32m-2.604-1.12c-.102-.264-.445-.48-.764-.48-.922 0-1.592-.351-1.592-.834 0-.643.482-.554 1.92.354.697.44 1.406.8 1.575.8s.396.144.505.32c.112.182-.16.32-.631.32-.456 0-.912-.216-1.013-.48m-9.876-1.76c-.61-.262-.607-.276.08-.297.396-.012.72.121.72.297s-.036.31-.08.298a16 16 0 0 1-.72-.298m5.76-.64c-.319-.352-.475-.64-.349-.64.457 0 1.469.67 1.469.971 0 .502-.5.355-1.12-.331m-2.973-2.092c-.534-.605-.05-.604.752 0 .468.354.503.47.141.468-.264 0-.666-.213-.893-.47zm-9.85-1.144c-.204-.332.361-.908.903-.92.29-.01.298.113.046.77-.227.59-.636.656-.948.15m7.543-.434c0-.286.188-.398.48-.286.264.102.48.313.48.47s-.216.286-.48.286a.476.476 0 0 1-.48-.47m-137.823-60.148c-5.241-3.94-14.222-15.118-21.24-26.437-2.596-4.187-5.093-8.25-5.55-9.03l-.83-1.416 1.557-2.05c.856-1.127 3.18-3.849 5.165-6.049 6.814-7.551 12.36-14.834 19.128-25.12 6.953-10.566 7.484-11.354 7.769-11.53.153-.094 1.286.327 2.518.936l2.241 1.107 1.03-1.173c1.381-1.573 5.203-7.442 7.54-11.58l3.926-6.952c1.116-1.975 2.423-4.063 2.905-4.64.835-1 .903-1.023 1.481-.5.334.301 1.321.863 2.195 1.248s2.02 1.024 2.548 1.42c1.084.814 3.18 2.065 7.312 4.363 3.3 1.836 3.164 1.89 4.493-1.819 1.696-4.737 11.531-38.896 13.141-45.644 1.709-7.16 6.21-32.509 8.345-46.996a368 368 0 0 1 1.59-9.76c1.747-9.657 3.056-21.339 4.159-37.12.718-10.272 1.493-17.6 1.905-18.011.31-.312.472 1.885 1.157 15.771.903 18.316.711 31.452-.674 46.08-.508 5.37-.795 7.206-3.551 22.72-3.119 17.552-5.273 28.181-7.297 36-3.13 12.086-10.644 40.25-11.435 42.856-.45 1.483-3.334 8.827-6.408 16.32-12.68 30.904-17.535 41.234-23.908 50.882-1.461 2.212-5.11 7.792-8.107 12.4-5.57 8.561-7.272 10.952-9.73 13.668l-1.397 1.542zM536 934.662c-3.182-.256-4.074-.39-4.332-.647-.52-.52-2.655-15.481-3.485-24.415-1.067-11.489-1.225-14.7-1.42-28.8l-.203-14.72-3.004.077c-1.652.042-3.19.233-3.42.423-.252.21-.972.262-1.83.133-1.19-.178-1.45-.12-1.638.368-.186.485-.27.505-.508.12-.23-.374-.527-.398-1.555-.124-.814.218-1.464.23-1.812.036-.353-.198-.815-.18-1.323.051-.43.196-1.143.356-1.586.356s-1.12.173-1.505.384c-.384.21-1.347.422-2.139.468-3.136.183-4.029.315-4.727.698-.4.22-.878.306-1.064.19-.186-.114-.984.038-1.773.34-.79.301-1.476.496-1.527.434-.23-.285.524-6.745 1.433-12.274 1.593-9.696 5.928-25.39 10.39-37.616 3.243-8.886 3.966-10.993 3.824-11.135-.077-.077-.35.033-.606.246-.256.212-.927.444-1.492.516-.564.071-1.27.35-1.567.62-.298.269-.918.489-1.378.489s-1.344.3-1.964.665l-1.128.666.779-2.291c1.155-3.397 6.607-13.82 10.376-19.84 8.037-12.834 15.938-22.634 27-33.492 7.084-6.954 14.037-12.853 21.057-17.867 6.14-4.385 14.702-9.761 15.545-9.761.524 0 2.662 2.147 2.662 2.673 0 .083-1.674 3.151-3.721 6.819-19.74 35.375-33.892 74.787-39.325 109.523-2.274 14.541-2.877 23.1-2.861 40.665.013 15.309.198 18.754 1.935 36.086.445 4.447.765 8.55.711 9.12l-.099 1.034Zm78.725-105.763c.003-.143.144-.475.315-.739.267-.414.31-.405.315.061.003.298-.139.63-.315.739s-.318.081-.315-.061m.235-4.427c-.085-.444-.046-.874.087-.956s.304.281.382.807c.17 1.158-.25 1.291-.469.15m-.98-2.938c-.468-.12-.537-.343-.362-1.161.264-1.235.18-1.141 1.122-1.246.561-.063.744.048.653.393-.07.264-.143.828-.16 1.253-.035.824-.322.998-1.252.76m-1.989-4.173c.26-1.035.118-.9 1.232-1.168l.903-.217-.903 1.132c-1.083 1.357-1.532 1.45-1.232.253m2.409-2.447a.7.7 0 0 0-.418-.606c-.23-.088-.604-.787-.832-1.554-.229-.767-.63-1.8-.894-2.296-.62-1.168-.311-1.484.395-.406.299.456.814.828 1.146.828.422 0 .603.229.603.763 0 .866.727 2.415 1.3 2.77.21.13.283.396.162.591-.315.51-1.462.44-1.462-.09m-.77-10.011c-.431-2.029-.475-12.495-.06-14.07.227-.86.43-2.51.449-3.665s.165-2.448.323-2.874c.159-.426.316-1.818.35-3.094.058-2.179.02-2.32-.625-2.32-.418 0-.752.25-.854.64-.092.352-.355.64-.585.64-.605 0-.836-1.47-.604-3.846.111-1.14.25-3.01.307-4.154.238-4.734.993-9.683 1.536-10.08.727-.533.671-1.12-.107-1.12-.367 0-.64-.213-.64-.5q-.001-.501.72-.4c.709.098.721.041.79-3.74.094-5.174.084-5.046.386-5.425.146-.184.366-1.167.489-2.185.157-1.3.454-2.098 1-2.686 1.096-1.184 1.23-4.474.204-5.027-.747-.403-2.949-2.71-2.949-3.09 0-.51.824-.346 1.687.333.885.696 2.457.848 3.015.29.253-.253.554-.24 1.09.047 1.126.603 2.398.434 3.591-.475.593-.452 1.226-.822 1.408-.822s.515-.222.74-.494c.244-.293.527-.376.699-.204.337.337-.699 4.538-1.118 4.538-.151 0-.188.275-.08.612.106.337-.172 2.055-.62 3.818-.446 1.763-.812 3.564-.812 4.002 0 1.744-.604 2.23-1.623 1.307-.356-.322-.627-.382-.759-.168-.113.182.089.584.448.892.839.717.83 1.057-.029 1.057-1.076 0-3.154.706-2.967 1.008.093.15.43.134.747-.036.747-.4 1.02-.108.782.835-.12.478-.048.753.196.753.212 0 .46-.288.552-.64.111-.425.437-.64.968-.64.71 0 .776.098.586.88-.117.484-.202 1.348-.187 1.92.019.75-.116 1.04-.486 1.04-.377 0-.458.19-.309.72.143.508.113.59-.101.281-.167-.241-.5-.37-.741-.286-.24.085-.823-.116-1.295-.446-.826-.579-1.506-.348-1.068.362.106.17-.013.71-.264 1.2-.25.489-.558 2.056-.682 3.483-.193 2.214-.152 2.624.283 2.79.762.293.615 1.092-.313 1.7-.617.404-.776.72-.639 1.267.101.402.026.827-.166.945-.192.12-.272.511-.177.872.231.885-.262 1.719-1.148 1.942-.668.168-.728.36-.725 2.356.002 1.196-.129 2.36-.29 2.588-.185.26-.16.546.065.772.264.264.443.135.682-.494.437-1.15.805-1.072 1.213.256.262.856.232 1.422-.136 2.48-.261.755-.515 2.686-.563 4.293-.048 1.606-.189 3.084-.312 3.283s-.14.624-.039.944.03 3.307-.16 6.637-.387 6.885-.437 7.9c-.102 2.102-.356 2.62-.637 1.298m1.876-35.278c.015-2.485-.416-3.235-1.111-1.935-.28.522-.276.91.012 1.608.32.77.296 1.005-.144 1.445-.414.414-.444.622-.143.985.21.253.604.417.877.364.392-.076.498-.588.509-2.467m-.375-6.11c-.257-.984-.731-1.096-.731-.174 0 .49.18.819.45.819.294 0 .391-.224.281-.645m4.98-7.52c.248-.247-.341-.795-.85-.79-.816.007-1.453.515-1.187.945.204.331 1.662.22 2.037-.155m1.618-6.678c.283-.341.256-.485-.12-.63-.27-.103-.489-.131-.489-.063s-.087.351-.194.63c-.24.624.303.666.803.063M877.12 781.12a.32.32 0 0 1 .32-.32.32.32 0 0 1 .32.32.32.32 0 0 1-.32.32.32.32 0 0 1-.32-.32m-4.8-3.539c0-.186.144-.25.32-.141s.32.261.32.339c0 .077-.144.141-.32.141s-.32-.152-.32-.339m3.239-.414c-.34-.41-.185-.847.3-.847.359 0 .627.918.323 1.106-.148.092-.429-.025-.623-.259M615.04 775.84c0-.264.211-.48.47-.48.286 0 .398.188.286.48-.102.264-.313.48-.47.48s-.286-.216-.286-.48m256.24-.07c-.93-.14-1.133-.67-.5-1.302.292-.292.516-.255.98.164.517.468.64.479.895.075.495-.782.348-1.177-.678-1.826l-.982-.622.978-.028c1.443-.041 1.766-.347 1.118-1.063-.302-.334-.748-.608-.99-.608-.243 0-.53-.252-.639-.56s-.485-.88-.837-1.27c-.528-.588-.568-.796-.231-1.203.341-.411.271-.598-.433-1.152-.463-.364-.841-.867-.841-1.118 0-.501-.973-.62-1.456-.18-.167.153-.77.365-1.339.472-.994.185-1.066.126-1.84-1.509-.443-.936-.805-1.911-.805-2.167s-.173-.638-.384-.849c-.299-.299-.299-.47 0-.768.552-.552.473-.86-.177-.69-.723.19-1.803-1.553-1.518-2.45.139-.437.056-.636-.265-.636-.908 0-.818-.921.184-1.901.759-.742.914-1.073.636-1.351-.487-.487-1.356.203-1.356 1.078 0 1.17-.792.384-2.022-2.01-2.355-4.578-3.723-7.183-4.19-7.976-.259-.44-1.42-2.581-2.581-4.758-2.039-3.822-2.093-3.985-1.599-4.74.6-.916 1.315-.821 1.174.156-.074.512.169.79.992 1.134 1.14.476 2.306 1.835 2.512 2.928.066.352.411.682.767.733s.786.355.957.675c.932 1.751 2.152 3.217 3.18 3.824.657.387 1.304 1.092 1.489 1.621.179.515.532 1.015.783 1.111.252.097.458.525.458.952s.216.858.48.96c.683.262.594.809-.24 1.485-.862.699-.49 1.27.445.685.553-.345.752-.323 1.266.142.335.303.609.83.609 1.17 0 .341.489 1.191 1.086 1.89 1.739 2.03 2.107 5.78.578 5.888-.777.054-1.664.58-1.664.985 0 .356.304.452 1.196.378 1.031-.085 1.196-.208 1.2-.893.007-1.261 1.016-1.225 1.295.046.127.576.388 1.3.582 1.61.279.447.221.661-.281 1.044-.537.41-.562.528-.163.79.307.2.612.19.88-.033.55-.457 1.562.314 1.065.811-.392.392-.45 1.486-.078 1.486.14 0 .447-.18.681-.4.35-.329.39-.246.222.463-.13.555-.054.955.215 1.12.474.292 2.14 3.607 2.156 4.289.006.246.222.728.48 1.07.259.34.45.989.426 1.44-.04.752-.054.76-.182.098-.076-.396-.34-.72-.585-.72-.46 0-1.329 1.272-.88 1.29.138.006-.029.222-.37.48-.342.259-.702.448-.8.422a19 19 0 0 0-1.059-.181m-2.96-11.957c0-.249-.317-.498-.705-.553s-.793-.38-.901-.72c-.208-.654-.794-.86-.794-.28 0 .49 1.7 2.204 2.08 2.097.176-.05.32-.294.32-.544m-2.72-4.613c0-.264-.135-.48-.301-.48-.404 0-.693.5-.437.755.36.36.738.22.738-.275m.96-2.08c0-.352-.144-.64-.32-.64s-.32.288-.32.64.144.64.32.64.32-.288.32-.64m-2.88-4.48a.32.32 0 0 0-.32-.32.32.32 0 0 0-.32.32c0 .176.144.32.32.32a.32.32 0 0 0 .32-.32m4.06 18.49c-.297-.654-.54-1.256-.54-1.337s.503-.122 1.119-.09c1.162.06 1.453.341.664.644-.251.096-.512.58-.58 1.074l-.124.899zm1.54.39c.109-.176.261-.32.339-.32.077 0 .141.144.141.32s-.152.32-.339.32c-.186 0-.25-.144-.141-.32m-249.92-1.28c.109-.176.342-.32.518-.32s.23.144.122.32-.342.32-.518.32-.23-.144-.122-.32m247.343-1.628c-.33-.533.412-1.145.853-.704.37.37.138 1.052-.356 1.052-.155 0-.379-.157-.497-.348m1.51-.766c-1.393-.768-1.467-1.04-.426-1.579 1.277-.66 1.333-.648 1.333.274 0 .43.144.87.32.979.453.28.398.806-.08.769-.22-.018-.736-.217-1.147-.443m-249.36-1.996c-.27-.711-.228-.946.23-1.28.833-.61.925-.528.961.87.04 1.52-.675 1.767-1.19.41m246.907.55c-.109-.176-.045-.32.141-.32.187 0 .339.144.339.32s-.063.32-.141.32-.23-.144-.339-.32m-244.91-3.84c0-.44.073-.62.162-.4s.089.58 0 .8-.161.04-.161-.4m-1.65-.773c0-.25-.18-.518-.4-.597s-.29-.26-.157-.403c.134-.143.454.017.71.356q.828 1.096.167 1.097c-.176 0-.32-.204-.32-.453m-28.48-1.166c0-.186.144-.25.32-.141s.32.261.32.339c0 .077-.144.141-.32.141s-.32-.153-.32-.339m28.48-.64c0-.186.144-.25.32-.141s.32.261.32.339c0 .077-.144.141-.32.141s-.32-.153-.32-.339m-22.88-.941c-.109-.176.027-.32.301-.32.275 0 .499.144.499.32s-.135.32-.301.32-.39-.144-.499-.32m10.72-5.901c0-.275.144-.499.32-.499s.32.136.32.301c0 .166-.144.39-.32.499s-.32-.027-.32-.301m-3.936-.381c-.378-.378-.25-.758.256-.758.264 0 .48-.216.48-.48s.154-.48.341-.48c.535 0 .198 1.743-.357 1.848-.272.052-.596-.007-.72-.13m-14.123-.404c-.234-.378.117-1.314.493-1.314.379 0 .369 1.191-.012 1.426a.35.35 0 0 1-.48-.112m5.72-1.49c.342-.255.897-.464 1.234-.464.442 0 .556-.15.408-.534-.224-.584.297-1.053 1.177-1.061.62-.005.786 1.098.218 1.448a.52.52 0 0 0-.191.604c.106.278-.375.403-1.658.432-1.65.037-1.754 0-1.188-.424m7.699-.464c-.109-.176.035-.32.32-.32s.429.144.32.32-.253.32-.32.32-.211-.144-.32-.32m-1.757-.733c-.888-.45-1.12-1.104-.649-1.827.276-.423.43-.414 1.293.072.845.477 1.004.488 1.16.08.237-.617 1.073-.611 1.073.007 0 .264-.22.48-.488.48s-.625.36-.792.8c-.346.911-.492.947-1.597.388m6.307-.766c-.246-.417.133-2.341.46-2.341.17 0 .206.517.082 1.2-.244 1.35-.322 1.515-.542 1.141m3.823.005c-.368-.368-.233-.746.267-.746.725 0 .577-.503-.32-1.09-.932-.612-1.01-1.086-.27-1.628.491-.358.485-.45-.08-1.213-.335-.453-.84-.887-1.119-.964-.281-.077-.758-.91-1.065-1.862-.306-.948-.833-2.2-1.171-2.782s-.615-1.345-.615-1.696c0-.591.145-.622 2-.425 1.16.123 2.232.433 2.552.737.646.614 2.209 4.858 2.342 6.363.082.915-.002 1.04-.69 1.04-.972 0-1.324.8-.674 1.532.438.491.435.67-.036 1.748-.527 1.205-.726 1.38-1.12.986m.926-6.366c-.942-.698-1.14-.56-.761.527.319.915.382.95.863.46.479-.486.471-.562-.102-.987m-1.459-1.676c0-.332-.693-1.024-1.027-1.024-.142 0-.079.288.141.64.404.647.886.855.886.384m-16.16 6.976c.109-.176.261-.32.339-.32.077 0 .141.144.141.32s-.152.32-.339.32c-.186 0-.25-.144-.141-.32m19.76-.08c.073-.22.405-.453.736-.517.522-.101.546-.047.175.4-.508.612-1.101.688-.911.117m-24.03-.737c.06-.313.304-.634.54-.713.276-.092.391.062.32.427-.06.313-.304.634-.54.713-.276.092-.391-.062-.32-.427m11.79.013c0-.09.174-.443.386-.782.318-.51.279-.736-.227-1.296-.524-.578-.545-.72-.146-.973.718-.454.862-.382 1.404.704.619 1.241.624 1.476.046 2.054-.435.435-1.463.64-1.463.293m-3.977-.759c-.391-.633-3.082-1.604-4.793-1.73-2.03-.149-2.644-.53-2.261-1.405.14-.32.286-.972.324-1.448.12-1.463.462-2.494.83-2.494.212 0 .29.407.197 1.037-.104.71.006 1.153.352 1.405.43.315.44.446.065.897-.325.392-.345.621-.077.889.267.267.432.168.637-.387.272-.737.285-.739.89-.134.412.412.954.58 1.653.513.885-.086 1.09.032 1.377.786l.338.887.415-.787c.347-.657.34-.848-.046-1.162-.38-.31-.302-.394.448-.48.727-.083.929-.284 1.011-1.004.057-.495.473-1.43.924-2.08.592-.851.772-.98.647-.46-.096.396-.054.72.093.72.538 0 1.593-1.712 1.593-2.584 0-1.028.577-1.551.99-.897.152.243.272 1.017.266 1.721s.078 2.124.186 3.156c.29 2.749.05 3.077-1.229 1.68-1.176-1.284-1.976-1.534-1.653-.516.154.485.012.712-.587.94-.983.374-1.382.973-.861 1.295.312.193.312.397-.001.982-.361.675-.43.692-.788.2-.548-.748-.899-.674-.483.103.336.628-.086.958-.457.357m15.177.131c0-.083.424-.37.942-.639.987-.51 1.828-.06.939.502-.464.294-1.881.397-1.881.137m-22.4-.968c-.338-.407-.264-.48.48-.48s.818.073.48.48c-.22.264-.435.48-.48.48s-.26-.216-.48-.48m16.174-.88c-.07-.22-.223-1.12-.342-2-.118-.88-.325-1.816-.46-2.08-.134-.264-.337-1.088-.45-1.83-.172-1.125-.126-1.32.276-1.167.317.122.482.618.482 1.447 0 .694.209 1.665.464 2.158.255.494.463 1.17.462 1.505 0 .334.096 1.003.214 1.487.215.88-.38 1.323-.646.48m-12.654-5.19c0-.286-.431-.765-.958-1.065-1.07-.609-1.123-.84-.586-2.56l.376-1.206 1.864.01 1.863.011v.992c.001 1.49-.573 2.762-1.62 3.592-.774.614-.939.653-.939.226m349.5-5.287c-20.12-1.08-38.798-4.869-57.383-11.64-7.013-2.554-17.877-7.308-17.877-7.822 0-.146.218-1 .485-1.898l.485-1.633 1.995-.178c1.097-.098 4.227-.332 6.955-.52 23.24-1.609 47.631-5.675 74.875-12.485l8.795-2.198.731.687c.402.378 1.176 1.38 1.718 2.226.802 1.248 1.16 1.538 1.902 1.538 1.393 0 5.548-1.041 12.697-3.18 3.563-1.067 6.596-1.94 6.74-1.94.143 0 .442.684.662 1.52s.67 2.024.997 2.64.897 1.73 1.265 2.476c.37.747 1.403 2.619 2.298 4.16.895 1.542 2.135 3.74 2.754 4.884s1.235 2.224 1.367 2.4c.133.176.35.68.482 1.12.47 1.557 1.423 2.56 2.433 2.56 1.594 0 10.653-2.41 17.251-4.59 21.578-7.126 38.98-15.551 56.602-27.4 16.775-11.281 37.628-28.773 52.511-44.048 7.582-7.78 16.766-18.433 18.122-21.017.457-.87.429-.941-.986-2.515-.8-.89-1.456-1.768-1.456-1.95 0-.47-3.808-7.972-4.364-8.599-.503-.566-2.172-4.401-3.287-7.553-.61-1.723-1.128-2.755-2.75-5.471-.788-1.323-.823-1.347-1.458-1.007-.938.502-.755.01.72-1.93 17.548-23.091 23.86-33.57 31.006-51.481 2.216-5.552 2.438-6.29 1.917-6.376-.324-.054-2.405.414-4.625 1.04-2.22.625-4.1 1.137-4.18 1.137-.078 0-.98-1.113-2.001-2.473-2.489-3.312-7.363-8.185-10.559-10.554-3.326-2.467-9.384-6.309-19.459-12.342-11.238-6.73-11.574-7.164-5.313-6.861 3.867.187 13.019 1.858 20.437 3.73 3.696.934 5.836 1.219 5.836.777 0-.111-.585-1.35-1.3-2.754-.715-1.402-1.214-2.635-1.11-2.74.306-.306 7.754.532 13.862 1.56 14.079 2.37 29.04 6.96 41.735 12.807 8.496 3.913 19.135 9.932 19.13 10.825 0 .707-6.905 14.642-10.87 21.945-10.752 19.804-20.153 34.633-34.084 53.762-16.403 22.524-24.417 32.127-38.867 46.572-10.692 10.69-17.196 16.454-31.168 27.62-17.11 13.672-27.89 21.117-41.328 28.54-18.366 10.142-43.068 19.57-62.778 23.96-17.02 3.79-35.966 5.506-51.562 4.669m-469.02-.227c-15.716-.499-32.32-3.094-47.941-7.492-17.209-4.845-38.594-13.578-50.624-20.673-5.486-3.235-5.363-3.109-4.96-5.051.183-.88.41-2.104.504-2.72.296-1.93 1.19-4.8 1.494-4.8.16 0 2.837 1.242 5.949 2.76 13.149 6.413 24.981 11.228 25.67 10.447.12-.136.39-1.183.602-2.327s.51-2.584.663-3.2.513-2.56.799-4.32c.285-1.76.661-3.704.835-4.32s.444-2.056.602-3.2.653-4.168 1.103-6.72l.817-4.64-2.22-2.016-2.219-2.017.158-1.663c.413-4.35.436-4.43 1.19-4.209.384.113 3.917 1.936 7.852 4.052 20.74 11.154 37.263 17.862 60.52 24.573 23.065 6.655 57.663 12.576 81.286 13.91 7.217.408 6.78.23 7.196 2.917l.202 1.306-5.542 2.595c-17.556 8.218-37.932 13.708-59.046 15.908-4.686.489-17.77 1.134-20.89 1.03zm133.22-2.235c.231-.092.507-.08.613.026.107.106-.082.182-.42.168-.372-.016-.448-.091-.193-.194m202.14-19.301c.109-.176.333-.32.499-.32s.301.144.301.32-.224.32-.499.32c-.274 0-.41-.144-.301-.32m66.141-21.464c.063-.19.252-.344.419-.344s.356.155.419.344c.063.19-.126.344-.419.344s-.482-.155-.419-.344m1.859-.296c0-.176.153-.32.339-.32s.25.144.141.32-.261.32-.339.32c-.077 0-.141-.144-.141-.32m6.119-2.936c-.338-.902.148-1.318 1.003-.86.719.384.611 1.346-.167 1.496-.35.067-.662-.17-.836-.636m-98.44-1.936c-.08-.224-1.028-2.998-2.105-6.163-10.66-31.319-26.697-62.287-46.31-89.423-10.68-14.777-21.49-27.34-38.197-44.388-7.234-7.38-7.142-7.251-6.42-9.074.264-.668 1.002-3.98 1.342-6.03.156-.94.363-1.788.459-1.885.296-.296 4.207 2.89 11.232 9.15 6.922 6.168 8.687 7.625 8.937 7.375.287-.287 1.142-4.96 1.143-6.242 0-.722.136-1.73.301-2.24.166-.51.541-2.048.835-3.418.464-2.17.716-2.683 1.963-4 .787-.83 1.985-2.374 2.662-3.43s1.545-2.32 1.928-2.81c.474-.606.634-1.134.502-1.659-.106-.423-3.144-3.792-6.752-7.486s-6.558-6.835-6.558-6.98.319-.769.707-1.385.957-1.66 1.263-2.32c.307-.66.76-1.2 1.007-1.2 1.438 0 13.7 10.708 24.235 21.16 34.915 34.647 62.259 77.96 78.96 125.08 4.075 11.495 8.717 26.657 8.29 27.083-.3.3-10.692 3.485-17.503 5.363-4.951 1.365-13.752 3.525-21.047 5.166-.428.097-.787-.004-.874-.244m103.819-.384c.43-.457.63-.938.487-1.169-.412-.666.746-1.273 1.647-.862.813.37 1.056 1.207.35 1.207-.23 0-.906.36-1.502.8-1.382 1.02-1.93 1.033-.982.024m-1.253-.405c-.003-.386.139-.79.315-.899.407-.252.407.49 0 1.12-.252.39-.311.349-.315-.221m5.115-1.49c0-.29.223-.529.496-.529s.71-.51.97-1.133c.531-1.271 1.17-1.196.995.117-.072.536-.344.898-.728.969-.337.062-.865.337-1.173.61-.508.45-.56.447-.56-.033m4.745-2.77c-.496-.546-.496-.605-.008-.792.56-.215 1.45.68 1.154 1.16-.243.394-.539.299-1.146-.369zm4.375-1.599c-.114-.185.182-.318.701-.315.698.004.792.074.419.315-.615.397-.874.397-1.12 0m4.96-2.77c0-.826.018-.833.632-.277.672.608.593 1.127-.17 1.127-.287 0-.462-.323-.462-.85m6.08-2.68c0-.64.667-1.611.976-1.42.514.318.338 1.07-.336 1.43-.46.246-.64.243-.64-.01m2.72-1.91c-.522-.224-.54-.28-.099-.298.298-.012.63.122.739.298.227.368.216.368-.64 0m.977-1.893a.357.357 0 0 1 .116-.49.357.357 0 0 1 .49.116.357.357 0 0 1-.116.49.357.357 0 0 1-.49-.116m1.503.081c-.542-.219-.507-.959.057-1.175.544-.209 1.285.578.992 1.053-.22.356-.413.379-1.049.122m1.562-1.497c-.392-.472-.173-.851.491-.851.235 0 .427.288.427.64 0 .738-.403.83-.918.21m1.744.15c-.099-.158.035-.466.298-.684.387-.321.476-.302.476.105 0 .597-.522.988-.774.58m-291.582-1.991c.124-.423.59-2.138 1.037-3.81 2.605-9.748 11.3-32.598 12.418-32.631.165-.005.645.315 1.066.711.762.716.77.716 1.235.08.258-.352 1.777-3.152 3.376-6.223 2.488-4.777 4.664-8.66 4.851-8.656.03.001.845 1.083 1.813 2.405 1.008 1.376 1.96 2.366 2.227 2.317 1.292-.24 38.326-43.736 37.89-44.503-.637-1.119-2.957-3.737-6.859-7.74-3.794-3.892-4.415-4.677-4.733-5.982-.438-1.8-.453-2.178-.088-2.178.554 0 5.41 4.051 8.801 7.344 3.062 2.972 8.842 9.712 8.842 10.311 0 .12-1.263 1.633-2.807 3.362-21.076 23.597-44.408 52.462-63.385 78.414-2.86 3.91-5.36 7.21-5.554 7.33-.243.15-.284-.024-.13-.551m293.53-.023c-.323-.352-.54-.671-.48-.709a19 19 0 0 1 1.037-.47c.754-.325.981-.322 1.195.016.428.674.315 1.171-.345 1.525-.754.403-.69.42-1.408-.362m2.606-1.766c.231-.092.507-.08.613.026.107.106-.082.182-.42.168-.372-.016-.448-.091-.193-.194m2.3-.894c0-.26 2.611-1.502 2.787-1.327.207.207-1.844 1.477-2.387 1.479-.22 0-.4-.068-.4-.152m3.2-1.927c0-.33.324-.477 1.04-.47.984.01 1.006.036.419.48-.8.605-1.459.6-1.459-.01m2.8-1.36c-.667-.151-.717-.511-.136-.993.307-.256.52-.256.775 0 .256.256.626.157 1.355-.363.981-.698 1.562-.71 1.136-.02-.344.557-2.52 1.513-3.13 1.376m5.087-3.203c-.261-.423.675-2.253 1.333-2.605.482-.258.727-.225 1.026.135.24.29.263.473.06.473-.184 0-.645.504-1.026 1.12-.68 1.1-1.094 1.36-1.393.877m3.425-2.013c-.234-.234-.181-.666.176-1.43.394-.84.71-1.096 1.373-1.104.474-.006.952-.156 1.062-.335.369-.597 2.773-1.642 3.306-1.437.45.172.411.29-.271.815-.439.337-.997.616-1.24.62-.244.004-1.152.727-2.018 1.607-1.67 1.696-1.857 1.795-2.388 1.264m6.416-4.913c-.332-.864.051-1.372.46-.61.246.462.264.768.05.9-.177.11-.407-.02-.51-.29m1.152-1.612c0-1.28.565-1.792 1.128-1.022.23.314.606.452.911.334.654-.25.681-.771.041-.771a.495.495 0 0 1-.48-.505c0-.384.212-.46.88-.319.752.16.988.02 1.624-.966.658-1.02.872-1.14 1.84-1.026.63.073 1.1-.015 1.104-.208.01-.427 2.232-1.55 2.232-1.13 0 .173-.166.314-.37.314-.202 0-.886.549-1.52 1.22-1.443 1.53-3.133 2.718-3.523 2.476-.164-.1-.615.262-1.003.807-.484.679-.894.941-1.305.834-.43-.113-.599.014-.599.453 0 .335-.216.61-.48.61-.334 0-.48-.336-.48-1.101M961 642c.242-.308.632-.682.867-.831.257-.163.353-.564.242-1.007-.25-1 .603-1.29 1.412-.481.483.483.536.7.232.948-1.836 1.501-2.459 1.931-2.798 1.931-.293 0-.282-.142.046-.56m3.8-3.22c0-.168.296-.383.658-.477.419-.11.613-.036.534.202-.153.46-1.192.7-1.192.276m1.92-2.618c0-.436 1.474-1.563 2.32-1.773.734-.182.88-.115.88.407 0 .898-.955 1.6-2.16 1.588-.572-.006-1.04-.106-1.04-.222m3.84-1.602c0-.176.225-.32.499-.32s.41.144.301.32-.333.32-.499.32-.301-.144-.301-.32m5.936-4.24c-.135-.31-.587-.56-1.01-.56-1.063 0-.957-.483.212-.967 1.184-.49 1.544-.167 1.256 1.127-.174.784-.258.857-.458.4m.677-1.733c-.4-.401-.213-.76.587-1.125.44-.2.8-.558.8-.793 0-.244.345-.429.8-.429.498 0 .8-.181.8-.48 0-.859 3.904-4.314 4.88-4.319.497-.002.213.873-.5 1.543-.408.383-.821.696-.919.696-.097 0-.816.612-1.597 1.36-3.984 3.814-4.33 4.067-4.85 3.547m8.668-7.624c.085-.442.28-.803.436-.803.438 0 .334.84-.153 1.244-.353.293-.407.209-.283-.441m1.199-1.123c-.295-.478.116-.96.819-.96.708 0 .797.336.237.896-.468.468-.794.488-1.056.064m1.76-1.753c0-.496.305-.992.816-1.327 1.21-.793 1.558-.154.589 1.084-.971 1.24-1.405 1.315-1.405.243m4.503-3.607c1.08-1.436 8.431-9.04 8.738-9.04.11 0 .199.196.199.436 0 .475-5.468 6.284-5.915 6.284-.151 0-.896.648-1.654 1.44-1.374 1.434-2.17 1.946-1.368.88m9.589-9.589c.01-.138.504-.826 1.106-1.53.851-.995 1.178-1.193 1.478-.893.453.453-.134 1.372-.875 1.372-.243 0-.441.139-.441.309s-.288.463-.64.651-.635.23-.628.091m-740.403-4.021c-7.458-9.238-19.775-28-28.827-43.91-6.351-11.163-15.543-29.237-15.352-30.185.244-1.211 16.772-9.918 24.57-12.944 4.817-1.87 5.44-2.013 5.44-1.261 0 .32-.13.719-.288.886-.456.483-1.575 4.944-1.239 4.944.167 0 2.81-.79 5.872-1.755 6.05-1.906 11.569-3.356 15.77-4.143 3.462-.65 3.65-.646 3.263.058-.17.308-.54 1.568-.822 2.8a73 73 0 0 1-1.295 4.705c-.43 1.356-.781 2.858-.781 3.338s-.135 1.314-.3 1.854c-1.508 4.93-4.148 17.67-5.144 24.823-.95 6.829-1.297 9.082-1.767 11.52-.289 1.496-.584 3.584-.657 4.64-.072 1.056-.272 2.496-.445 3.2-.447 1.82-1.287 7.05-1.287 8.01 0 .97 1.052 3.08 4.298 8.619l2.43 4.149-.17 2.251a91 91 0 0 1-.332 3.531c-.09.704-.208 1.712-.264 2.24-.245 2.319-.624 4.345-.837 4.477-.126.078-.953-.753-1.836-1.847m744.231.154c0-.674.59-1.344 1.184-1.344.572 0 .523.808-.087 1.417-.665.665-1.097.637-1.097-.073m1.751-1.999c-.126-.203.075-.673.447-1.045.536-.537.756-.594 1.071-.279.292.292.305.542.05.948-.427.676-1.26.876-1.568.376m2.409-2.21c0-.168.648-.944 1.44-1.725.792-.78 1.44-1.535 1.44-1.676 0-.334 2.53-2.694 2.888-2.694.414 0 .618.467.37.85-.12.188-.686.58-1.258.874-.572.293-1.04.745-1.04 1.004 0 .26-.144.472-.32.472s-.32.199-.32.441c0 .243-.636.963-1.414 1.6-1.48 1.213-1.786 1.36-1.786.854m6.907-7.26c-.14-.366.06-.828.59-1.357l.802-.803-.07 1.259c-.075 1.355-.926 1.935-1.322.902zm2.373-2.64c0-.325.975-.767 1.198-.544.08.08.05.3-.065.488-.255.413-1.133.456-1.133.055zm1.419-1.67c-.33-.531 1.866-2.595 2.5-2.352.436.167.462.343.162 1.054-.622 1.47-2.108 2.195-2.662 1.299m6.141-5.98c-.087-.14-.038-.45.109-.687.36-.583 1.334-.181 1.091.45-.2.52-.935.666-1.2.237m1.205-2.041c-.126-.204.081-.617.464-.927.38-.308.691-.717.691-.908s.198-.349.441-.349.66-.324.93-.72c.65-.96 1.352-.386.915.748-.625 1.62-2.894 3.04-3.44 2.156m4.076-5.303c.241-.307.619-.75.839-.983s.4-.58.4-.77.263-.109.585.182c.322.292.776.53 1.01.53.298 0 .25.193-.165.651-.324.358-.774.58-1 .494s-.495-.02-.599.149-.486.306-.85.306c-.582 0-.608-.066-.22-.559M289.189 569.2c-3.02-3.757-8.035-12.16-12.42-20.812-3.397-6.703-7.649-16.037-7.649-16.791 0-.238.558-1.252 1.24-2.255 7.329-10.771 18.48-20.419 26.12-22.596 7.08-2.017 15.899-3.717 21.84-4.21 2.273-.188 2.64-.15 2.64.28 0 .664-.37.91-10.368 6.933-17.654 10.634-21.952 13.834-27.369 20.378-4.043 4.885-3.975 3.735-.67 11.26 2.394 5.454 6.836 14.404 10.443 21.042l.885 1.629-.87 1.571a66 66 0 0 0-1.656 3.251c-.433.924-.851 1.68-.93 1.68-.078 0-.634-.612-1.236-1.36m746.668.323c-.368-.833-.343-1.042.215-1.793.348-.467.948-.897 1.334-.954.509-.076.652-.261.52-.675-.21-.66.614-1.53.944-.997.428.693 1.09.342 1.03-.544-.053-.78.04-.87.82-.788.625.066.88-.053.88-.41 0-.276-.216-.585-.48-.686-.68-.261-.598-.667.316-1.58.755-.756.835-.77 1.58-.282.826.54.794 1.606-.039 1.286-.327-.125-.407-.01-.277.398.123.387-.183.928-.94 1.66-.616.599-1.12 1.267-1.12 1.487s-.288.6-.64.847c-.352.246-1.334 1.241-2.183 2.211l-1.543 1.763zm7.423-9.415c-.22-.089-.396-.33-.39-.535.013-.574 1.852-2.466 2.307-2.374.23.046.403-.232.403-.649 0-.401.144-.833.32-.96.176-.126.479-.518.673-.87s.67-.687 1.058-.745c.571-.084.634-.192.329-.56-.447-.537.108-1.415.893-1.415.295 0 .404-.186.288-.49-.184-.478 3.165-4.95 3.708-4.95.138 0 .251-.187.251-.416s.17-.587.38-.796c.293-.292.504-.266.925.115.453.41.485.653.19 1.436-.196.518-.612 1.024-.925 1.123-.314.1-.57.454-.57.788s-.288.762-.64.95-.64.56-.64.826-.36.843-.8 1.283-.8.958-.8 1.152-.297.655-.66 1.025-1.175 1.466-1.801 2.434c-2.08 3.212-3.231 4.14-4.499 3.628m13.532-17.733c-.31-.789.378-2.259 1.006-2.15.385.068.606-.205.76-.94.219-1.034 1.385-2.294 2.142-2.314q1.1-.029-.96 2.488a243 243 0 0 0-2.055 2.54c-.569.72-.731.79-.893.376m4.532-7.218c-.24-.24 1.438-2.677 1.844-2.677.195 0 .61-.432.921-.96s.775-.96 1.03-.96c.62 0 .594.118-.376 1.686-1.234 1.997-2.908 3.422-3.42 2.911m4.256-5.48c0-.31.288-.743.64-.963s.64-.581.64-.804c0-.222.405-.905.9-1.517a26 26 0 0 0 1.633-2.325c.589-.973.822-1.138 1.18-.84.73.604.532 1.07-1.154 2.722-.88.864-1.89 2.182-2.242 2.93-.644 1.369-1.597 1.844-1.597.797m-279.307-6.738c.864-2.117 23.562-18.073 31.178-21.917l1.631-.823 1.136.808 1.135.807 3.953-1.585c2.175-.872 6.402-2.594 9.394-3.827 7.87-3.242 17.126-5.928 31.2-9.052 14.413-3.2 21.175-4.381 38.4-6.707 6.6-.89 13.55-1.85 15.443-2.13l3.443-.51-1.428-1.482c-.786-.814-2.168-2.417-3.073-3.561s-2.657-3.11-3.896-4.37l-2.253-2.29.922-.476c2.631-1.359 22.934-6.523 33.722-8.577 11.955-2.277 20.858-4.079 21.037-4.257.112-.113-.487-.906-1.332-1.764l-1.536-1.56.916-.192c10.214-2.14 37.918-2.481 52.595-.646 7.306.914 17.106 2.71 17.626 3.23.388.388-.457 5.711-1.44 9.067-2.513 8.579-7.156 16.993-12.842 23.271l-2.16 2.386-1.633-.19c-2.778-.32-16.54-1.11-26.27-1.507-15.181-.619-43.209-.154-60.321 1-16.66 1.123-39.593 3.804-52.16 6.098-15.534 2.836-25.225 5.566-48.8 13.75-18.189 6.314-27.808 9.996-38.944 14.91-5.477 2.416-5.826 2.546-5.643 2.096m284.902-1.034c-.391-1.233.958-2.077 1.765-1.105.225.271.258.48.076.48-.177 0-.397.288-.49.64-.217.834-1.085.824-1.351-.015m-311.438-4.225c-1.546-2.122-8.237-9.192-11.597-12.257-1.672-1.524-4.588-3.995-6.48-5.49s-3.44-2.908-3.44-3.14c0-.427 5.645-1.897 10.545-2.746 2.328-.403 2.451-.473 5.2-2.94 1.548-1.39 2.815-2.326 2.815-2.08 0 .244-.16.605-.355.8-.206.206-.384 1.784-.423 3.758l-.068 3.403 2.446 2.946c1.345 1.62 2.683 3.14 2.974 3.378.464.38 1.047.025 4.777-2.903 22.103-17.347 44.218-31.342 69.6-44.047 16.717-8.366 39.621-17.807 54.329-22.392 23.254-7.25 42.76-11.16 72.21-14.473 1.877-.21 3.584-.49 3.794-.62.286-.176.367-2.998.32-11.236-.033-6.05-.057-11.289-.053-11.641s.026-1.83.049-3.284c.022-1.455-.047-2.919-.153-3.253s-.032-.709.165-.83c.712-.44 4.132-1.067 11.41-2.09 4.083-.574 7.578-1.14 7.766-1.256.189-.116.404-1.333.48-2.704.074-1.37.193-2.55.264-2.621.317-.317 7.289-.782 16.708-1.114 11.614-.41 40.913-.213 50.08.336 11.079.664 31.723 2.634 33.044 3.154.508.2.28 1.066-2.293 8.702-5.403 16.032-15.23 41.116-16.264 41.512-.24.092-3.49-.137-7.222-.51-21.83-2.181-43.134-2.927-66.145-2.315-14.617.388-21.844.73-31.68 1.496-46.177 3.597-87.13 15.846-130.24 38.955-24.42 13.09-47.51 28.776-67.782 46.049-1.816 1.547-3.411 2.813-3.546 2.813s-.69-.612-1.235-1.36m315.443.07c0-.62.8-1.216 1.156-.86.208.208-.579 1.51-.913 1.51-.134 0-.243-.292-.243-.65m1.045-2.571c-.464-.178-.648-.447-.525-.767.242-.63.887-.63 1.411.001.548.66.022 1.114-.886.766m1.572-2.119c-.324-.13-.278-.33.198-.854.341-.377.72-1.102.84-1.61.225-.947 1.626-3.035 2.343-3.492a.97.97 0 0 0 .402-.731c0-.605.94-2.089 1.664-2.624.306-.226.843-1.06 1.193-1.851.581-1.315.692-1.405 1.277-1.04.566.354.586.46.173.916-.257.284-.467.747-.467 1.03 0 .282-.427.816-.949 1.188-.54.385-1.081 1.157-1.257 1.793-.321 1.163-1.533 2.68-2.15 2.69-.204.003-.291.339-.206.788.1.525-.195 1.315-.898 2.4-1.02 1.575-1.287 1.747-2.163 1.397m7.943-13.05c0-.647 1.28-3.05 1.624-3.05.154 0 .507-.44.784-.976.407-.787.642-.935 1.209-.76.387.118.759.265.826.326.19.17-.765 1.523-1.815 2.572-.518.519-1.043 1.261-1.166 1.65-.251.791-1.462.988-1.462.238m5.013-6.463c-.444-.444-.189-1.453.407-1.609.587-.154 1.3-1.568 1.3-2.58 0-.503 1.406-2.319 2.115-2.731.545-.317.337.281-.866 2.493a68 68 0 0 0-1.58 3.12c-.695 1.492-.95 1.733-1.376 1.307m4.267-8.408c0-.649 1.031-1.441 1.398-1.074.362.362.216.653-.598 1.186-.76.498-.8.493-.8-.112m2.152-2.453c-.115-.116-.057-.495.129-.842.249-.465.433-.538.695-.276s.228.485-.129.842c-.267.267-.58.39-.695.276m-653.221-.566c-.271-.707.09-1.067.578-.579.289.289.29.468.005.753-.284.284-.423.243-.583-.174m655.149-1.862c.386-.386.799-.606.917-.488.311.311-.506 1.19-1.107 1.19-.412 0-.374-.138.19-.702m-658.16-.578c0-.176.271-.32.603-.32.333 0 .677-.286.77-.64.092-.352.34-.64.551-.64.22 0 .3.218.19.506a3.2 3.2 0 0 0-.194.96c0 .291-.345.454-.96.454-.528 0-.96-.144-.96-.32m252.641-4.067c-4.315-6.796-10.909-16.359-15.573-22.585-19.857-26.51-37.99-45.815-60.588-64.51-7.468-6.176-8.506-7.097-8.328-7.385.088-.143.023-.672-.145-1.176s-.372-1.709-.452-2.677-.298-2.975-.483-4.46c-.186-1.486-.28-2.759-.209-2.83.481-.48 6.92 3.705 15.65 10.174 6.67 4.942 8.863 6.487 9.005 6.344.118-.118.235-17.07.19-27.578l-.028-6.35-5.965-5.891-5.964-5.892.224-1.839c.124-1.01.306-2.522.406-3.358.099-.836.342-1.519.54-1.517.526.004 5.182 3.518 10.12 7.64 18.534 15.467 32.928 32.42 43.913 51.717 14.262 25.052 22.156 52.044 23.184 79.268l.202 5.35-.77.29c-2.623.989-2.532 1.04-4.929-2.735m49.157 2.662-.763-.423.986-.344c.9-.313.97-.439.809-1.436-.187-1.15.527-2.964 1.426-3.622q.479-.35.274-1.164c-.134-.535-.041-.948.273-1.209.262-.217.477-.618.477-.891s.227-.746.504-1.052.612-1.36.745-2.34c.14-1.022.505-2.074.857-2.463.338-.374.567-.963.51-1.31-.069-.414.116-.686.542-.797.404-.106.682-.486.744-1.017.066-.568.256-.806.578-.723 1.624.418 1.92.41 1.92-.05 0-.263-.3-.558-.669-.654-.528-.138-.622-.33-.446-.918.123-.408.473-.958.78-1.222.305-.264.807-1.308 1.115-2.32s.675-1.84.816-1.84.121-.599-.043-1.33c-.363-1.616.128-2.412.869-1.409.252.342.458.899.458 1.237 0 .494.144.571.72.388a6.7 6.7 0 0 1 1.302-.266c.559-.036.559-.053.006-.458-.54-.394-.51-.483.458-1.388.569-.531 1.034-1.175 1.034-1.43 0-.529.82-.63 1.124-.139.11.18.335.243.498.141.522-.322.321-1.025-.342-1.199q-1.353-.354.32-2.467c.528-.667.96-1.371.96-1.566s.134-.354.297-.354c.343 0 .651-.306 2.46-2.444l2.134-2.516c.883-1.04 1.492-.955.824.114-.5.8-.314 1.04.62.796.422-.11.705-.434.705-.806 0-.342.147-.531.326-.42.178.11.252.318.163.462s.05.437.308.651c.259.215.692.835.963 1.379.434.87.437 1.045.023 1.459-.392.391-.556.4-.978.049-.28-.232-.467-.724-.417-1.093.073-.527-.08-.671-.708-.671-.723 0-.793.115-.73 1.2.089 1.499-.573 1.614-1.11.193-.33-.878-.446-.953-.894-.58-.376.311-.46.718-.311 1.511.172.918.102 1.112-.452 1.257-.36.095-.577.298-.482.452.317.514.37 4.464.062 4.655-.167.103-.716-.118-1.22-.49-.504-.373-1.062-.678-1.24-.678-.5 0 .02 1.054.842 1.705 1.489 1.178 1.518 1.691.19 3.335-1.835 2.274-2.636 2.946-3.24 2.72-.463-.173-.477-.128-.101.333.37.455.342.687-.187 1.58-.393.665-.824 1.01-1.181.947-.42-.076-.514.05-.372.496.104.329.005.85-.221 1.159-.378.516-.486.521-1.362.065-1.248-.651-1.824-.63-1.686.06.079.395.415.56 1.143.557 1.37-.004 1.334.554-.17 2.575-1.25 1.68-2.87 4.101-7.596 11.348-3.529 5.411-3.677 5.543-5.244 4.675m11.802-16.515a.32.32 0 0 0-.32-.32.32.32 0 0 0-.32.32c0 .176.144.32.32.32a.32.32 0 0 0 .32-.32m-.8-3.52c.109-.176.045-.32-.141-.32-.187 0-.339.144-.339.32s.064.32.141.32c.078 0 .23-.144.339-.32m3.04-1.749c0-.082-.324-.321-.72-.532-.653-.348-.68-.334-.28.149.408.495 1 .722 1 .383m-.384-2.795c.61-.61.447-.959-.336-.718-.925.284-.987.35-.733.76.274.445.595.432 1.069-.042m2.554-.527c.092-.275-.062-.39-.427-.32-.313.061-.634.305-.713.542-.092.275.062.39.427.32.313-.061.634-.305.713-.542m1.427-1.277c-.046-.214.134-.473.4-.575s.483-.46.483-.796c0-.335.176-.892.392-1.237.293-.47.3-.72.028-.992-.56-.56-1.138-.007-.917.876a1.9 1.9 0 0 1-.266 1.436l-.461.659-.36-.672c-.482-.9-.863-.845-1.116.163-.15.602-.049.957.365 1.274.67.514 1.572.43 1.452-.136m-.717-2.932c0-.176-.063-.32-.141-.32s-.23.144-.339.32-.045.32.141.32.339-.144.339-.32m3.84-3.04c.318-.383.318-.577 0-.96-.502-.605-.996-.626-.768-.032.094.246.018.542-.17.658-.188.117-.342.347-.342.513 0 .47.838.353 1.28-.179m-322.88 31.62c-1.6-.264-1.735-.38-1.164-1.012.579-.639.693-1.328.22-1.328-.167 0-.441.245-.61.545-.246.442-.394.47-.78.15-.448-.372-.568-.748-1.066-3.335-.11-.572-.31-1.184-.443-1.36s-.426-1.4-.65-2.72-.53-2.559-.678-2.752c-.147-.194-.36-1.026-.473-1.849s-.33-1.573-.48-1.667c-.543-.335-.29-2.038.364-2.446.352-.22.64-.529.64-.686 0-.409 1.525-1.769 1.74-1.553.325.324.188 1.353-.18 1.353-.249 0-.237.146.037.476.218.263.508.407.646.322.137-.085.342.085.454.378.113.293.02.65-.206.794-.304.193-.269.261.136.265.372.003.665.442.912 1.365.201.748.502 1.707.67 2.132s.393 1.72.5 2.88c.108 1.16.367 2.252.577 2.428s.605.9.876 1.607c.46 1.196.451 1.375-.114 2.537-.744 1.53-.768 2.096-.09 2.096.379 0 .476-.214.364-.8-.222-1.158.579-1.02.994.172.286.82.241 1.07-.288 1.6-.345.346-.736.608-.868.584s-.6-.103-1.04-.175m-.107-4.122c.27-.703-.463-1.409-.837-.804-.313.506-.1 1.306.348 1.306.163 0 .383-.226.489-.502m-.631-2.7c-.379-1.002-.683-1.186-1.03-.624-.26.419.737 1.988 1.114 1.755.152-.095.115-.603-.084-1.13m-.693-1.932c.113-.184.03-.546-.186-.806-.315-.38-.279-.596.182-1.106.518-.572.523-.634.045-.634-.292 0-.53.141-.53.314s-.36.404-.8.515c-.932.234-1.009.65-.27 1.466.59.652 1.246.758 1.559.251m-1.118-2.72c.497-.598.017-1.22-.722-.936-.305.117-.436.431-.336.81.195.748.51.786 1.058.126m664.531 8.29c-.296-.297.06-.756.587-.756.27 0 .377.193.267.48-.196.509-.517.613-.854.275m.989-1.44c-.195-.58.072-1.556.426-1.556.36 0 .359.985 0 1.556-.233.368-.299.368-.423 0zm1.669-4.116c0-.412.162-.64.4-.56.22.073.4.325.4.56a.63.63 0 0 1-.4.56c-.238.08-.4-.148-.4-.56m2.24-3.944c0-.257.377-.561.838-.677 1.514-.38 1.407.466-.118.927-.517.156-.72.086-.72-.25m1.68-2.295c-.519-.589-.506-1.173.041-1.922.39-.532.496-.547.915-.13.301.302.418.848.322 1.503-.16 1.093-.624 1.293-1.278.55m1.747-3.921c.113-.308.36-.664.55-.79.188-.127.343-.559.343-.96 0-1.158.943-.91 1.058.28.073.756-.085 1.136-.631 1.52-.975.682-1.582.66-1.32-.05m2.491-4.563c-.362-.585.19-1.592.983-1.791.745-.187 1.125-1.086.459-1.086-.176 0-.32-.122-.32-.271 0-.358 1.247-1.79 1.412-1.62.16.163.3 1.811.236 2.755-.097 1.408-2.2 2.936-2.77 2.013m-565.758-3.574c-32.359-10.763-61.65-16.759-94.24-19.29-11.43-.887-17.956-1.151-33.28-1.349-21.355-.275-37.98.495-57.378 2.66-3.06.34-4.848.418-5.048.218-.728-.728-8.877-20.793-12.517-30.822-2.886-7.951-6.337-18.267-6.337-18.942 0-.329.18-.66.4-.736 1.262-.437 19.306-2.122 29.2-2.727 21.2-1.296 60.584-.906 81.28.806 8.943.74 24.998 2.837 25.53 3.336.136.128-.044.605-.4 1.059-.358.454-.65.924-.65 1.044s-.288.585-.64 1.033c-1.416 1.8-.934 2.15 4.48 3.258 3.32.68 7.298 1.693 9.68 2.467 2.066.67 2.04 1.216-.255 5.242-.25.44-.458 1.114-.46 1.497-.003.384-.242.935-.532 1.225s-.64 1.056-.779 1.703c-.138.646-.685 2.399-1.215 3.895s-1.31 3.698-1.73 4.893c-.422 1.195-.933 2.34-1.138 2.544s-.371.625-.371.936c0 .533-.632 2.207-1.367 3.62-.181.348-.51 1.318-.731 2.156l-.402 1.523 1.17.305c.644.168 4.626.97 8.85 1.783 23.699 4.558 44.73 10.314 62.72 17.167 7.446 2.837 9.313 3.88 8.185 4.578-.377.233-1.476 3.627-1.947 6.015-.275 1.39-.495 1.832-.9 1.809-.296-.018-4.426-1.325-9.178-2.906M756.159 449c0-.176.144-.41.32-.518s.32-.054.32.122-.144.41-.32.518-.32.054-.32-.122m8-.038a.32.32 0 0 1 .32-.32.32.32 0 0 1 .32.32.32.32 0 0 1-.32.32.32.32 0 0 1-.32-.32m353.28.038c0-.176.144-.41.32-.518s.32-.054.32.122-.144.41-.32.518-.32.054-.32-.122m-362.766-.832c.113-.296.206-.599.206-.672s.216-.134.48-.134c.686 0 .592.416-.206.915-.608.38-.663.367-.48-.11m10.503-.983c.144-.695.712-.738.842-.063.068.35-.09.56-.419.56-.307 0-.484-.207-.423-.497m-9.282-1.134c-.478-.765-.312-1.096.411-.819.493.19.712 1.49.251 1.49-.134 0-.432-.302-.662-.671m361.774.431c-.07-.132-.036-.6.076-1.04.171-.668.24-.709.418-.245.136.355.403.481.742.351.454-.174.477-.105.161.485-.36.674-1.141.925-1.396.449zm-351.339-1.156c-.12-.626-.035-.728.49-.59.395.103.8-.058 1.068-.425.313-.428.43-.464.421-.13-.013.558-1.089 1.901-1.523 1.901-.171 0-.376-.34-.456-.756m352.747-2.444c.722-1.385.967-1.518 1.533-.836.291.35.16.619-.625 1.28-1.4 1.178-1.681 1.04-.908-.444m-351.877.64c-.109-.176-.045-.32.141-.32.187 0 .339.144.339.32s-.063.32-.141.32-.23-.144-.339-.32m353.328-2.712c-.1-.26.065-.616.365-.794.417-.245.452-.385.147-.587-.316-.209-.304-.395.054-.885.507-.694.724-.607.846.338.21 1.64-.927 3.194-1.412 1.928M757.18 439.34a1 1 0 0 1 .56-.56c.24-.08.36.04.28.28a1 1 0 0 1-.56.56c-.24.08-.36-.04-.28-.28m365.207-2.241c-.116-.188-.13-.422-.033-.52.263-.263 1.166.148 1.166.531 0 .434-.863.426-1.134-.011zm-353.926-1.61c-.282-.457.652-1.39 1.11-1.107.246.152.252.4.019.837-.372.694-.803.797-1.129.27m-10.221-.609c.109-.176.261-.32.339-.32.077 0 .141.144.141.32s-.152.32-.339.32c-.186 0-.25-.144-.141-.32m364.858-.515c.191-.5.79-.458.966.067.057.171-.178.332-.522.358-.43.033-.569-.1-.444-.425M758.72 432.64a.32.32 0 0 1 .32-.32.32.32 0 0 1 .32.32.32.32 0 0 1-.32.32.32.32 0 0 1-.32-.32m12.857-1.137c.144-.695.712-.738.842-.063.068.35-.09.56-.419.56-.307 0-.484-.207-.423-.497m359.143-11.663c.109-.176.261-.32.339-.32s.141.144.141.32-.152.32-.339.32c-.186 0-.25-.144-.141-.32m-344.16-4.777c0-.532 1.24-2.263 1.622-2.263.164 0 .294.18.29.4-.013.531-1.912 2.383-1.912 1.863m2.56-3.211c0-.159.45-.609 1-1l1.001-.713-.54.823c-.556.85-1.461 1.4-1.461.89m345.92-1.711c0-.26.227-.56.503-.666.351-.134.472-.032.4.34-.131.677-.903.956-.903.326m1.92-3.997c0-.464.795-1.979 1.04-1.982.289-.002.316 1.028.046 1.732-.197.514-1.086.719-1.086.25m2.595-5.942c-.276-.332-.247-.533.121-.839.266-.22.484-.583.484-.805s.36-.64.8-.929c.74-.485.8-.485.8 0 0 .609-1.292 3.011-1.62 3.011-.122 0-.385-.197-.585-.438m1.408-4.037c-.236-.382.064-.965.496-.965.39 0 .392.866 0 1.106-.164.102-.388.038-.499-.14zM390.91 367.12c-2.323-2.31-5.03-6.642-8.345-13.36-8.261-16.735-13.625-35.442-15.736-54.88-.623-5.739-.826-22.92-.325-27.559l.264-2.438 2.296-.204c1.264-.111 9.569-.294 18.457-.406 15.598-.196 23.635 0 35.04.86 6.417.482 6.786.553 6.993 1.345.1.379.013.89-.19 1.136-.293.352-.207.57.413 1.039.628.474.704.673.384.994-.681.683-.448 1.118.8 1.487 1.89.56 11.8 1.872 18.64 2.468 3.603.314 9.577 1.142 14.138 1.96 7.663 1.374 9.636 1.831 10.378 2.407.25.194.361 4.194.375 13.473.011 7.259.031 13.648.045 14.198.024.992.055 1.01 3.784 2.19 16.715 5.287 38.24 13.032 44.918 16.162.827.387.836.427.72 3.32-.064 1.61-.137 3.756-.163 4.768s-.18 1.84-.343 1.84-8.1-2.582-17.635-5.738c-21.617-7.154-28.894-9.238-40.788-11.682-10.8-2.218-21.818-3.461-34.149-3.85-9.035-.287-26.586.685-27.628 1.528-1.257 1.018-4.12 8.016-5.472 13.376-1.175 4.657-1.429 6.908-2.577 22.877-.52 7.233-1.037 13.39-1.148 13.68-.368.958-1.565.58-3.146-.991m683.154-66.028c-.28-.452.337-1.068.79-.79.19.119.347.423.347.677 0 .539-.824.62-1.137.113m-3.826-6.132c.085-1.628.256-3.896.378-5.04.123-1.144.233-3.88.244-6.08.021-4.051.504-5.685.833-2.82.095.825.425 1.78.733 2.12.536.592.532.626-.096.79-.569.15-.612.286-.326 1.04.206.54.218 1.004.031 1.229-.164.199-.309.721-.321 1.161-.1 3.419-.429 7.02-.707 7.721-.183.463-.305 1.04-.272 1.28.122.882-.023 1.559-.334 1.559-.2 0-.26-1.104-.163-2.96m5.457-1.498c-.102-.164-.038-.388.14-.499.18-.11.326.024.326.298 0 .562-.192.645-.466.201m-1.267-.619c-.138-.223-.165-.492-.06-.598.287-.286.6.135.444.6-.108.324-.183.324-.385-.002zm.95-3.323c-.483-1.567-.447-2.037.186-2.432.786-.492 1.088-.291.75.498-.134.316-.213.97-.175 1.454.07.873-.525 1.248-.761.48m-.371-4.533c-.294-.766.094-1.485.679-1.26.584.223.521 1.435-.085 1.635-.22.072-.487-.097-.594-.375m-.126-3.227c.22-.264.52-.48.67-.48.148 0 .187.216.086.48s-.402.48-.669.48c-.395 0-.41-.09-.087-.48m-1.92-.442c0-.352.144-.73.32-.838.176-.109.32.09.32.442s-.144.73-.32.838c-.176.109-.32-.09-.32-.442m2.245-4.918c0-.22.129-.595.28-.834.352-.555.815.089.553.77-.218.568-.84.616-.833.064" style="fill:#6c228f" transform="translate(-217.603 -266.335)"/></svg>