<svg version="1.1" xmlns="http://www.w3.org/2000/svg" viewBox="0 0 997.05072 892.09827" width="997.05072" height="892.09827">
  <path style="fill:#50096d" d="m 718.65802,1145.3778 0.098,-10.1778 1.26199,-1.1752 c 0.69409,-0.6463 1.26198,-1.2726 1.26198,-1.3916 0,-0.119 0.396,-0.6128 0.88,-1.0972 3.10146,-3.1041 2.96186,-2.7735 3.2872,-7.784 0.16256,-2.5036 0.443,-8.08 0.6232,-12.392 0.39021,-9.3372 0.6003,-11.52 1.10876,-11.52 0.20708,0 0.86445,0.36 1.46084,0.8 0.59639,0.44 1.35613,0.8 1.68831,0.8 0.33219,0 1.21905,0.504 1.97079,1.12 0.75175,0.616 1.63998,1.1305 1.97386,1.1434 0.33387,0.013 1.03904,0.2993 1.56704,0.6365 0.528,0.3372 1.176,0.6985 1.44,0.803 0.264,0.1045 1.0148,0.4561 1.66845,0.7812 l 1.18845,0.5913 1.71338,-2.2977 c 3.16872,-4.2493 14.44607,-21.6856 19.90625,-30.7777 22.23181,-37.0196 37.13289,-66.5338 50.73025,-100.48 4.71469,-11.77038 7.34454,-19.35275 11.80559,-34.03787 9.21152,-30.32292 13.40199,-48.99275 16.16998,-72.04213 1.68419,-14.0245 2.53436,-33.51523 1.88779,-43.27911 l -0.20655,-3.11912 -1.92291,-0.96088 c -1.05759,-0.52849 -2.09916,-0.96089 -2.31459,-0.96089 -0.21542,0 -1.30842,-0.62751 -2.42888,-1.39447 -2.01447,-1.3789 -4.21845,-2.65461 -7.63721,-4.42059 -0.968,-0.50002 -2.48,-1.33526 -3.36,-1.85609 -1.62453,-0.96147 -4.99484,-2.64434 -5.98135,-2.98662 -1.02702,-0.35634 -1.46086,-1.65788 -1.83405,-5.50223 -0.20502,-2.112 -0.52793,-4.884 -0.71758,-6.16 -0.34355,-2.31148 -0.3485,-2.32001 -1.34592,-2.32197 -0.5506,-0.001 -1.3745,-0.19682 -1.83087,-0.43497 -0.45638,-0.23814 -1.363,-0.53302 -2.01473,-0.65529 -0.79885,-0.14986 -1.27438,-0.45127 -1.4594,-0.92503 -0.15094,-0.38651 -0.51607,-3.51074 -0.81138,-6.94274 -0.97508,-11.33182 -3.27472,-25.58083 -6.11019,-37.85988 -0.60199,-2.60693 -1.09453,-4.9219 -1.09453,-5.14438 0,-0.68541 11.1244,-4.00475 18.2468,-5.44454 7.37378,-1.4906 17.21765,-2.59999 17.80375,-2.00646 1.04147,1.05469 5.66152,20.97704 7.91606,34.13526 3.48616,20.34625 4.66661,33.33223 4.90144,53.92 0.28804,25.25172 -1.05423,41.8524 -5.22653,64.64 -3.92253,21.42344 -9.40006,40.84388 -21.39065,75.84 -9.18071,26.79512 -16.41998,43.9241 -29.61811,70.08 -12.4659,24.7048 -20.87969,39.1177 -45.58057,78.08 -18.77244,29.611 -23.4247,36.573 -29.03994,43.4578 l -0.73225,0.8978 z M 702.56,1134.4 c -0.10877,-0.176 -0.0453,-0.32 0.14111,-0.32 0.18639,0 0.33889,0.144 0.33889,0.32 0,0.176 -0.0635,0.32 -0.14111,0.32 -0.0776,0 -0.23012,-0.144 -0.33889,-0.32 z m 0.0265,-1.5571 c -0.13784,-0.223 -0.16421,-0.4919 -0.0586,-0.5975 0.28638,-0.2864 0.59864,0.1348 0.44396,0.5988 -0.10839,0.3252 -0.18377,0.325 -0.38538,0 z M 553.20388,1109.68 c -8.46899,-13.246 -15.54779,-25.7058 -22.42723,-39.4756 -2.98165,-5.968 -4.69665,-9.8026 -4.69665,-10.5014 0,-0.4053 3.77585,-1.7809 5.52201,-2.0117 0.6611,-0.087 1.2816,-0.2877 1.37888,-0.4451 0.36446,-0.5897 1.04465,-0.2402 2.56942,1.3202 l 1.56969,1.6064 5.44,-0.1875 c 2.992,-0.1031 6.088,-0.2365 6.88,-0.2964 0.792,-0.06 2.664,-0.194 4.16,-0.2981 1.496,-0.104 3.656,-0.2695 4.8,-0.3676 3.91617,-0.3358 6.56029,-0.5137 7.6,-0.5112 0.572,0 1.04,-0.1313 1.04,-0.2947 0,-0.3742 1.18321,-0.3928 1.41221,-0.022 0.0935,0.1513 0.66502,0.1201 1.27005,-0.069 l 1.10006,-0.3443 -0.60141,-1.1789 c -0.33078,-0.6484 -2.0245,-3.5332 -3.76382,-6.4107 -7.71298,-12.7603 -14.71861,-27.5783 -17.37501,-36.7509 -0.71624,-2.4732 -0.71022,-2.4091 -0.18543,-1.9736 0.22916,0.1902 0.70069,0.2715 1.04785,0.1808 0.34716,-0.091 1.05967,0.058 1.58335,0.3314 0.52368,0.273 1.18652,0.4973 1.47297,0.4984 0.28645,0 0.70008,0.218 0.91918,0.482 0.2191,0.264 0.6491,0.48 0.95555,0.48 0.99349,0 2.05559,1.4732 3.49687,4.8504 2.083,4.8809 8.16583,16.7371 11.22022,21.8696 2.30742,3.8773 7.87958,12.3162 11.36388,17.2103 l 1.08946,1.5302 -1.91537,3.0403 c -1.05346,1.6721 -1.82264,3.1903 -1.7093,3.3737 0.23314,0.3772 7.09353,0.1467 11.81869,-0.397 5.7301,-0.6595 15.42374,-3.2155 18.79142,-4.955 1.22483,-0.6326 11.29182,-8.0369 15.12858,-11.127 1.76,-1.4175 4.24489,-3.5614 5.52197,-4.7641 1.29435,-1.219 2.47797,-2.0903 2.67447,-1.9689 1.11104,0.6867 -1.85757,7.4381 -5.97006,13.5775 -5.30777,7.9239 -11.1798,14.911 -19.64758,23.3788 -10.85663,10.8566 -20.80373,18.6432 -33.2988,26.0661 -3.86526,2.2963 -16.54017,8.7903 -17.16261,8.7933 -0.19944,10e-4 -1.58252,-1.9062 -3.07351,-4.2382 z m 310.67014,1.8133 c -0.11959,-0.3117 -0.0481,-0.458 0.18576,-0.38 0.47835,0.1594 0.74173,0.8867 0.32112,0.8867 -0.17183,0 -0.39993,-0.228 -0.50688,-0.5067 z m -4.64396,-2.8171 c -0.26174,-0.3154 -0.27532,-0.5246 -0.0433,-0.668 0.18579,-0.1148 0.42657,0.023 0.53507,0.3053 0.27014,0.704 -0.0268,0.923 -0.49173,0.3627 z m -2.79964,-1.01 c -0.10421,-0.2716 -0.1003,-0.583 0.009,-0.692 0.31005,-0.31 1.86083,0.5099 1.64004,0.8672 -0.30609,0.4952 -1.4376,0.375 -1.64874,-0.1752 z m 4.39228,-0.2788 c -0.23864,-0.2876 -0.33898,-0.6178 -0.22297,-0.7338 0.29886,-0.2989 0.93812,0.4129 0.78457,0.8735 -0.0883,0.2648 -0.2617,0.2216 -0.5616,-0.1397 z m -6.7427,-0.6361 c 0,-0.2468 -0.432,-0.5993 -0.96,-0.7833 -1.12426,-0.392 -1.33791,-1.1839 -0.24,-0.8897 0.396,0.1061 0.972,0.1949 1.28,0.1973 0.40792,0 0.56,0.2651 0.56,0.9644 0,0.528 -0.144,0.96 -0.32,0.96 -0.176,0 -0.32,-0.2019 -0.32,-0.4487 z m 8.16,-0.8313 c -0.10877,-0.176 0.0267,-0.32 0.30111,-0.32 0.27439,0 0.49889,0.144 0.49889,0.32 0,0.176 -0.1355,0.32 -0.30111,0.32 -0.16562,0 -0.39012,-0.144 -0.49889,-0.32 z m -2.60428,-1.12 c -0.10131,-0.264 -0.44501,-0.48 -0.76378,-0.48 -0.92164,0 -1.59194,-0.3513 -1.59194,-0.8342 0,-0.6424 0.48225,-0.5534 1.92,0.3542 0.69701,0.44 1.40565,0.8 1.57476,0.8 0.16911,0 0.39647,0.144 0.50524,0.32 0.11241,0.1819 -0.16002,0.32 -0.63116,0.32 -0.45591,0 -0.91181,-0.216 -1.01312,-0.48 z m -9.87572,-1.76 c -0.61067,-0.2624 -0.60701,-0.276 0.08,-0.2975 0.396,-0.012 0.72,0.1215 0.72,0.2975 0,0.176 -0.036,0.3099 -0.08,0.2975 -0.044,-0.012 -0.368,-0.1462 -0.72,-0.2975 z m 5.76,-0.64 c -0.31856,-0.352 -0.47541,-0.64 -0.34856,-0.64 0.45678,0 1.46856,0.6692 1.46856,0.9713 0,0.5021 -0.49947,0.3544 -1.12,-0.3313 z m -2.97262,-2.0922 c -0.53392,-0.6053 -0.0498,-0.6041 0.75146,0 0.46839,0.3543 0.50311,0.4694 0.14116,0.4679 -0.264,0 -0.66568,-0.2126 -0.89262,-0.4699 z m -9.84949,-1.1436 c -0.20508,-0.3318 0.36057,-0.9082 0.90211,-0.9193 0.29066,-0.01 0.29771,0.1124 0.0458,0.7689 -0.22671,0.5908 -0.63558,0.6557 -0.94787,0.1504 z M 850.24,1098.73 c 0,-0.2862 0.18761,-0.3979 0.48,-0.2857 0.264,0.1013 0.48,0.3128 0.48,0.4699 0,0.1572 -0.216,0.2858 -0.48,0.2858 -0.264,0 -0.48,-0.2115 -0.48,-0.47 z m -137.82322,-60.1482 c -5.4298,-4.0817 -14.22285,-15.1115 -21.80585,-27.3528 -2.89903,-4.68 -5.33612,-8.7567 -5.41577,-9.0595 -0.085,-0.3231 0.40807,-1.2482 1.19387,-2.23995 1.26892,-1.6015 7.91189,-9.00064 11.37066,-12.66498 l 1.60031,-1.69542 2.01811,0.47127 c 1.10995,0.2592 2.18995,0.61365 2.4,0.78768 0.48877,0.40496 1.10264,-0.10372 3.60597,-2.9881 2.14675,-2.47352 6.28176,-8.11672 10.40846,-14.20479 4.66981,-6.88932 5.9827,-8.67521 6.37755,-8.67521 0.17045,0 0.56388,0.252 0.8743,0.56 0.31041,0.308 0.92241,0.74153 1.36,0.9634 0.43758,0.22187 1.22761,0.68528 1.75561,1.0298 0.528,0.34453 1.392,0.82844 1.92,1.07536 0.528,0.24693 1.3091,0.82752 1.73578,1.2902 0.42668,0.46268 0.97845,0.84124 1.22615,0.84124 0.46199,0 2.73538,1.71653 4.33838,3.2757 0.82117,0.79871 4.63764,3.1243 5.12723,3.1243 0.69812,0 11.74055,-25.35371 14.10646,-32.3888 0.78632,-2.33816 3.46195,-11.3072 5.94584,-19.9312 4.8603,-16.87486 6.25887,-21.52067 6.67755,-22.1816 0.19185,-0.30284 0.38443,-0.12258 0.68371,0.64 0.22915,0.58388 1.13061,1.80229 2.00324,2.70758 2.563,2.65892 2.54003,2.92045 -1.72391,19.63402 -3.27311,12.82971 -5.32686,20.59659 -6.25521,23.65595 -0.44995,1.48277 -3.33374,8.82677 -6.40844,16.32 -12.68069,30.90364 -17.53463,41.23425 -23.90775,50.88245 -1.46102,2.2119 -5.10923,7.7917 -8.10713,12.3997 -5.56999,8.5613 -7.27194,10.9519 -9.73053,13.6675 l -1.39686,1.5429 z M 528.55872,906.72 c -1.77671,-14.18141 -1.91181,-31.26563 -0.3821,-48.32 1.11821,-12.4666 3.8783,-27.5229 8.32369,-45.40567 1.13283,-4.55712 2.05969,-8.48375 2.05969,-8.72584 0,-0.46376 -1.90352,-0.43143 -10.56,0.17934 -2.024,0.14281 -3.968,0.26937 -4.32,0.28124 -0.352,0.0119 -1.70074,0.17484 -2.9972,0.36215 -1.29646,0.18732 -2.49353,0.25631 -2.66016,0.15333 -0.16663,-0.10299 -0.61789,0.075 -1.0028,0.39561 -0.38491,0.32057 -0.51984,0.37788 -0.29984,0.12735 0.22,-0.25053 0.4,-0.71711 0.4,-1.03684 0,-0.31973 0.7817,-2.14 1.73711,-4.04503 5.66967,-11.30499 13.8757,-22.99516 24.85648,-35.41009 5.31407,-6.00812 5.01697,-5.58904 3.74021,-5.27603 -0.57959,0.14208 -1.62425,0.56032 -2.32146,0.92941 -0.69722,0.36909 -1.44818,0.67107 -1.66882,0.67107 -0.42981,0 -3.04787,0.81104 -4.10352,1.27122 -0.352,0.15345 -1.05891,0.37069 -1.57092,0.48276 -0.85639,0.18746 -0.75036,0.003 1.32448,-2.2981 7.43609,-8.2487 18.45322,-17.8161 28.56644,-24.80744 4.83769,-3.34433 11.23986,-7.28844 11.83075,-7.28844 0.45481,0 2.56925,2.19996 2.56925,2.67316 0,0.0829 -1.67445,3.15132 -3.721,6.81876 -2.04655,3.66744 -5.61495,10.48408 -7.92979,15.14808 -25.40777,51.19238 -36.43861,98.59186 -34.4799,148.16 0.1843,4.664 0.2351,8.57773 0.11289,8.69717 -0.12221,0.11944 -0.8702,0.0996 -1.6622,-0.0442 -0.792,-0.14373 -2.25681,-0.35842 -3.25513,-0.47709 -1.72716,-0.2053 -1.82022,-0.17989 -1.92,0.52416 -0.0577,0.40696 -0.35744,-1.27608 -0.66615,-3.74008 z m 249.29943,-23.77919 c -0.81939,-1.13498 -3.10715,-2.97825 -3.7572,-3.02722 -0.43614,-0.0329 -0.66024,-0.27152 -0.65885,-0.70169 0.003,-0.89322 0.96879,-7.28307 3.02404,-20.00486 0.95314,-5.89987 1.82998,-11.59104 1.94854,-12.64704 0.11855,-1.056 0.55037,-3.7255 0.9596,-5.93222 2.0607,-11.11203 3.63649,-24.27884 4.93889,-41.26778 1.17679,-15.35054 1.29439,-16.45231 1.6395,-15.36 0.28152,0.89103 1.19487,18.18302 1.47049,27.84 0.29338,10.27907 -0.74856,28.92938 -2.16874,38.81948 -0.64146,4.46716 -3.74341,21.26953 -5.31328,28.78052 -0.86355,4.13161 -1.20875,4.71177 -2.08299,3.50081 z M 614.7249,828.89889 c 0.003,-0.14239 0.14449,-0.47489 0.3151,-0.73889 0.26733,-0.41366 0.31088,-0.40521 0.3151,0.0611 0.003,0.29762 -0.1391,0.63012 -0.3151,0.73889 -0.176,0.10877 -0.31779,0.0813 -0.3151,-0.0611 z m 0.23532,-4.42653 c -0.0849,-0.4442 -0.0458,-0.87473 0.0868,-0.95673 0.13269,-0.082 0.30444,0.28143 0.38167,0.80764 0.16988,1.1575 -0.2502,1.29118 -0.46852,0.14909 z m -0.97967,-2.93868 c -0.46834,-0.1197 -0.53787,-0.34231 -0.36262,-1.16089 0.26446,-1.23524 0.17955,-1.14094 1.12184,-1.24589 0.56132,-0.0625 0.74446,0.0478 0.65273,0.3931 -0.0701,0.264 -0.14212,0.82802 -0.16,1.25338 -0.0346,0.82377 -0.32164,0.99807 -1.25195,0.7603 z m -1.98923,-4.17302 c 0.2597,-1.03472 0.11745,-0.89989 1.23182,-1.16755 l 0.90314,-0.21692 -0.90314,1.1319 c -1.08274,1.35698 -1.53214,1.44913 -1.23182,0.25257 z M 614.4,814.91424 c 0,-0.24517 -0.1879,-0.51787 -0.41756,-0.606 -0.22966,-0.0881 -0.60441,-0.78753 -0.83279,-1.55424 -0.22838,-0.7667 -0.63051,-1.79997 -0.89362,-2.29615 -0.61936,-1.16801 -0.31142,-1.48406 0.3952,-0.40561 0.29831,0.45527 0.81381,0.82776 1.14557,0.82776 0.42237,0 0.6032,0.22886 0.6032,0.76342 0,0.86572 0.7274,2.41505 1.29999,2.76893 0.2101,0.12985 0.28306,0.3962 0.16212,0.59187 -0.31538,0.5103 -1.46211,0.43972 -1.46211,-0.09 z m -0.7707,-10.01136 c -0.43052,-2.02869 -0.47466,-12.49459 -0.0593,-14.069 0.2272,-0.86129 0.4292,-2.51087 0.44888,-3.66572 0.0197,-1.15486 0.16524,-2.44813 0.32346,-2.87395 0.15823,-0.42582 0.31555,-1.81821 0.3496,-3.09421 0.0581,-2.17866 0.0201,-2.32 -0.62496,-2.32 -0.41774,0 -0.75243,0.25076 -0.85422,0.64 -0.092,0.352 -0.35513,0.64 -0.58462,0.64 -0.60471,0 -0.83575,-1.47069 -0.60417,-3.84589 0.11122,-1.14076 0.24937,-3.01011 0.307,-4.15411 0.23845,-4.73394 0.99268,-9.68348 1.53616,-10.08088 0.7271,-0.53167 0.67089,-1.11912 -0.10709,-1.11912 -0.367,0 -0.64,-0.21333 -0.64,-0.50011 0,-0.33497 0.23776,-0.46706 0.72,-0.4 0.70899,0.0986 0.72106,0.0414 0.78966,-3.73989 0.0939,-5.17389 0.0847,-5.04569 0.38583,-5.42525 0.14604,-0.18411 0.36621,-1.1671 0.48926,-2.18441 0.15728,-1.30037 0.4541,-2.09825 0.99948,-2.68673 1.0965,-1.18314 1.2304,-4.47332 0.20458,-5.02681 -0.74716,-0.40315 -2.94881,-2.71041 -2.94881,-3.09027 0,-0.50875 0.82353,-0.34599 1.68732,0.33347 0.8851,0.69622 2.45704,0.84764 3.01433,0.29035 0.25286,-0.25286 0.5547,-0.2399 1.09042,0.0468 1.12623,0.60274 2.39829,0.43429 3.59117,-0.47556 0.59244,-0.45188 1.22595,-0.8216 1.40778,-0.8216 0.18184,0 0.51494,-0.2221 0.74024,-0.49356 0.24358,-0.29351 0.52668,-0.3765 0.69842,-0.20476 0.3369,0.3369 -0.69826,4.53832 -1.11816,4.53832 -0.15106,0 -0.18724,0.2754 -0.0804,0.612 0.10684,0.3366 -0.17146,2.05469 -0.61843,3.81799 -0.44698,1.76329 -0.81268,3.56412 -0.81268,4.00183 0,1.74372 -0.6036,2.22991 -1.62303,1.30733 -0.35613,-0.32229 -0.62665,-0.38237 -0.75882,-0.16852 -0.11296,0.18277 0.0888,0.58416 0.44823,0.89196 0.83833,0.7178 0.82893,1.05741 -0.0293,1.05741 -1.07565,0 -3.15394,0.70628 -2.96723,1.00838 0.0929,0.15034 0.42927,0.13403 0.74745,-0.0363 0.74642,-0.39947 1.01899,-0.10834 0.78213,0.83539 -0.11982,0.47739 -0.0482,0.75249 0.19579,0.75249 0.21155,0 0.45996,-0.288 0.55201,-0.64 0.11106,-0.4247 0.43649,-0.64 0.96735,-0.64 0.71112,0 0.77627,0.0978 0.58651,0.88 -0.11741,0.484 -0.20169,1.348 -0.18728,1.92 0.0189,0.75057 -0.11618,1.04 -0.4854,1.04 -0.37721,0 -0.45839,0.18912 -0.30906,0.72 0.14287,0.50793 0.113,0.5907 -0.10143,0.281 -0.16717,-0.24145 -0.50061,-0.36999 -0.74096,-0.28563 -0.24036,0.0844 -0.8229,-0.1167 -1.29454,-0.44679 -0.82599,-0.57808 -1.50672,-0.34739 -1.06828,0.36202 0.10558,0.17083 -0.0132,0.71083 -0.26393,1.2 -0.25074,0.48917 -0.5578,2.05694 -0.68236,3.48393 -0.19324,2.21392 -0.15175,2.62319 0.28282,2.78995 0.76195,0.29239 0.61495,1.09153 -0.31258,1.69927 -0.61684,0.40417 -0.7762,0.72042 -0.63882,1.26776 0.10066,0.4011 0.026,0.82634 -0.16602,0.94499 -0.19198,0.11865 -0.2719,0.51076 -0.17761,0.87135 0.23136,0.88471 -0.26157,1.71899 -1.14725,1.94171 -0.66888,0.16819 -0.72817,0.36088 -0.72517,2.35681 0.002,1.19549 -0.1289,2.35973 -0.29044,2.58719 -0.18481,0.26023 -0.16077,0.5465 0.0648,0.77211 0.26473,0.26473 0.44332,0.13558 0.68252,-0.49356 0.43713,-1.14975 0.80495,-1.07197 1.21265,0.25641 0.26261,0.85568 0.23173,1.42135 -0.13538,2.48 -0.26158,0.75432 -0.51514,2.68588 -0.56347,4.29236 -0.0483,1.60649 -0.18854,3.08378 -0.31158,3.28287 -0.12305,0.19909 -0.14057,0.62395 -0.0389,0.94414 0.10163,0.32019 0.0292,3.3069 -0.16091,6.63714 -0.19012,3.33023 -0.38635,6.88534 -0.43606,7.90025 -0.10295,2.10198 -0.35679,2.61891 -0.63719,1.2976 z m 1.87672,-35.27752 c 0.0146,-2.48522 -0.41578,-3.23509 -1.11115,-1.93577 -0.27937,0.522 -0.27635,0.91086 0.0125,1.60815 0.31886,0.7698 0.29535,1.00527 -0.14425,1.44487 -0.41412,0.41412 -0.44448,0.62244 -0.14357,0.98502 0.20989,0.2529 0.60457,0.41688 0.87706,0.3644 0.39255,-0.0756 0.49836,-0.58791 0.50943,-2.46667 z m -0.3746,-6.11035 c -0.25723,-0.98361 -0.73142,-1.09635 -0.73142,-0.1739 0,0.49034 0.18056,0.81889 0.45004,0.81889 0.29366,0 0.39143,-0.22413 0.28138,-0.64499 z m 4.97997,-7.51973 c 0.24731,-0.24731 -0.34187,-0.79498 -0.85028,-0.79038 -0.81595,0.007 -1.45323,0.51479 -1.1872,0.94525 0.20455,0.33096 1.66247,0.22014 2.03748,-0.15487 z m 1.6176,-6.67791 c 0.28327,-0.34133 0.25562,-0.4855 -0.12082,-0.62996 -0.26849,-0.10303 -0.48817,-0.13162 -0.48817,-0.0635 0,0.0681 -0.0874,0.35156 -0.19424,0.62996 -0.23933,0.62368 0.30276,0.66657 0.80323,0.0635 z M 877.12,781.12 c 0,-0.176 0.144,-0.32 0.32,-0.32 0.176,0 0.32,0.144 0.32,0.32 0,0.176 -0.144,0.32 -0.32,0.32 -0.176,0 -0.32,-0.144 -0.32,-0.32 z m -4.8,-3.53889 c 0,-0.18638 0.144,-0.24988 0.32,-0.14111 0.176,0.10877 0.32,0.26127 0.32,0.33889 0,0.0776 -0.144,0.14111 -0.32,0.14111 -0.176,0 -0.32,-0.1525 -0.32,-0.33889 z m 3.23903,-0.41408 c -0.33985,-0.4095 -0.18486,-0.84703 0.30007,-0.84703 0.35882,0 0.62713,0.91838 0.32318,1.10623 -0.14837,0.0917 -0.42883,-0.0249 -0.62325,-0.2592 z M 615.04,775.84 c 0,-0.264 0.21148,-0.48 0.46996,-0.48 0.28627,0 0.39796,0.18761 0.28576,0.48 -0.10131,0.264 -0.31279,0.48 -0.46996,0.48 -0.15717,0 -0.28576,-0.216 -0.28576,-0.48 z m 256.24,-0.0692 c -0.92936,-0.14079 -1.13271,-0.67009 -0.50037,-1.30243 0.29284,-0.29284 0.51678,-0.25551 0.97954,0.16327 0.51792,0.46872 0.64029,0.47905 0.89547,0.0756 0.49493,-0.78248 0.34866,-1.17701 -0.67716,-1.82652 l -0.98252,-0.62208 0.97825,-0.0278 c 1.44314,-0.041 1.76539,-0.34731 1.11804,-1.06263 -0.30274,-0.33453 -0.74864,-0.60823 -0.99089,-0.60823 -0.24225,0 -0.52938,-0.252 -0.63809,-0.56 -0.1087,-0.308 -0.48532,-0.87978 -0.83692,-1.27062 -0.5286,-0.58758 -0.56869,-0.79568 -0.23157,-1.20189 0.3416,-0.4116 0.27138,-0.59852 -0.43303,-1.15261 -0.46241,-0.36373 -0.84075,-0.86688 -0.84075,-1.11811 0,-0.50102 -0.97259,-0.62065 -1.456,-0.17909 -0.1672,0.15273 -0.7697,0.36467 -1.33889,0.47098 -0.99419,0.18569 -1.06657,0.12635 -1.84,-1.50856 -0.44281,-0.93602 -0.80511,-1.91116 -0.80511,-2.16698 0,-0.25581 -0.1728,-0.63792 -0.384,-0.84912 -0.29867,-0.29867 -0.29867,-0.46933 0,-0.768 0.55192,-0.55192 0.47292,-0.85934 -0.17714,-0.68934 -0.72321,0.18912 -1.80238,-1.55337 -1.51765,-2.45048 0.13859,-0.43667 0.0554,-0.63618 -0.26541,-0.63618 -0.90741,0 -0.81804,-0.92098 0.18449,-1.90114 0.75832,-0.7414 0.9141,-1.07247 0.63566,-1.35091 -0.48731,-0.48731 -1.35595,0.2032 -1.35595,1.0779 0,1.17029 -0.79174,0.38371 -2.02228,-2.00911 -2.35465,-4.57868 -3.72276,-7.18358 -4.18942,-7.97674 -0.25888,-0.44 -1.42053,-2.58107 -2.58145,-4.75792 -2.03843,-3.82229 -2.0932,-3.98472 -1.59841,-4.73987 0.6002,-0.91603 1.31473,-0.82124 1.17345,0.15568 -0.0741,0.51224 0.16899,0.78999 0.99243,1.13405 1.13993,0.47629 2.3056,1.83526 2.51159,2.92806 0.0663,0.352 0.41154,0.68187 0.7671,0.73305 0.35555,0.0512 0.78608,0.35513 0.95673,0.67546 0.93264,1.75072 2.15217,3.2166 3.18108,3.82367 0.65641,0.3873 1.30346,1.09227 1.48776,1.62094 0.17938,0.51456 0.53208,1.01459 0.78378,1.11118 0.2517,0.0966 0.45764,0.52473 0.45764,0.95142 0,0.42669 0.216,0.85869 0.48,0.96 0.68278,0.26201 0.59442,0.80893 -0.24,1.48544 -0.86176,0.69868 -0.49076,1.26939 0.44521,0.68487 0.5527,-0.34517 0.75213,-0.32283 1.26544,0.14171 0.33514,0.3033 0.60935,0.83024 0.60935,1.17099 0,0.34074 0.48887,1.19066 1.08637,1.88871 1.73851,2.03106 2.10637,5.78094 0.57763,5.88829 -0.77745,0.0546 -1.664,0.57947 -1.664,0.98515 0,0.35615 0.30433,0.45247 1.19562,0.37844 1.03159,-0.0857 1.19622,-0.20829 1.2,-0.8936 0.007,-1.26078 1.01659,-1.22497 1.29573,0.046 0.12652,0.57602 0.38813,1.30047 0.58136,1.60988 0.2792,0.44708 0.22158,0.66148 -0.28069,1.04442 -0.53742,0.40973 -0.56178,0.52793 -0.16275,0.78963 0.30649,0.20102 0.61174,0.18954 0.88,-0.0331 0.55047,-0.45685 1.56166,0.31456 1.06429,0.81193 -0.39177,0.39177 -0.44887,1.48556 -0.0776,1.48556 0.1408,0 0.44739,-0.18 0.68131,-0.4 0.34956,-0.32875 0.38913,-0.24627 0.22216,0.46307 -0.13069,0.55518 -0.0542,0.95472 0.2143,1.12 0.47402,0.29173 2.14092,3.60701 2.15641,4.28882 0.006,0.24646 0.22159,0.72763 0.48,1.06927 0.2584,0.34164 0.45021,0.98964 0.42624,1.44 -0.0401,0.75298 -0.0547,0.76093 -0.18225,0.0988 -0.0763,-0.396 -0.3396,-0.72 -0.58517,-0.72 -0.46071,0 -1.32858,1.27202 -0.88026,1.29018 0.13819,0.006 -0.0283,0.22159 -0.3699,0.48 -0.34164,0.2584 -0.70164,0.44824 -0.8,0.42187 -0.0984,-0.0264 -0.57484,-0.10793 -1.05884,-0.18125 z m -2.96,-11.95747 c 0,-0.24933 -0.31719,-0.49845 -0.70487,-0.5536 -0.38768,-0.0552 -0.79338,-0.37915 -0.90156,-0.72 -0.20739,-0.65341 -0.79357,-0.85974 -0.79357,-0.27932 0,0.48993 1.70009,2.20344 2.08,2.09641 0.176,-0.0496 0.32,-0.29415 0.32,-0.54349 z M 865.6,759.2 c 0,-0.264 -0.1355,-0.48 -0.30111,-0.48 -0.40352,0 -0.69251,0.49971 -0.43686,0.75537 0.36038,0.36038 0.73797,0.21948 0.73797,-0.27537 z m 0.96,-2.08 c 0,-0.352 -0.144,-0.64 -0.32,-0.64 -0.176,0 -0.32,0.288 -0.32,0.64 0,0.352 0.144,0.64 0.32,0.64 0.176,0 0.32,-0.288 0.32,-0.64 z m -2.88,-4.48 c 0,-0.176 -0.144,-0.32 -0.32,-0.32 -0.176,0 -0.32,0.144 -0.32,0.32 0,0.176 0.144,0.32 0.32,0.32 0.176,0 0.32,-0.144 0.32,-0.32 z m 4.05972,18.49028 c -0.29685,-0.65435 -0.53972,-1.25611 -0.53972,-1.33725 0,-0.0812 0.50335,-0.12177 1.11857,-0.0903 1.16215,0.0595 1.4531,0.3415 0.66451,0.64411 -0.25131,0.0964 -0.51244,0.57985 -0.58028,1.07424 l -0.12337,0.8989 z M 869.28,771.52 c 0.10877,-0.176 0.26127,-0.32 0.33889,-0.32 0.0776,0 0.14111,0.144 0.14111,0.32 0,0.176 -0.1525,0.32 -0.33889,0.32 -0.18638,0 -0.24988,-0.144 -0.14111,-0.32 z m -249.92,-1.28 c 0.10877,-0.176 0.34177,-0.32 0.51777,-0.32 0.176,0 0.231,0.144 0.12223,0.32 -0.10877,0.176 -0.34177,0.32 -0.51777,0.32 -0.176,0 -0.231,-0.144 -0.12223,-0.32 z m 247.34277,-1.62788 c -0.32977,-0.53358 0.4119,-1.14545 0.85335,-0.704 0.36925,0.36925 0.13815,1.05188 -0.35612,1.05188 -0.15523,0 -0.37898,-0.15655 -0.49723,-0.34788 z m 1.51029,-0.76643 c -1.39309,-0.7676 -1.46661,-1.04019 -0.42572,-1.57846 1.27628,-0.65999 1.33266,-0.6484 1.33266,0.27388 0,0.42962 0.144,0.87012 0.32,0.97889 0.45258,0.27971 0.39779,0.8061 -0.08,0.76862 -0.22,-0.0172 -0.73612,-0.21657 -1.14694,-0.44293 z M 618.8532,765.84951 c -0.27027,-0.71085 -0.22825,-0.94559 0.22908,-1.28 0.83422,-0.60999 0.92546,-0.52743 0.96212,0.87049 0.0399,1.52066 -0.67527,1.76651 -1.1912,0.40951 z M 865.76,766.4 c -0.10877,-0.176 -0.0453,-0.32 0.14111,-0.32 0.18639,0 0.33889,0.144 0.33889,0.32 0,0.176 -0.0635,0.32 -0.14111,0.32 -0.0776,0 -0.23012,-0.144 -0.33889,-0.32 z m -244.90947,-3.84 c 0,-0.44 0.0726,-0.62 0.1614,-0.4 0.0888,0.22 0.0888,0.58 0,0.8 -0.0888,0.22 -0.1614,0.04 -0.1614,-0.4 z M 619.2,761.78667 c 0,-0.24934 -0.18,-0.51762 -0.4,-0.59619 -0.22,-0.0786 -0.29051,-0.26006 -0.15669,-0.40331 0.13381,-0.14325 0.45324,0.017 0.70982,0.35619 0.55187,0.72946 0.60774,1.09664 0.16687,1.09664 -0.176,0 -0.32,-0.204 -0.32,-0.45333 z m -28.48,-1.16556 c 0,-0.18638 0.144,-0.24988 0.32,-0.14111 0.176,0.10877 0.32,0.26127 0.32,0.33889 0,0.0776 -0.144,0.14111 -0.32,0.14111 -0.176,0 -0.32,-0.1525 -0.32,-0.33889 z m 28.48,-0.64 c 0,-0.18638 0.144,-0.24988 0.32,-0.14111 0.176,0.10877 0.32,0.26127 0.32,0.33889 0,0.0776 -0.144,0.14111 -0.32,0.14111 -0.176,0 -0.32,-0.1525 -0.32,-0.33889 z M 596.32,759.04 c -0.10877,-0.176 0.0267,-0.32 0.30111,-0.32 0.27439,0 0.49889,0.144 0.49889,0.32 0,0.176 -0.1355,0.32 -0.30111,0.32 -0.16562,0 -0.39012,-0.144 -0.49889,-0.32 z m 10.72,-5.90111 c 0,-0.27439 0.144,-0.49889 0.32,-0.49889 0.176,0 0.32,0.1355 0.32,0.30111 0,0.16562 -0.144,0.39012 -0.32,0.49889 -0.176,0.10877 -0.32,-0.0267 -0.32,-0.30111 z m -3.9356,-0.38116 C 602.72623,752.37956 602.85427,752 603.36,752 c 0.264,0 0.48,-0.216 0.48,-0.48 0,-0.264 0.15356,-0.48 0.34126,-0.48 0.53472,0 0.19814,1.74329 -0.35686,1.84833 -0.27259,0.0516 -0.59659,-0.007 -0.72,-0.1306 z m -14.12333,-0.40363 c -0.23381,-0.37833 0.11737,-1.3141 0.49317,-1.3141 0.37872,0 0.36859,1.19104 -0.0121,1.42633 -0.16384,0.10126 -0.3803,0.0508 -0.48104,-0.11223 z m 5.72009,-1.4892 c 0.34164,-0.25569 0.89705,-0.4649 1.23424,-0.4649 0.44123,0 0.55559,-0.1498 0.408,-0.53442 -0.22408,-0.58393 0.29623,-1.05298 1.1766,-1.06068 0.61944,-0.005 0.78562,1.09789 0.21818,1.44858 -0.18799,0.11619 -0.27413,0.38762 -0.19142,0.60318 0.1067,0.27805 -0.37505,0.40372 -1.65818,0.43253 -1.64898,0.037 -1.75377,-4.1e-4 -1.18742,-0.42429 z M 602.4,750.4 c -0.10877,-0.176 0.0352,-0.32 0.32,-0.32 0.28477,0 0.42877,0.144 0.32,0.32 -0.10877,0.176 -0.25277,0.32 -0.32,0.32 -0.0672,0 -0.21123,-0.144 -0.32,-0.32 z m -1.75717,-0.73275 c -0.88822,-0.4494 -1.12068,-1.10434 -0.64852,-1.82725 0.27605,-0.42266 0.43045,-0.414 1.29251,0.0725 0.84505,0.47692 1.00381,0.48787 1.16033,0.08 0.23704,-0.61772 1.07285,-0.6119 1.07285,0.007 0,0.264 -0.21956,0.48 -0.48792,0.48 -0.26836,0 -0.62479,0.36 -0.79208,0.8 -0.34634,0.91094 -0.49219,0.9463 -1.59717,0.38725 z m 6.30732,-0.76596 c -0.24594,-0.41744 0.1326,-2.34129 0.46067,-2.34129 0.1698,0 0.20477,0.51666 0.0812,1.2 -0.24422,1.35083 -0.32197,1.51459 -0.5419,1.14129 z m 3.82318,0.005 c -0.3682,-0.36821 -0.23303,-0.74667 0.26667,-0.74667 0.72454,0 0.577,-0.50284 -0.32,-1.09057 -0.93193,-0.61062 -1.01047,-1.08497 -0.26939,-1.62686 0.49053,-0.35869 0.48449,-0.45029 -0.08,-1.21291 -0.33584,-0.4537 -0.83966,-0.8875 -1.11962,-0.96399 -0.28125,-0.0769 -0.75776,-0.91016 -1.06496,-1.86238 -0.30578,-0.94781 -0.83273,-2.19952 -1.171,-2.78158 -0.33827,-0.58206 -0.61503,-1.34521 -0.61503,-1.69589 0,-0.59144 0.1448,-0.62223 2,-0.42528 1.16014,0.12317 2.2317,0.43247 2.55177,0.73655 0.64652,0.61425 2.20905,4.85812 2.34272,6.36291 0.0813,0.91531 -0.002,1.04 -0.6911,1.04 -0.97173,0 -1.32368,0.80115 -0.67298,1.53192 0.43792,0.49179 0.43417,0.67132 -0.0365,1.74808 -0.527,1.20571 -0.72618,1.38109 -1.12061,0.98667 z m 0.92551,-6.36623 c -0.94141,-0.69783 -1.14029,-0.5601 -0.76126,0.52719 0.31899,0.91504 0.38245,0.94889 0.86336,0.46045 0.47906,-0.48657 0.47119,-0.56268 -0.1021,-0.98764 z M 610.24,740.864 c 0,-0.33249 -0.69334,-1.024 -1.02671,-1.024 -0.14229,0 -0.0788,0.288 0.14097,0.64 0.40377,0.64654 0.88574,0.85549 0.88574,0.384 z m -16.16,6.976 c 0.10877,-0.176 0.26127,-0.32 0.33889,-0.32 0.0776,0 0.14111,0.144 0.14111,0.32 0,0.176 -0.1525,0.32 -0.33889,0.32 -0.18638,0 -0.24988,-0.144 -0.14111,-0.32 z m 19.75985,-0.08 c 0.0733,-0.22 0.40467,-0.45261 0.73648,-0.51691 0.52195,-0.10114 0.54545,-0.0472 0.1743,0.4 -0.50758,0.6116 -1.10085,0.68775 -0.91078,0.11691 z m -24.03041,-0.73663 c 0.0608,-0.31368 0.30431,-0.63485 0.54112,-0.71371 0.2754,-0.0917 0.39072,0.0622 0.32,0.42697 -0.0608,0.31368 -0.30431,0.63485 -0.54112,0.71371 -0.2754,0.0917 -0.39072,-0.0622 -0.32,-0.42697 z m 11.79056,0.0123 c 0,-0.0904 0.17361,-0.44233 0.3858,-0.7821 0.31863,-0.51021 0.27906,-0.73569 -0.22728,-1.2952 -0.52346,-0.57841 -0.54477,-0.72064 -0.1458,-0.973 0.7182,-0.45427 0.86211,-0.38212 1.40384,0.7038 0.6191,1.24101 0.62439,1.47561 0.0463,2.0537 -0.43516,0.43515 -1.46286,0.64085 -1.46286,0.2928 z m -3.97703,-0.7585 c -0.39129,-0.63312 -3.08235,-1.60437 -4.79302,-1.72989 -2.03086,-0.14901 -2.64346,-0.52989 -2.26102,-1.40576 0.13965,-0.31983 0.2856,-0.97133 0.32435,-1.44778 0.11897,-1.46292 0.4617,-2.49373 0.82914,-2.49373 0.21289,0 0.29054,0.40663 0.19802,1.03699 -0.10432,0.71076 0.006,1.15287 0.3516,1.40537 0.42993,0.31436 0.43952,0.44584 0.0654,0.89657 -0.3252,0.39185 -0.34525,0.6213 -0.0777,0.88888 0.26757,0.26757 0.43206,0.16773 0.63719,-0.38681 0.2725,-0.73661 0.28544,-0.73856 0.88976,-0.13424 0.41242,0.41242 0.95388,0.5804 1.65345,0.51295 0.88478,-0.0853 1.09058,0.0322 1.37735,0.78647 l 0.33714,0.88676 0.41527,-0.78647 c 0.34733,-0.65781 0.33985,-0.84798 -0.0457,-1.16248 -0.38047,-0.31035 -0.30234,-0.39417 0.44739,-0.48 0.72701,-0.0832 0.92895,-0.28365 1.01153,-1.00394 0.0568,-0.49497 0.47245,-1.43097 0.92377,-2.08 0.59178,-0.85101 0.77213,-0.97929 0.64678,-0.46005 -0.0956,0.396 -0.0537,0.72 0.093,0.72 0.53786,0 1.59327,-1.71187 1.59327,-2.58427 0,-1.02744 0.57738,-1.55082 0.98924,-0.89673 0.15272,0.24255 0.27262,1.017 0.26643,1.721 -0.006,0.704 0.0779,2.12432 0.18686,3.15627 0.2902,2.74855 0.0503,3.07649 -1.22905,1.6798 -1.17651,-1.28445 -1.97665,-1.53429 -1.65356,-0.51632 0.15396,0.48509 0.012,0.7124 -0.58735,0.94026 -0.98263,0.3736 -1.38113,0.97332 -0.86053,1.29507 0.31196,0.1928 0.31172,0.39734 -10e-4,0.9819 -0.36105,0.67462 -0.42911,0.69194 -0.78832,0.20069 -0.54745,-0.74868 -0.89824,-0.6743 -0.4826,0.10233 0.336,0.62781 -0.086,0.95756 -0.45703,0.35716 z M 612.8,746.40822 c 0,-0.0835 0.42383,-0.37095 0.94184,-0.63883 0.98682,-0.5103 1.82769,-0.0613 0.93916,0.50149 -0.46394,0.29385 -1.881,0.39731 -1.881,0.13734 z M 590.4,745.44 c -0.33765,-0.40684 -0.26449,-0.48 0.48,-0.48 0.74449,0 0.81765,0.0732 0.48,0.48 -0.2191,0.264 -0.4351,0.48 -0.48,0.48 -0.0449,0 -0.2609,-0.216 -0.48,-0.48 z m 16.17384,-0.88 c -0.0693,-0.22 -0.22303,-1.12 -0.34153,-2 -0.11851,-0.88 -0.32552,-1.816 -0.46002,-2.08 -0.1345,-0.264 -0.33733,-1.08788 -0.45074,-1.83085 -0.17151,-1.12368 -0.12508,-1.31972 0.27613,-1.16576 0.31691,0.12161 0.48232,0.61777 0.48232,1.44674 0,0.69391 0.20866,1.66515 0.46369,2.15832 0.25502,0.49317 0.46329,1.17002 0.46281,1.50411 -4.8e-4,0.33409 0.0957,1.00344 0.21362,1.48744 0.21462,0.88055 -0.38068,1.3227 -0.64628,0.48 z M 593.92,739.36946 c 0,-0.28558 -0.43109,-0.76453 -0.95798,-1.06434 -1.07038,-0.60908 -1.12305,-0.83925 -0.58587,-2.56042 l 0.37615,-1.20523 1.86348,0.0103 1.86349,0.0103 3.6e-4,0.99225 c 5.5e-4,1.48913 -0.57354,2.76119 -1.62116,3.59209 -0.77321,0.61326 -0.93847,0.6529 -0.93847,0.22512 z m 349.50012,-5.28692 c -20.12077,-1.08006 -38.79763,-4.86828 -57.38289,-11.63893 -7.01292,-2.55483 -17.87723,-7.30891 -17.87723,-7.82285 0,-0.14553 0.21825,-0.99951 0.48499,-1.89774 l 0.48499,-1.63315 1.99501,-0.17784 c 1.09726,-0.0978 4.22701,-0.33226 6.95501,-0.52098 17.62772,-1.21951 37.53356,-4.03468 58.75615,-8.30955 5.86229,-1.18084 6.38907,-1.23934 6.68385,-0.74231 0.176,0.29676 0.61631,0.83684 0.97847,1.20019 0.36215,0.36334 0.99458,1.21466 1.40538,1.89182 l 0.74691,1.2312 1.79462,-0.21688 c 0.98704,-0.11928 4.38658,-0.78114 7.55453,-1.47078 3.16796,-0.68964 6.44063,-1.3442 7.27262,-1.45457 1.39354,-0.18485 1.53597,-0.13948 1.80798,0.57597 0.37469,0.98551 2.09793,3.58168 3.42319,5.15726 0.56135,0.66736 1.19677,1.81936 1.41206,2.56 0.21529,0.74063 1.42031,3.3626 2.67784,5.8266 l 2.2864,4.48 2.24,-0.095 c 2.99879,-0.12719 11.61621,-1.46877 17.04203,-2.65313 18.84757,-4.11412 42.28877,-12.8934 59.35547,-22.23004 15.0353,-8.22528 28.1252,-17.38606 45.2025,-31.63416 17.5793,-14.66695 32.183,-29.42993 45.1354,-45.62766 8.533,-10.67105 22.1431,-29.12212 28.5346,-38.68425 7.5271,-11.26102 16.73,-27.01513 16.73,-28.6394 0,-0.51491 -0.1889,-0.84965 -1.8755,-3.32321 -0.3926,-0.57577 -0.6312,-1.18054 -0.5302,-1.34394 0.101,-0.1634 -0.1084,-0.45338 -0.4653,-0.6444 -0.357,-0.19103 -0.649,-0.64546 -0.649,-1.00986 0,-0.36441 -0.36,-1.09039 -0.8,-1.6133 -0.44,-0.52291 -0.8,-1.20828 -0.8,-1.52304 0,-0.31476 -0.288,-0.93842 -0.64,-1.38592 -0.352,-0.44749 -0.64,-1.09951 -0.64,-1.44892 0,-0.34941 -0.1879,-0.70739 -0.4175,-0.79551 -0.2297,-0.0881 -0.8317,-1.14753 -1.3378,-2.35424 -0.5061,-1.2067 -1.4702,-3.03219 -2.1425,-4.05664 -0.6722,-1.02444 -1.2222,-1.97413 -1.2222,-2.1104 0,-0.13628 -0.288,-0.50841 -0.64,-0.82697 -0.352,-0.31856 -0.64,-0.82278 -0.64,-1.12051 0,-0.29772 -0.504,-1.06027 -1.12,-1.69454 -0.616,-0.63428 -1.1305,-1.48437 -1.1434,-1.88909 -0.013,-0.40472 -0.3025,-1.16786 -0.6437,-1.69586 -0.3412,-0.528 -0.7075,-1.212 -0.814,-1.52 -0.1064,-0.308 -0.3188,-0.56 -0.4719,-0.56 -0.1531,0 -0.4975,-0.468 -0.7652,-1.04 -0.4265,-0.91106 -1.5439,-2.63578 -2.3324,-3.6 -0.1439,-0.176 -0.3579,-0.572 -0.4755,-0.88 -0.1799,-0.47128 -0.025,-0.55999 0.9761,-0.55995 0.6545,4e-5 2.3187,0.21604 3.6981,0.48 3.8047,0.72803 3.8019,0.72868 3.0844,-0.72005 -0.3269,-0.66 -0.9036,-1.992 -1.2817,-2.96 -0.378,-0.968 -0.7563,-1.92505 -0.8406,-2.12678 -0.4069,-0.97415 12.0768,3.40931 20.2731,7.11854 7.6252,3.45083 19.6192,10.06311 19.6145,10.81353 0,0.58442 -7.3276,15.26784 -10.8711,21.79471 -10.7518,19.80445 -20.1524,34.63257 -34.0833,53.76163 -16.4036,22.52455 -24.4175,32.12724 -38.8669,46.5728 -9.7747,9.77215 -16.4989,15.80248 -27.8565,24.98224 -29.3994,23.76198 -47.2029,34.42533 -75.68,45.32827 -18.4044,7.04643 -33.7942,11.014 -51.0476,13.16032 -10.30676,1.28215 -23.14124,1.80635 -32.25228,1.31728 z M 474.24,733.85362 c -20.96754,-0.63089 -43.4365,-5.22304 -64.91739,-13.26766 -10.20278,-3.82095 -19.81093,-8.01333 -20.34481,-8.87716 -0.1044,-0.16892 0.20253,-2.26051 0.68206,-4.64796 0.73731,-3.67087 0.96204,-4.34084 1.45607,-4.34084 0.3213,0 2.41566,0.70556 4.65413,1.5679 10.06035,3.87564 26.24737,9.47954 32.47541,11.24289 11.52343,3.26264 22.27615,5.25692 31.9525,5.92614 4.06551,0.28117 4.44203,0.14832 4.44203,-1.56729 0,-0.74098 0.23283,-1.67965 0.51741,-2.08594 0.33846,-0.48322 0.45822,-1.1034 0.34628,-1.79323 -0.10225,-0.63006 0.0211,-1.42404 0.30643,-1.9725 0.26265,-0.50488 0.53927,-1.42197 0.6147,-2.03797 0.0754,-0.616 0.34398,-1.984 0.59677,-3.04 0.2528,-1.056 0.55215,-2.784 0.66523,-3.84 0.29848,-2.78732 0.40877,-3.04 1.3269,-3.04 0.44582,0 2.60906,0.30385 4.8072,0.67523 2.20342,0.37227 4.10745,0.55174 4.24364,0.4 0.47709,-0.53159 0.95083,-3.11931 0.63969,-3.49421 -0.20028,-0.24132 -0.086,-0.55932 0.33927,-0.94421 0.62243,-0.56328 0.86913,-0.52687 8.39887,1.23985 11.87082,2.78526 19.3546,4.24519 31.27761,6.10161 11.11136,1.73004 28.46073,3.64709 37.76,4.17235 7.21717,0.40765 6.77953,0.2303 7.19575,2.91613 l 0.20251,1.30674 -5.54217,2.59442 c -17.55618,8.21848 -37.93212,13.70832 -59.04571,15.90857 -4.69394,0.48915 -17.78077,1.13359 -20.89038,1.02871 -0.968,-0.0326 -2.84,-0.0919 -4.16,-0.13157 z m 133.38,-2.23222 c 0.231,-0.0924 0.507,-0.0811 0.61333,0.0253 0.10634,0.10633 -0.0827,0.18196 -0.42,0.16807 -0.37278,-0.0154 -0.4486,-0.0912 -0.19333,-0.19334 z M 809.76,712.32 c 0.10877,-0.176 0.33327,-0.32 0.49889,-0.32 0.16561,0 0.30111,0.144 0.30111,0.32 0,0.176 -0.2245,0.32 -0.49889,0.32 -0.27438,0 -0.40988,-0.144 -0.30111,-0.32 z m 66.14133,-21.464 c 0.0631,-0.1892 0.25147,-0.344 0.41867,-0.344 0.1672,0 0.3556,0.1548 0.41867,0.344 0.0631,0.1892 -0.12534,0.344 -0.41867,0.344 -0.29333,0 -0.48173,-0.1548 -0.41867,-0.344 z M 877.76,690.56 c 0,-0.176 0.1525,-0.32 0.33889,-0.32 0.18638,0 0.24988,0.144 0.14111,0.32 -0.10877,0.176 -0.26127,0.32 -0.33889,0.32 -0.0776,0 -0.14111,-0.144 -0.14111,-0.32 z m 6.11876,-2.93624 c -0.33731,-0.90182 0.1479,-1.31764 1.0033,-0.85984 0.71852,0.38454 0.611,1.34628 -0.16726,1.49616 -0.34985,0.0674 -0.66157,-0.16988 -0.83604,-0.63632 z m -98.07802,-1.818 c -0.0631,-0.11317 -0.586,-1.64576 -1.16205,-3.40576 -5.89777,-18.01971 -15.34531,-39.72526 -24.79237,-56.96 -6.80987,-12.4236 -15.24847,-25.77103 -24.17284,-38.23442 -1.82516,-2.54894 -3.29929,-4.88894 -3.27586,-5.2 0.0234,-0.31107 -0.077,-0.56558 -0.22327,-0.56558 -0.51057,0 -0.66622,-1.05672 -0.23071,-1.56628 0.72284,-0.84572 0.84694,-1.56317 0.34278,-1.98159 -0.26155,-0.21707 -0.39451,-0.60585 -0.29546,-0.86396 0.099,-0.25811 0.0137,-0.66974 -0.1896,-0.91473 -0.28668,-0.34543 -0.23689,-0.59219 0.22175,-1.09898 0.50617,-0.5593 0.52407,-0.69545 0.12417,-0.94423 -0.37244,-0.2317 -0.39085,-0.41409 -0.0907,-0.89864 0.41183,-0.66483 -0.046,-3.25159 -0.57551,-3.25159 -0.1546,0 -0.27559,-0.612 -0.26888,-1.36 l 0.0122,-1.36 1.57014,1.68312 c 3.91983,4.20186 13.45629,16.49346 20.57976,26.52537 3.39467,4.78069 6.16568,8.16497 5.78947,7.07079 -0.28433,-0.82693 0.13669,-2.15928 0.68233,-2.15928 0.26064,0 0.4739,-0.144 0.4739,-0.32 0,-0.176 0.252,-0.33137 0.56,-0.34526 0.33454,-0.0151 0.39896,-0.0902 0.16,-0.18667 -0.47271,-0.19074 -0.54621,-2.34807 -0.08,-2.34807 0.176,0 0.324,-0.324 0.32889,-0.72 0.005,-0.396 0.44137,-1.14448 0.96995,-1.66329 0.52859,-0.5188 0.8943,-1.11727 0.81269,-1.32993 -0.0816,-0.21266 0.12992,-0.6385 0.47005,-0.94631 0.34013,-0.30781 0.61842,-0.88243 0.61842,-1.27692 0,-0.41618 0.46038,-1.12147 1.09681,-1.68026 0.60324,-0.52966 1.01953,-1.04028 0.92509,-1.13473 -0.0945,-0.0944 0.14999,-0.62351 0.54318,-1.1757 0.58142,-0.81653 0.67871,-1.26808 0.52103,-2.41842 -0.15076,-1.09994 -0.0928,-1.41444 0.26084,-1.41444 0.30179,0 0.42824,-0.29594 0.37601,-0.88 -0.0452,-0.5056 0.21943,-1.28844 0.62203,-1.84 1.15012,-1.57567 1.50697,-3.5129 0.96002,-5.21173 -0.28703,-0.89151 -3.39648,-5.81852 -6.40628,-10.15091 -5.68809,-8.18759 -14.22733,-18.91472 -23.52499,-29.55246 -3.43956,-3.9353 -6.38009,-7.37531 -6.53452,-7.64445 -0.18943,-0.33015 -0.1253,-0.57638 0.19711,-0.7568 0.26284,-0.1471 0.77598,-0.95509 1.14032,-1.79555 0.36433,-0.84045 0.97865,-1.79497 1.36514,-2.12115 0.70228,-0.59268 0.70517,-0.59061 4.69001,3.36 6.7708,6.71266 15.06696,15.93919 21.24997,23.63305 22.59694,28.1186 40.19129,58.74375 52.67077,91.68 4.14208,10.9319 11.06423,32.8099 10.5452,33.32893 -0.24704,0.24703 -9.05754,2.98377 -15.41774,4.78909 -8.87379,2.5188 -23.43555,5.97316 -23.63926,5.60774 z M 733.12,580.33889 c 0,-0.0776 -0.144,-0.23012 -0.32,-0.33889 -0.176,-0.10877 -0.32,-0.0453 -0.32,0.14111 0,0.18639 0.144,0.33889 0.32,0.33889 0.176,0 0.32,-0.0635 0.32,-0.14111 z m 156.13775,104.9648 c 0.42931,-0.45698 0.62959,-0.93765 0.48689,-1.16855 -0.41172,-0.66617 0.74677,-1.27267 1.64726,-0.86238 0.81323,0.37053 1.05599,1.20724 0.35027,1.20724 -0.22981,0 -0.90578,0.36 -1.50217,0.8 -1.38195,1.01957 -1.93026,1.03279 -0.98225,0.0237 z m -1.25285,-0.4048 c -0.003,-0.38562 0.1391,-0.79012 0.3151,-0.89889 0.40742,-0.2518 0.40742,0.48956 0,1.12 -0.25219,0.39023 -0.31112,0.34888 -0.3151,-0.22111 z m 5.1151,-1.48929 c 0,-0.29128 0.22335,-0.5296 0.49633,-0.5296 0.27298,0 0.70934,-0.50981 0.96968,-1.1329 0.53114,-1.27119 1.1706,-1.19626 0.99501,0.11659 -0.0717,0.53644 -0.34361,0.89853 -0.72777,0.96935 -0.33729,0.0622 -0.86525,0.33648 -1.17325,0.60959 -0.50778,0.45026 -0.56,0.44718 -0.56,-0.033 z m 4.74474,-2.77152 c -0.4955,-0.54488 -0.49613,-0.60361 -0.008,-0.79075 0.56,-0.2149 1.45101,0.68016 1.15456,1.15981 -0.24335,0.39376 -0.53898,0.29857 -1.14612,-0.36906 z M 902.24,679.04 c -0.11413,-0.18467 0.18237,-0.31793 0.70111,-0.3151 0.69796,0.004 0.79159,0.0742 0.41889,0.3151 -0.61481,0.39732 -0.87444,0.39732 -1.12,0 z m 4.96,-2.7696 c 0,-0.82594 0.0176,-0.83366 0.63245,-0.27723 0.67141,0.60761 0.59246,1.12683 -0.17134,1.12683 -0.2857,0 -0.46111,-0.3232 -0.46111,-0.8496 z m 6.08,-2.68018 c 0,-0.6411 0.66682,-1.61142 0.97606,-1.4203 0.51416,0.31778 0.33749,1.06961 -0.33606,1.43008 -0.45986,0.24611 -0.64,0.24336 -0.64,-0.01 z M 916,671.68 c -0.52173,-0.2242 -0.54,-0.27917 -0.0989,-0.29751 0.29762,-0.0124 0.63012,0.12151 0.73889,0.29751 0.22741,0.36796 0.21629,0.36796 -0.64,0 z m 0.97689,-1.89267 c -0.10303,-0.16671 -0.0509,-0.38741 0.11578,-0.49044 0.16671,-0.10303 0.38741,-0.0509 0.49044,0.11578 0.10303,0.16671 0.0509,0.38741 -0.11578,0.49044 -0.16671,0.10303 -0.38741,0.0509 -0.49044,-0.11578 z m 1.50311,0.0807 c -0.54221,-0.21879 -0.50656,-0.9587 0.0566,-1.17481 0.54479,-0.20906 1.28587,0.57734 0.99206,1.05272 -0.22019,0.35628 -0.41273,0.37869 -1.04866,0.12209 z m 1.56196,-1.49751 c -0.39157,-0.47182 -0.17277,-0.85056 0.49137,-0.85056 0.23467,0 0.42667,0.288 0.42667,0.64 0,0.73835 -0.40325,0.83084 -0.91804,0.21056 z m 1.74367,0.15092 c -0.0982,-0.15893 0.0358,-0.46691 0.29789,-0.6844 0.38742,-0.32153 0.47648,-0.30193 0.47648,0.10485 0,0.59741 -0.52192,0.98802 -0.77437,0.57955 z M 630.08,666.91394 c 0,-0.1781 0.13588,-0.6546 0.30197,-1.05888 0.16608,-0.40428 0.83072,-2.46306 1.47699,-4.57506 1.17149,-3.82846 4.17941,-12.32468 4.95829,-14.00527 l 0.41028,-0.88527 0.71905,0.67551 0.71904,0.6755 0.46872,-0.75023 c 0.25779,-0.41263 0.99138,-1.58314 1.63018,-2.60114 0.63881,-1.01799 2.02523,-3.57399 3.08094,-5.68 1.84448,-3.67949 2.2711,-4.22661 2.72414,-3.49356 0.13934,0.22545 0.37183,0.1992 0.70863,-0.08 0.44334,-0.36752 6.99765,-8.17804 13.36953,-15.93194 1.22773,-1.49401 5.69497,-6.75001 9.92719,-11.68 4.23222,-4.92998 10.34413,-12.1316 13.58202,-16.0036 3.23788,-3.872 7.46689,-8.87781 9.39778,-11.12403 l 3.51071,-4.08402 1.62727,0.2008 c 1.83049,0.22587 3.06727,0.86468 3.06727,1.58426 0,0.26523 -1.19251,1.80992 -2.65003,3.43262 -19.85057,22.10034 -44.34564,52.40687 -63.22182,78.22122 -5.05036,6.90668 -5.80815,7.84125 -5.80815,7.16309 z m 293.65333,-0.40727 c -0.32266,-0.352 -0.53866,-0.67085 -0.48,-0.70854 0.0587,-0.0377 0.52562,-0.24907 1.03766,-0.46971 0.75433,-0.32504 0.98112,-0.32215 1.1951,0.0152 0.42782,0.67446 0.31532,1.17169 -0.34505,1.52511 -0.75425,0.40366 -0.69083,0.41997 -1.40771,-0.36207 z M 926.34,664.7414 c 0.231,-0.0924 0.507,-0.0811 0.61333,0.0253 0.10634,0.10633 -0.0827,0.18196 -0.42,0.16807 -0.37278,-0.0154 -0.4486,-0.0912 -0.19333,-0.19334 z m 2.3,-0.8949 c 0,-0.25943 2.6113,-1.50186 2.7871,-1.32607 0.20663,0.20664 -1.8442,1.47675 -2.3871,1.47837 -0.22,6.6e-4 -0.4,-0.0679 -0.4,-0.1523 z m 3.2,-1.9265 c 0,-0.33029 0.32437,-0.47683 1.04,-0.46982 0.98374,0.01 1.0064,0.0356 0.41884,0.48 -0.79996,0.60505 -1.45884,0.60046 -1.45884,-0.0102 z m 2.8,-1.36043 c -0.66739,-0.15076 -0.71689,-0.511 -0.13639,-0.99277 0.30778,-0.25544 0.5198,-0.25539 0.77535,1.6e-4 0.25564,0.25564 0.62576,0.1566 1.35481,-0.36252 0.98129,-0.69874 1.56201,-0.70955 1.13656,-0.0212 -0.34443,0.55731 -2.52049,1.51404 -3.13033,1.37629 z m 5.08748,-3.20274 c -0.26163,-0.42333 0.67428,-2.25244 1.33288,-2.60491 0.48118,-0.25752 0.72638,-0.22528 1.02522,0.1348 0.24041,0.28968 0.26357,0.47328 0.0597,0.47328 -0.18319,0 -0.64457,0.504 -1.02528,1.12 -0.67932,1.09916 -1.09381,1.36015 -1.39252,0.87683 z m 3.42475,-2.0126 c -0.23436,-0.23436 -0.18121,-0.66612 0.176,-1.42958 0.3936,-0.84123 0.71061,-1.09621 1.37288,-1.10423 0.47362,-0.006 0.95139,-0.15648 1.06172,-0.33499 0.36907,-0.59717 2.77273,-1.64258 3.30611,-1.43791 0.45042,0.17285 0.41108,0.29116 -0.27103,0.81522 -0.43885,0.33717 -0.99715,0.61623 -1.24067,0.62014 -0.24351,0.004 -1.15149,0.72712 -2.01772,1.60712 -1.66931,1.69585 -1.85653,1.79499 -2.38729,1.26423 z m 6.41532,-4.91339 c -0.33133,-0.86343 0.0519,-1.37143 0.4597,-0.60941 0.24686,0.46127 0.26436,0.76779 0.0514,0.89943 -0.17772,0.10984 -0.4077,-0.0207 -0.51106,-0.29002 z m 1.15245,-1.61195 c 0,-1.27964 0.56514,-1.79183 1.12789,-1.02222 0.22952,0.31389 0.60566,0.452 0.91145,0.33465 0.65372,-0.25085 0.68115,-0.77132 0.0407,-0.77132 -0.264,0 -0.48,-0.22744 -0.48,-0.50543 0,-0.38344 0.21238,-0.46022 0.88,-0.31813 0.7522,0.16009 0.98806,0.0197 1.62405,-0.96678 0.65755,-1.0199 0.87146,-1.13919 1.84,-1.02612 0.63013,0.0736 1.0993,-0.0148 1.10382,-0.2078 0.01,-0.42674 2.23213,-1.55065 2.23213,-1.12897 0,0.17228 -0.16612,0.31323 -0.36916,0.31323 -0.20303,0 -0.88703,0.54892 -1.52,1.21981 -1.44344,1.52995 -3.13385,2.7179 -3.52419,2.47666 -0.16374,-0.1012 -0.61507,0.26169 -1.00295,0.80643 -0.48338,0.67883 -0.89377,0.94112 -1.30447,0.83372 -0.43089,-0.11268 -0.59923,0.0147 -0.59923,0.45334 0,0.33552 -0.216,0.61004 -0.48,0.61004 -0.33367,0 -0.48,-0.33568 -0.48,-1.10111 z M 961.00082,642 c 0.24155,-0.308 0.63129,-0.68193 0.8661,-0.83097 0.25682,-0.163 0.35335,-0.56407 0.24228,-1.00663 -0.2509,-0.99964 0.60239,-1.29081 1.41153,-0.48167 0.48278,0.48278 0.53609,0.69991 0.23275,0.94792 -1.83658,1.50155 -2.45943,1.93135 -2.79886,1.93135 -0.29305,0 -0.2813,-0.14241 0.0462,-0.56 z M 964.8,638.78079 c 0,-0.16838 0.29622,-0.38361 0.65827,-0.47829 0.41875,-0.1095 0.61287,-0.0358 0.53349,0.20268 -0.15324,0.46027 -1.19176,0.70044 -1.19176,0.27561 z m 1.92,-2.61834 c 0,-0.43679 1.47385,-1.56341 2.32,-1.77342 0.73421,-0.18223 0.88,-0.11485 0.88,0.40668 0,0.89835 -0.95548,1.601 -2.16,1.58845 -0.572,-0.006 -1.04,-0.10573 -1.04,-0.22171 z m 3.84,-1.60245 c 0,-0.176 0.2245,-0.32 0.49889,-0.32 0.27438,0 0.40988,0.144 0.30111,0.32 -0.10877,0.176 -0.33327,0.32 -0.49889,0.32 -0.16561,0 -0.30111,-0.144 -0.30111,-0.32 z m 5.93603,-4.24 c -0.135,-0.30921 -0.58745,-0.56 -1.01027,-0.56 -1.06292,0 -0.95702,-0.48313 0.21204,-0.96737 1.18393,-0.4904 1.54426,-0.16705 1.2563,1.12737 -0.17441,0.78403 -0.25838,0.85735 -0.45807,0.4 z m 0.6773,-1.73333 c -0.40094,-0.40095 -0.21353,-0.7603 0.58667,-1.1249 0.44,-0.20047 0.8,-0.55739 0.8,-0.79313 0,-0.24388 0.34483,-0.42864 0.8,-0.42864 0.49778,0 0.8,-0.18133 0.8,-0.48 0,-0.85859 3.90435,-4.31394 4.88,-4.3188 0.49671,-0.002 0.21271,0.87288 -0.50062,1.54302 -0.40735,0.38268 -0.8204,0.69578 -0.9179,0.69578 -0.0975,0 -0.81652,0.612 -1.59782,1.36 -3.98374,3.81392 -4.32993,4.06706 -4.85033,3.54667 z m 8.66781,-7.62387 c 0.0844,-0.44154 0.28068,-0.8028 0.43616,-0.8028 0.43734,0 0.33378,0.83925 -0.15346,1.24362 -0.35303,0.29298 -0.40691,0.20896 -0.2827,-0.44082 z M 987.04,619.84 c -0.29546,-0.47806 0.11564,-0.96 0.81889,-0.96 0.70794,0 0.79691,0.3362 0.23711,0.896 -0.46792,0.46792 -0.79415,0.48769 -1.056,0.064 z m 1.76,-1.75262 c 0,-0.49661 0.30491,-0.99241 0.81643,-1.32757 1.21046,-0.79313 1.55715,-0.15418 0.58815,1.08397 -0.97067,1.24028 -1.40458,1.31554 -1.40458,0.2436 z m 4.50308,-3.60738 c 1.08081,-1.43612 8.43102,-9.04 8.73842,-9.04 0.1092,0 0.1985,0.19609 0.1985,0.43575 0,0.475 -5.46809,6.28425 -5.91519,6.28425 -0.15098,0 -0.89541,0.648 -1.65428,1.44 -1.37393,1.43391 -2.16974,1.94604 -1.36745,0.88 z m 9.58892,-9.58874 c 0.01,-0.13819 0.5042,-0.8265 1.1057,-1.52956 0.8518,-0.9956 1.1788,-1.19322 1.4784,-0.89356 0.4527,0.45269 -0.1337,1.37186 -0.8753,1.37186 -0.2424,0 -0.4408,0.13893 -0.4408,0.30874 0,0.16981 -0.288,0.46288 -0.64,0.65126 -0.352,0.18838 -0.6346,0.22945 -0.628,0.0913 z m 3.828,-3.86726 c 0,-0.67384 0.5904,-1.344 1.184,-1.344 0.5721,0 0.5226,0.80765 -0.087,1.41714 -0.6653,0.66534 -1.0971,0.63655 -1.0971,-0.0731 z m 1.751,-1.99856 c -0.1258,-0.2035 0.075,-0.67387 0.4466,-1.04527 0.5369,-0.53692 0.7565,-0.59407 1.0717,-0.27892 0.2917,0.29176 0.3047,0.54184 0.049,0.94756 -0.4259,0.67629 -1.2586,0.87638 -1.5675,0.37663 z m 2.409,-2.21054 c 0,-0.16781 0.648,-0.94394 1.44,-1.72473 0.792,-0.7808 1.44,-1.53513 1.44,-1.6763 0,-0.33389 2.53,-2.69387 2.8879,-2.69387 0.4141,0 0.6178,0.46712 0.371,0.85063 -0.1204,0.18704 -0.6869,0.57986 -1.2589,0.87294 -0.572,0.29307 -1.04,0.74517 -1.04,1.00465 0,0.25948 -0.144,0.47178 -0.32,0.47178 -0.176,0 -0.32,0.19865 -0.32,0.44145 0,0.2428 -0.6362,0.9628 -1.4139,1.6 -1.4793,1.21225 -1.7861,1.35882 -1.7861,0.85345 z m 6.9074,-7.25901 c -0.1407,-0.36658 0.06,-0.82846 0.5893,-1.35802 l 0.8025,-0.8025 -0.07,1.25832 c -0.075,1.35498 -0.9257,1.9355 -1.3222,0.9022 z m 2.3726,-2.64165 c 0,-0.32438 0.9747,-0.76626 1.1978,-0.54306 0.081,0.0804 0.051,0.29982 -0.065,0.48753 -0.2553,0.41308 -1.1332,0.4561 -1.1332,0.0555 z m 1.4187,-1.66871 c -0.3288,-0.53193 1.8658,-2.59582 2.501,-2.35208 0.4348,0.16686 0.4617,0.34295 0.1611,1.05345 -0.6219,1.4699 -2.1082,2.19492 -2.6621,1.29863 z m 6.1413,-5.98081 c -0.087,-0.1404 -0.038,-0.44939 0.1088,-0.68663 0.3602,-0.5827 1.3338,-0.18149 1.0916,0.4498 -0.2,0.52106 -0.9351,0.6661 -1.2004,0.23683 z m 1.2052,-2.04101 c -0.1258,-0.20363 0.081,-0.61672 0.4639,-0.92683 0.38,-0.30771 0.6909,-0.71639 0.6909,-0.90817 0,-0.19179 0.1984,-0.34871 0.441,-0.34871 0.2425,0 0.6608,-0.324 0.9295,-0.72 0.651,-0.95959 1.3529,-0.38612 0.9153,0.74789 -0.6248,1.61929 -2.8936,3.04086 -3.4406,2.15582 z m 4.0756,-5.30245 c 0.2416,-0.30731 0.6192,-0.7496 0.8392,-0.98286 0.22,-0.23326 0.4,-0.58015 0.4,-0.77085 0,-0.19071 0.2633,-0.10842 0.5852,0.18285 0.3219,0.29128 0.7762,0.5296 1.0096,0.5296 0.2985,0 0.2495,0.19323 -0.165,0.65129 -0.3242,0.3582 -0.7739,0.58049 -0.9994,0.49397 -0.2254,-0.0865 -0.495,-0.0196 -0.599,0.14872 -0.1041,0.16831 -0.4863,0.30602 -0.8495,0.30602 -0.5826,0 -0.6086,-0.0657 -0.2211,-0.55874 z m -790.82548,-1.59463 c -3.2839,-4.96229 -10.59049,-17.48261 -14.33124,-24.55748 -3.60991,-6.82741 -9.28408,-18.40217 -9.28408,-18.93861 0,-0.46112 0.34258,-0.49651 2.92196,-0.30179 1.60708,0.12132 4.03115,0.43099 5.38684,0.68816 l 2.46488,0.46758 4.45316,-2.13379 c 5.40222,-2.58854 11.97316,-5.25805 11.97316,-4.86423 0,0.15799 -0.34644,0.4451 -0.76987,0.63803 -0.61342,0.27949 -0.91193,0.8796 -1.46896,2.95314 -0.38451,1.4313 -0.82787,3.82636 -0.98527,5.32236 -0.15739,1.496 -0.4344,3.224 -0.61557,3.84 -0.18117,0.616 -0.32028,1.408 -0.30913,1.76 0.0112,0.352 -0.20553,1.864 -0.48152,3.36 -0.46214,2.50508 -0.57975,3.34935 -0.94935,6.81488 -0.0985,0.92391 0.25495,2.15017 1.47589,5.12 2.96372,7.20897 2.84317,6.80592 2.62971,8.79234 -0.10832,1.00803 -0.18672,2.40878 -0.17424,3.11278 0.0125,0.704 -0.0632,1.496 -0.16825,1.76 -0.10503,0.264 -0.23188,1.704 -0.28189,3.2 -0.05,1.496 -0.2184,3.05727 -0.37421,3.46948 -0.2777,0.73472 -0.29959,0.72483 -1.11202,-0.50285 z m 793.68198,-0.80353 c -0.3686,-0.83268 -0.3435,-1.04257 0.2147,-1.79308 0.3477,-0.46751 0.948,-0.89686 1.334,-0.9541 0.509,-0.0755 0.6521,-0.2609 0.5207,-0.67482 -0.2098,-0.66098 0.6137,-1.53063 0.9437,-0.99664 0.4278,0.69223 1.0905,0.34187 1.0298,-0.54446 -0.053,-0.78079 0.039,-0.86962 0.8198,-0.78789 0.6253,0.0655 0.88,-0.0532 0.88,-0.41004 0,-0.27619 -0.216,-0.58504 -0.48,-0.68635 -0.6795,-0.26075 -0.5985,-0.6663 0.3157,-1.58048 0.7552,-0.75519 0.8356,-0.7695 1.5807,-0.2813 0.8253,0.54075 0.7933,1.60571 -0.039,1.28646 -0.3272,-0.12553 -0.4071,-0.0109 -0.2775,0.39762 0.1229,0.38705 -0.183,0.92796 -0.939,1.66076 -0.6167,0.59772 -1.1213,1.26635 -1.1213,1.48585 0,0.21949 -0.2879,0.60074 -0.6398,0.84722 -0.3519,0.24648 -1.3341,1.24153 -2.1827,2.21123 l -1.5428,1.76309 z m 7.4227,-9.41503 c -0.22,-0.0888 -0.3958,-0.3294 -0.3906,-0.53474 0.014,-0.57457 1.8522,-2.466 2.3071,-2.37449 0.2305,0.0463 0.4035,-0.23189 0.4035,-0.64875 0,-0.40145 0.144,-0.83345 0.32,-0.96 0.176,-0.12655 0.4787,-0.51809 0.6727,-0.87009 0.194,-0.352 0.6704,-0.68712 1.0587,-0.7447 0.5708,-0.0847 0.6336,-0.1919 0.3281,-0.56 -0.4462,-0.53767 0.1081,-1.4153 0.8939,-1.4153 0.2949,0 0.4038,-0.18563 0.2872,-0.48956 -0.1837,-0.47878 3.1656,-4.95044 3.7079,-4.95044 0.1383,0 0.2515,-0.1872 0.2515,-0.416 0,-0.2288 0.1708,-0.58683 0.3796,-0.79563 0.2929,-0.29284 0.5044,-0.26673 0.9254,0.11422 0.4532,0.41016 0.4854,0.65356 0.1899,1.43643 -0.1957,0.51842 -0.6121,1.02392 -0.9254,1.12334 -0.3132,0.0994 -0.5695,0.454 -0.5695,0.78795 0,0.33394 -0.288,0.76131 -0.64,0.94969 -0.352,0.18838 -0.64,0.56 -0.64,0.8258 0,0.26581 -0.36,0.84329 -0.8,1.28329 -0.44,0.44 -0.8,0.9583 -0.8,1.15178 0,0.19348 -0.2974,0.65493 -0.6608,1.02545 -0.3635,0.37053 -1.1738,1.46568 -1.8007,2.43368 -2.0802,3.21202 -3.2305,4.13973 -4.4985,3.62807 z M 275.65417,544.56168 c -1.84879,-3.61435 -5.89401,-12.64346 -5.89411,-13.15591 -1e-4,-0.48083 4.17103,-6.27724 6.60286,-9.17567 2.93055,-3.49283 6.36066,-6.71074 10.32928,-9.69025 5.61098,-4.21256 6.95987,-4.87057 13.17787,-6.42843 9.63991,-2.41519 20.34177,-4.02309 20.88854,-3.13839 0.28002,0.45309 -0.21128,0.78026 -10.19861,6.79153 -15.75677,9.48384 -21.37978,13.53507 -25.92044,18.675 -2.55188,2.88868 -4.6129,5.66283 -4.83643,6.50989 -0.11209,0.42477 0.21993,1.77299 0.82747,3.36 l 1.01469,2.65055 -0.80193,1.6 c -0.44106,0.88 -0.99864,2.032 -1.23908,2.56 -0.64887,1.42493 -1.65462,3.03567 -1.8969,3.03798 -0.11695,0.001 -1.04089,-1.61722 -2.05321,-3.5963 z m 781.15773,-2.1865 c -0.3095,-0.78919 0.3782,-2.25917 1.0058,-2.14975 0.385,0.0671 0.6058,-0.20582 0.761,-0.94061 0.2181,-1.0335 1.3845,-2.29403 2.1413,-2.31417 0.7337,-0.0195 0.413,0.81168 -0.96,2.48826 -0.748,0.91337 -1.6728,2.05676 -2.0551,2.54088 -0.5686,0.72005 -0.7311,0.78836 -0.893,0.37539 z m 4.5318,-7.2181 c -0.2404,-0.24046 1.438,-2.67708 1.8441,-2.67708 0.1948,0 0.6094,-0.432 0.9213,-0.96 0.3119,-0.528 0.7749,-0.96 1.029,-0.96 0.6209,0 0.5946,0.11801 -0.375,1.68636 -1.2344,1.99679 -2.9084,3.42171 -3.4194,2.91072 z m 4.2563,-5.48011 c 0,-0.30966 0.288,-0.74288 0.64,-0.96271 0.352,-0.21982 0.64,-0.58165 0.64,-0.80406 0,-0.22241 0.4047,-0.90519 0.8993,-1.51729 0.4946,-0.6121 1.2296,-1.65812 1.6333,-2.32449 0.5894,-0.97307 0.8219,-1.13859 1.1807,-0.84082 0.7288,0.60487 0.5318,1.06959 -1.1542,2.72271 -0.8806,0.86333 -1.8893,2.18169 -2.2417,2.92969 -0.6447,1.36854 -1.5974,1.84385 -1.5974,0.79697 z m 81.4352,-2.61809 c -7.6591,-6.39441 -9.4685,-7.6249 -24.9552,-16.97096 -10.6435,-6.42327 -10.3688,-6.23424 -9.8399,-6.77051 0.8085,-0.81962 10.6688,0.75838 21.1999,3.39269 4.9832,1.24653 6.3839,1.91991 10.88,5.23049 3.6378,2.67859 6.5459,5.33495 9.5829,8.75345 2.4687,2.77883 5.322,6.90777 4.9977,7.23207 -0.069,0.0688 -0.4974,-0.11895 -0.9525,-0.41715 -0.7671,-0.50257 -0.9072,-0.50435 -1.9186,-0.0244 -1.0744,0.50984 -2.1095,0.42134 -2.1095,-0.18035 0,-0.33662 -0.9501,-0.11421 -2.3168,0.54234 -2.0693,0.99405 -2.5288,0.91481 -4.568,-0.78766 z M 786.29333,522.9387 c 0.19083,-0.46749 3.73935,-3.5392 6.11137,-5.29022 3.17423,-2.3432 12.46345,-8.52355 14.7367,-9.80469 1.66422,-0.93791 1.94369,-1.00499 2.63826,-0.63327 0.89419,0.47856 0.62748,0.58236 10.56321,-4.11123 9.29225,-4.38962 18.5298,-8.22205 23.64901,-9.81139 5.4614,-1.69558 16.87156,-4.5417 19.36812,-4.83114 l 1.76,-0.20404 0.0265,1.21346 c 0.0223,1.02258 0.26143,1.42616 1.52,2.56561 0.82143,0.74368 1.4935,1.49719 1.4935,1.67446 0,0.37063 -1.2373,0.792 -7.68,2.61547 -6.94749,1.96634 -16.45029,5.04831 -29.12,9.44427 -18.62705,6.46294 -28.18939,10.11976 -39.42376,15.07635 -5.4774,2.41663 -5.8266,2.54635 -5.64291,2.09636 z m 284.90177,-1.03406 c -0.3912,-1.23266 0.9579,-2.07706 1.7649,-1.10464 0.225,0.27114 0.2583,0.48 0.076,0.48 -0.177,0 -0.3972,0.288 -0.4892,0.64 -0.2181,0.83394 -1.0857,0.82409 -1.3522,-0.0154 z m -310.40536,-3.25598 c -0.20929,-0.54541 0.69009,-13.55534 0.9682,-14.00533 0.11327,-0.18328 1.96008,-1.74195 4.10401,-3.46371 25.46858,-20.4535 55.09333,-38.39088 85.81805,-51.96168 27.08361,-11.96256 48.34167,-18.89636 72.87122,-23.76862 17.67419,-3.51059 32.57614,-5.27178 56.88878,-6.72342 10.41919,-0.62211 12.50825,-0.8213 12.2915,-1.17202 -0.16734,-0.27075 -0.55432,-13.28505 -0.46458,-15.62411 0.0234,-0.61063 0.14395,-1.18663 0.26783,-1.28 0.32824,-0.24739 0.34717,-5.12977 0.0199,-5.12977 -0.1521,0 -0.179,-1.044 -0.0598,-2.32 0.26623,-2.84899 0.19411,-4.43901 -0.22013,-4.85325 -0.51444,-0.51444 -0.36188,-1.10112 0.41944,-1.61306 0.51752,-0.33909 3.091,-0.67851 8.72004,-1.1501 4.3922,-0.36797 8.4178,-0.77557 8.9458,-0.90578 0.9569,-0.23598 0.9603,-0.24507 1.0522,-2.80851 l 0.092,-2.57177 4.0679,-0.20747 c 10.481,-0.53455 32.4184,-0.11021 46.9478,0.90813 7.5428,0.52867 21.7806,1.99979 22.6442,2.33973 0.508,0.19998 0.2798,1.06612 -2.2935,8.70208 -5.4027,16.03187 -15.2301,41.11566 -16.2639,41.51237 -0.2398,0.092 -3.4894,-0.13773 -7.2214,-0.51056 -21.8699,-2.18484 -43.1014,-2.92536 -66.30543,-2.31262 -20.66228,0.54562 -32.44645,1.26765 -45.12,2.76456 -37.01383,4.3718 -69.7996,14.19245 -104.10598,31.18391 -29.2603,14.49221 -56.90199,32.55952 -80.05402,52.32535 -3.61911,3.08978 -3.79524,3.20598 -4.01026,2.64565 z M 1075.2,517.74996 c 0,-0.6198 0.8007,-1.21593 1.156,-0.86065 0.2083,0.20831 -0.5788,1.51069 -0.913,1.51069 -0.1336,0 -0.243,-0.29252 -0.243,-0.65004 z m 1.0453,-2.57111 c -0.4647,-0.17837 -0.6486,-0.44644 -0.5257,-0.76657 0.242,-0.63076 0.8876,-0.63018 1.4117,10e-4 0.5475,0.65981 0.022,1.11377 -0.886,0.76529 z m 1.5713,-2.11858 c -0.324,-0.1295 -0.2776,-0.33007 0.198,-0.85474 0.3418,-0.37704 0.72,-1.10121 0.8405,-1.60927 0.2247,-0.94754 1.6254,-3.03524 2.343,-3.49216 0.221,-0.14075 0.4019,-0.46981 0.4019,-0.73126 0,-0.60513 0.9409,-2.08857 1.6644,-2.62393 0.3055,-0.22611 0.8421,-1.05902 1.1924,-1.85093 0.5816,-1.3149 0.6924,-1.40514 1.2772,-1.03994 0.5662,0.35358 0.5863,0.45968 0.1732,0.91613 -0.257,0.28392 -0.4672,0.74708 -0.4672,1.02924 0,0.28215 -0.4269,0.81702 -0.9488,1.18859 -0.5402,0.38466 -1.0816,1.15683 -1.2573,1.79315 -0.3211,1.16301 -1.5334,2.67974 -2.1495,2.68932 -0.204,0.003 -0.2918,0.3393 -0.206,0.78833 0.1004,0.52524 -0.1952,1.31491 -0.8983,2.4 -1.0209,1.57554 -1.2873,1.74762 -2.1635,1.39747 z m -331.11606,-9.46131 c -2.8053,-2.33537 -5.77998,-4.73365 -6.6104,-5.32951 -0.83042,-0.59586 -1.4412,-1.19447 -1.35729,-1.33024 0.19166,-0.31012 6.15327,-1.69061 9.703,-2.24686 l 2.67585,-0.41931 1.59564,1.6727 c 1.50333,1.57593 1.58615,1.75084 1.43167,3.02348 -0.0902,0.74293 -0.65311,3.04392 -1.25094,5.11332 l -1.08699,3.76254 z M 1085.76,500.00985 c 0,-0.64643 1.2799,-3.04985 1.6241,-3.04985 0.1537,0 0.5066,-0.43933 0.7843,-0.97628 0.4067,-0.7865 0.6416,-0.93429 1.2082,-0.76025 0.3869,0.11882 0.7589,0.26565 0.8267,0.3263 0.1895,0.16937 -0.7658,1.52349 -1.8149,2.57258 -0.5183,0.51829 -1.0434,1.26079 -1.1669,1.65 -0.251,0.79086 -1.4615,0.98758 -1.4615,0.2375 z m 5.0133,-6.46318 c -0.4441,-0.44417 -0.1892,-1.45288 0.4066,-1.60869 0.5873,-0.15359 1.3001,-1.56778 1.3001,-2.57954 0,-0.50355 1.4057,-2.31924 2.1147,-2.73153 0.5456,-0.31724 0.3376,0.28151 -0.8659,2.49309 -0.4789,0.88 -1.1895,2.284 -1.5792,3.12 -0.6952,1.49165 -0.9497,1.73326 -1.3763,1.30667 z M 881.68,490.4289 c -0.396,-0.41751 -0.7218,-0.88281 -0.72399,-1.034 -0.002,-0.1512 -0.56737,-0.88144 -1.25596,-1.62277 -1.15478,-1.24324 -1.57738,-1.46557 -3.38005,-1.77821 -1.92778,-0.33434 12.86446,-2.99179 27.84,-5.00149 26.55308,-3.56341 34.51182,-4.05268 71.2,-4.37706 12.056,-0.10659 21.9598,-0.23246 22.00845,-0.2797 0.0486,-0.0473 -1.22057,-1.3661 -2.82049,-2.93079 -1.59991,-1.56468 -3.33336,-3.49288 -3.8521,-4.28488 -0.51875,-0.792 -1.73353,-2.14304 -2.69952,-3.00231 -0.96598,-0.85927 -1.75634,-1.70308 -1.75634,-1.87513 0,-0.17205 -0.684,-1.06249 -1.52,-1.97874 -0.836,-0.91625 -2.024,-2.36525 -2.64,-3.22 -0.616,-0.85474 -1.96973,-2.37134 -3.00828,-3.37023 -1.03855,-0.99888 -1.75855,-1.89314 -1.6,-1.98724 0.705,-0.41841 4.51214,-0.89672 12.12828,-1.52374 5.87688,-0.48384 6.29814,-0.57605 5.91361,-1.29454 -0.17171,-0.32086 -0.6267,-0.62943 -1.01108,-0.68572 -0.44632,-0.0654 -0.8593,-0.49694 -1.14282,-1.1943 l -0.44394,-1.09194 9.06213,0.21305 c 12.7519,0.2998 19.6071,0.92082 29.0621,2.63276 5.7778,1.04614 5.8157,1.06497 5.5838,2.77329 -0.8476,6.24466 -2.5146,11.46043 -5.7543,18.00479 -2.5346,5.1198 -5.1535,9.02009 -8.6458,12.87607 l -2.1606,2.38556 -1.6316,-0.1887 c -2.7774,-0.32124 -16.5384,-1.11115 -26.25683,-1.5072 -16.25032,-0.66224 -43.98656,-0.14455 -62.57467,1.16794 -12.36782,0.87328 -38.31258,3.5585 -46.24,4.78572 -0.71871,0.11126 -1.14097,-0.0422 -1.68,-0.61049 z m 213.36,-5.29026 c 0,-0.64848 1.0312,-1.44077 1.3979,-1.07405 0.3622,0.36221 0.2157,0.65291 -0.5979,1.18598 -0.7608,0.49852 -0.8,0.49304 -0.8,-0.11193 z m 2.1522,-2.4531 c -0.1153,-0.11533 -0.057,-0.49422 0.1287,-0.84197 0.2488,-0.46483 0.4328,-0.53783 0.695,-0.27564 0.2622,0.26219 0.2281,0.48518 -0.1287,0.84197 -0.2669,0.26694 -0.5797,0.39098 -0.695,0.27564 z m -653.22124,-0.56583 c -0.27111,-0.7065 0.0896,-1.06718 0.57837,-0.57838 0.28861,0.28861 0.28984,0.4675 0.005,0.75218 -0.28468,0.28468 -0.42346,0.24334 -0.58353,-0.1738 z M 1099.12,480.25778 c 0.3862,-0.38622 0.7987,-0.6057 0.9167,-0.48774 0.3114,0.31134 -0.506,1.18996 -1.107,1.18996 -0.4114,0 -0.3741,-0.13786 0.1903,-0.70222 z M 440.96,479.68 c 0,-0.176 0.27121,-0.32 0.60268,-0.32 0.33355,0 0.67741,-0.28579 0.77004,-0.64 0.0921,-0.352 0.34025,-0.64 0.55156,-0.64 0.21886,0 0.30061,0.21782 0.18996,0.50617 -0.10683,0.2784 -0.19424,0.7104 -0.19424,0.96 0,0.29092 -0.34461,0.45383 -0.96,0.45383 -0.528,0 -0.96,-0.144 -0.96,-0.32 z m 252.64127,-4.06706 c -8.83851,-13.92004 -20.18911,-29.55311 -30.34474,-41.79352 -7.1159,-8.57667 -12.51474,-14.5601 -22.21653,-24.62215 -4.39759,-4.56089 -4.88541,-5.17865 -4.93474,-6.24924 -0.0704,-1.52736 -0.10915,-1.88104 -0.37589,-3.42803 -0.12139,-0.704 -0.28044,-2.44018 -0.35343,-3.85818 -0.073,-1.418 -0.23005,-2.966 -0.34902,-3.44 -0.12785,-0.50939 -0.0842,-0.86182 0.10668,-0.86182 0.61516,0 4.3483,3.02947 9.24773,7.5046 9.00927,8.22905 11.45689,10.41406 11.66645,10.41473 0.39031,10e-4 0.46665,-3.04348 0.41563,-16.57699 l -0.051,-13.53766 -2.10121,-3.10234 c -2.44083,-3.60376 -8.17641,-10.83392 -11.79085,-14.86333 -1.3819,-1.54054 -2.86674,-3.34054 -3.29965,-4 L 638.43355,356 l 0.45504,-3.01581 c 0.25026,-1.6587 0.5837,-3.14448 0.74095,-3.30173 0.58056,-0.58056 10.28863,8.91181 16.77017,16.39754 25.90375,29.91702 41.24875,68.23745 42.69822,106.62844 l 0.20197,5.34942 -0.76995,0.2903 c -2.62258,0.98882 -2.53229,1.03893 -4.92868,-2.73522 z m 49.15637,2.66179 -0.76236,-0.42259 0.98588,-0.34368 c 0.89971,-0.31364 0.97037,-0.43919 0.80852,-1.43654 -0.1866,-1.14992 0.52774,-2.96353 1.42668,-3.62213 0.31885,-0.2336 0.41005,-0.62098 0.27392,-1.16339 -0.13444,-0.53565 -0.0413,-0.94825 0.27281,-1.20897 0.2623,-0.21769 0.47691,-0.61882 0.47691,-0.89142 0,-0.27259 0.22667,-0.74609 0.50372,-1.05222 0.27705,-0.30614 0.61263,-1.35916 0.74574,-2.34005 0.13861,-1.02141 0.50448,-2.07383 0.85628,-2.46308 0.33784,-0.37381 0.56741,-0.96277 0.51014,-1.30881 -0.0686,-0.41472 0.11605,-0.68673 0.54189,-0.79809 0.40432,-0.10573 0.68271,-0.48598 0.74412,-1.01635 0.0658,-0.56808 0.25633,-0.80662 0.57811,-0.72367 1.62428,0.41873 1.92,0.41116 1.92,-0.0491 0,-0.26399 -0.30091,-0.55868 -0.66869,-0.65485 -0.52838,-0.13818 -0.62195,-0.33066 -0.44592,-0.91732 0.12252,-0.40836 0.47301,-0.95846 0.77885,-1.22246 0.30585,-0.264 0.80792,-1.308 1.11571,-2.32 0.30779,-1.012 0.67491,-1.84 0.81582,-1.84 0.14091,0 0.12163,-0.59892 -0.0428,-1.33094 -0.36291,-1.61518 0.12816,-2.41113 0.86861,-1.4079 0.25215,0.34164 0.45846,0.89844 0.45846,1.23732 0,0.49332 0.14355,0.57063 0.72,0.38779 0.396,-0.1256 0.98168,-0.24525 1.3015,-0.26589 0.55917,-0.0361 0.55939,-0.0537 0.006,-0.45855 -0.53913,-0.39421 -0.50993,-0.48257 0.4585,-1.38765 0.56885,-0.53164 1.03428,-1.17532 1.03428,-1.4304 0,-0.52842 0.81978,-0.62955 1.12323,-0.13856 0.11054,0.17887 0.33504,0.24237 0.49888,0.14111 0.52146,-0.32228 0.32076,-1.0257 -0.34211,-1.19905 -0.90241,-0.23599 -0.79573,-1.05856 0.32,-2.46728 0.528,-0.66665 0.96,-1.37138 0.96,-1.56605 0,-0.19467 0.13371,-0.35395 0.29714,-0.35395 0.34243,0 0.651,-0.30647 2.46047,-2.44372 0.72468,-0.85595 1.68443,-1.98828 2.13278,-2.51628 0.88306,-1.03996 1.49199,-0.9555 0.8239,0.11429 -0.49988,0.80043 -0.31351,1.03973 0.61968,0.7957 0.42235,-0.11045 0.70603,-0.43438 0.70603,-0.8062 0,-0.34186 0.14635,-0.53111 0.32522,-0.42056 0.17887,0.11054 0.25246,0.31873 0.16352,0.46262 -0.0889,0.1439 0.0497,0.4371 0.30814,0.65156 0.25841,0.21447 0.69174,0.83473 0.96294,1.37837 0.43384,0.86965 0.43656,1.04498 0.0227,1.45884 -0.39142,0.39142 -0.55568,0.39963 -0.97828,0.0489 -0.27933,-0.23182 -0.46655,-0.72345 -0.41606,-1.09251 0.0721,-0.52689 -0.08,-0.67101 -0.70818,-0.67101 -0.72363,0 -0.79328,0.11455 -0.72957,1.2 0.088,1.49881 -0.57399,1.61363 -1.11037,0.1926 -0.33115,-0.87733 -0.44667,-0.95228 -0.89461,-0.58052 -0.37578,0.31187 -0.4595,0.71932 -0.31073,1.51234 0.17207,0.91721 0.10202,1.11204 -0.45194,1.2569 -0.36057,0.0943 -0.57755,0.2977 -0.48218,0.45201 0.31752,0.51376 0.37006,4.46411 0.0619,4.65456 -0.16684,0.10312 -0.71583,-0.11748 -1.21997,-0.4902 -0.50415,-0.37273 -1.06194,-0.67769 -1.23954,-0.67769 -0.50071,0 0.02,1.05437 0.84201,1.70482 1.48825,1.17769 1.51755,1.69144 0.19026,3.3355 -1.83588,2.27405 -2.63659,2.94611 -3.24065,2.71998 -0.46308,-0.17335 -0.47662,-0.1288 -0.10115,0.33291 0.36968,0.45458 0.34226,0.68711 -0.18628,1.57991 -0.39376,0.66513 -0.82461,1.01024 -1.18154,0.94641 -0.41996,-0.0751 -0.51392,0.0503 -0.37221,0.49678 0.10426,0.3285 0.005,0.84978 -0.22077,1.15842 -0.37771,0.51656 -0.48593,0.52174 -1.3615,0.0652 -1.24847,-0.651 -1.82409,-0.63049 -1.68663,0.0601 0.0787,0.39538 0.41484,0.55909 1.14346,0.55691 1.37007,-0.004 1.33334,0.55421 -0.16938,2.57471 -1.25034,1.68117 -2.87073,4.10181 -7.59662,11.34838 -3.52911,5.41145 -3.67719,5.54344 -5.24436,4.67473 z M 754.56,461.76 c 0,-0.176 -0.144,-0.32 -0.32,-0.32 -0.176,0 -0.32,0.144 -0.32,0.32 0,0.176 0.144,0.32 0.32,0.32 0.176,0 0.32,-0.144 0.32,-0.32 z m -0.8,-3.52 c 0.10877,-0.176 0.0453,-0.32 -0.14111,-0.32 -0.18639,0 -0.33889,0.144 -0.33889,0.32 0,0.176 0.0635,0.32 0.14111,0.32 0.0776,0 0.23012,-0.144 0.33889,-0.32 z m 3.04,-1.74874 c 0,-0.0818 -0.324,-0.32138 -0.72,-0.53239 -0.65287,-0.34788 -0.67905,-0.33401 -0.28082,0.14874 0.40891,0.49569 1.00082,0.72259 1.00082,0.38365 z m -0.384,-2.79526 c 0.61021,-0.61021 0.44716,-0.95854 -0.336,-0.71781 -0.92472,0.28424 -0.98736,0.34922 -0.73316,0.76052 0.27466,0.44441 0.59483,0.43162 1.06916,-0.0427 z m 2.55434,-0.52656 c 0.0917,-0.2754 -0.0622,-0.39072 -0.42697,-0.32 -0.31368,0.0608 -0.63485,0.30431 -0.71371,0.54112 -0.0917,0.2754 0.0622,0.39072 0.42697,0.32 0.31368,-0.0608 0.63485,-0.30431 0.71371,-0.54112 z m 1.42669,-1.27735 c -0.0456,-0.21444 0.13437,-0.4733 0.4,-0.57523 0.26563,-0.10193 0.48297,-0.45988 0.48297,-0.79544 0,-0.33556 0.17639,-0.89256 0.39199,-1.23778 0.29298,-0.46913 0.30002,-0.71963 0.0279,-0.99177 -0.55993,-0.55993 -1.13818,-0.007 -0.91652,0.8757 0.11479,0.45738 0.005,1.04904 -0.26609,1.43634 l -0.46129,0.65859 -0.35925,-0.67125 c -0.4823,-0.90119 -0.86358,-0.84561 -1.11666,0.16277 -0.15097,0.60149 -0.0491,0.95681 0.3653,1.27441 0.67025,0.51365 1.57196,0.42896 1.45167,-0.13634 z M 759.68,448.96 c 0,-0.176 -0.0635,-0.32 -0.14111,-0.32 -0.0776,0 -0.23012,0.144 -0.33889,0.32 -0.10877,0.176 -0.0453,0.32 0.14111,0.32 0.18639,0 0.33889,-0.144 0.33889,-0.32 z m 3.84,-3.04 c 0.31782,-0.38295 0.31782,-0.57705 0,-0.96 -0.50202,-0.6049 -0.99583,-0.6257 -0.76814,-0.0324 0.0945,0.2462 0.018,0.5427 -0.17004,0.65889 -0.188,0.11619 -0.34182,0.34675 -0.34182,0.51237 0,0.47046 0.83832,0.3533 1.28,-0.17889 z m -322.88,31.62073 c -1.60089,-0.26437 -1.73504,-0.38112 -1.16356,-1.0126 0.57826,-0.63897 0.69214,-1.32813 0.21946,-1.32813 -0.16725,0 -0.44132,0.2452 -0.60903,0.54488 -0.24721,0.44175 -0.39506,0.47009 -0.78109,0.14971 -0.44781,-0.37165 -0.56796,-0.74748 -1.06598,-3.33459 -0.11011,-0.572 -0.30936,-1.184 -0.44277,-1.36 -0.13341,-0.176 -0.42627,-1.4 -0.6508,-2.72 -0.22453,-1.32 -0.5291,-2.55853 -0.67682,-2.75228 -0.14771,-0.19376 -0.36087,-1.02569 -0.47368,-1.84874 -0.11282,-0.82305 -0.329,-1.57302 -0.48042,-1.6666 -0.54265,-0.33538 -0.28878,-2.03854 0.36469,-2.44664 0.352,-0.21983 0.64,-0.52854 0.64,-0.68602 0,-0.40824 1.52451,-1.76854 1.74025,-1.5528 0.32434,0.32433 0.18791,1.35308 -0.17943,1.35308 -0.24934,0 -0.23826,0.14571 0.0363,0.47648 0.21749,0.26206 0.50803,0.40689 0.64565,0.32183 0.13761,-0.0851 0.34217,0.085 0.45458,0.37794 0.1124,0.29292 0.0195,0.64989 -0.20647,0.79327 -0.30426,0.19306 -0.2689,0.26195 0.13631,0.26558 0.3715,0.003 0.66434,0.44152 0.91215,1.3649 0.20075,0.748 0.50214,1.70748 0.66976,2.13218 0.16762,0.42469 0.3927,1.72069 0.50017,2.88 0.10747,1.1593 0.36722,2.25182 0.57723,2.42782 0.21001,0.176 0.60414,0.89909 0.87583,1.60686 0.45912,1.196 0.45106,1.37514 -0.11415,2.53714 -0.744,1.52959 -0.76855,2.096 -0.0908,2.096 0.37924,0 0.47649,-0.21351 0.36438,-0.8 -0.22141,-1.15825 0.57918,-1.01953 0.99467,0.17234 0.28601,0.82045 0.24091,1.0704 -0.28869,1.6 -0.34521,0.34521 -0.73566,0.60805 -0.86766,0.58408 -0.132,-0.024 -0.6,-0.10303 -1.04,-0.17569 z m -0.10747,-4.12224 c 0.27004,-0.7037 -0.46283,-1.40903 -0.83625,-0.80483 -0.313,0.50645 -0.0999,1.30634 0.348,1.30634 0.16269,0 0.38241,-0.22568 0.48825,-0.50151 z m -0.631,-2.69987 c -0.37836,-1.00239 -0.68269,-1.18688 -1.03023,-0.62455 -0.25888,0.41888 0.73749,1.98771 1.11444,1.75474 0.15269,-0.0944 0.1148,-0.60295 -0.0842,-1.13019 z m -0.69287,-1.93264 c 0.11354,-0.18371 0.0302,-0.54641 -0.18528,-0.806 -0.31495,-0.3795 -0.27928,-0.59622 0.18205,-1.10598 0.51779,-0.57215 0.5221,-0.634 0.0442,-0.634 -0.29128,0 -0.5296,0.14126 -0.5296,0.3139 0,0.17265 -0.36,0.40426 -0.8,0.51469 -0.93215,0.23396 -1.00891,0.65017 -0.2704,1.46621 0.59023,0.65221 1.24593,0.75784 1.55906,0.25118 z m -1.1174,-2.71954 c 0.49648,-0.59823 0.0168,-1.21992 -0.72239,-0.93626 -0.30523,0.11713 -0.43542,0.43099 -0.33619,0.81049 0.19554,0.74774 0.51125,0.78525 1.05858,0.12577 z m 664.53074,8.28893 c -0.2962,-0.2962 0.06,-0.75537 0.5868,-0.75537 0.2695,0 0.377,0.19323 0.2669,0.48 -0.1953,0.50899 -0.5165,0.61258 -0.8537,0.27537 z m 0.9888,-1.43916 c -0.1952,-0.58066 0.072,-1.55621 0.4265,-1.55621 0.3604,0 0.3582,0.98542 0,1.55621 -0.2333,0.36828 -0.2992,0.36828 -0.423,0 z M 1105.28,468.8 c 0,-0.41244 0.1621,-0.63932 0.4,-0.56 0.22,0.0733 0.4,0.32533 0.4,0.56 0,0.23467 -0.18,0.48667 -0.4,0.56 -0.2379,0.0793 -0.4,-0.14756 -0.4,-0.56 z m 2.24,-3.94375 c 0,-0.25678 0.377,-0.56149 0.8378,-0.67713 1.5145,-0.38013 1.407,0.4658 -0.1178,0.92648 -0.5171,0.15622 -0.72,0.0859 -0.72,-0.24935 z m 1.68,-2.29492 c -0.5187,-0.5891 -0.5062,-1.17376 0.041,-1.92206 0.3893,-0.53245 0.4964,-0.5476 0.9146,-0.12942 0.3014,0.3014 0.4187,0.84753 0.3227,1.50189 -0.1605,1.09365 -0.6239,1.29287 -1.2783,0.54959 z m 1.7467,-3.92133 c 0.1136,-0.308 0.3611,-0.66354 0.55,-0.79009 0.1888,-0.12655 0.3433,-0.55855 0.3433,-0.96 0,-1.15795 0.9426,-0.90907 1.058,0.27935 0.073,0.75639 -0.085,1.13723 -0.6312,1.52 -0.9745,0.68259 -1.5818,0.65993 -1.3201,-0.0493 z m 2.4915,-4.56286 c -0.3618,-0.5855 0.1907,-1.59221 0.9831,-1.79109 0.7447,-0.18689 1.1244,-1.08605 0.4587,-1.08605 -0.176,0 -0.32,-0.12197 -0.32,-0.27104 0,-0.35809 1.2474,-1.78909 1.4124,-1.62026 0.1594,0.16314 0.3005,1.81166 0.2359,2.75481 -0.097,1.40805 -2.1996,2.93674 -2.7701,2.01363 z M 756.16,448.99777 c 0,-0.176 0.144,-0.409 0.32,-0.51777 0.176,-0.10877 0.32,-0.0538 0.32,0.12223 0,0.176 -0.144,0.409 -0.32,0.51777 -0.176,0.10877 -0.32,0.0538 -0.32,-0.12223 z m 8,-0.0378 c 0,-0.176 0.144,-0.32 0.32,-0.32 0.176,0 0.32,0.144 0.32,0.32 0,0.176 -0.144,0.32 -0.32,0.32 -0.176,0 -0.32,-0.144 -0.32,-0.32 z m 353.28,0.0378 c 0,-0.176 0.144,-0.409 0.32,-0.51777 0.176,-0.10877 0.32,-0.0538 0.32,0.12223 0,0.176 -0.144,0.409 -0.32,0.51777 -0.176,0.10877 -0.32,0.0538 -0.32,-0.12223 z m -362.7664,-0.83226 c 0.11352,-0.29582 0.2064,-0.59808 0.2064,-0.67168 0,-0.0736 0.216,-0.13383 0.48,-0.13383 0.68628,0 0.59245,0.41582 -0.2064,0.91471 -0.60784,0.3796 -0.66277,0.36711 -0.48,-0.1092 z m 10.50294,-0.98241 c 0.14472,-0.69508 0.71264,-0.73761 0.84254,-0.0631 0.0675,0.35027 -0.0895,0.56 -0.41908,0.56 -0.30743,0 -0.48383,-0.20699 -0.42346,-0.4969 z m -9.28174,-1.13426 c -0.47766,-0.76486 -0.31133,-1.09575 0.4114,-0.81842 0.49271,0.18907 0.71165,1.48958 0.25077,1.48958 -0.13366,0 -0.43164,-0.30202 -0.66217,-0.67116 z m 361.7745,0.43116 c -0.071,-0.132 -0.036,-0.6 0.076,-1.04 0.1707,-0.6681 0.2395,-0.70856 0.4175,-0.24539 0.1366,0.35525 0.4034,0.48159 0.7425,0.35147 0.4538,-0.17414 0.4768,-0.10487 0.1609,0.4854 -0.3607,0.67398 -1.1417,0.92479 -1.3967,0.44852 z m -351.33926,-1.15625 c -0.11971,-0.62622 -0.0354,-0.72769 0.49055,-0.59016 0.39465,0.1032 0.79873,-0.0577 1.06726,-0.42492 0.31284,-0.42782 0.42921,-0.46367 0.4215,-0.12983 -0.0129,0.55809 -1.08904,1.90116 -1.52334,1.90116 -0.17127,0 -0.37646,-0.34031 -0.45597,-0.75625 z M 1119.0774,442.88 c 0.722,-1.38516 0.9663,-1.51845 1.5326,-0.83616 0.2912,0.35093 0.1603,0.61886 -0.6254,1.28 -1.4001,1.17814 -1.681,1.04074 -0.9072,-0.44384 z M 767.2,443.52 c -0.10877,-0.176 -0.0453,-0.32 0.14111,-0.32 0.18639,0 0.33889,0.144 0.33889,0.32 0,0.176 -0.0635,0.32 -0.14111,0.32 -0.0776,0 -0.23012,-0.144 -0.33889,-0.32 z m -253.44,-3.18397 c -31.96748,-7.25143 -56.40311,-9.98932 -93.44,-10.46949 -21.51765,-0.27898 -38.0792,0.48581 -57.53791,2.65699 -2.7639,0.3084 -4.84239,0.40946 -4.98868,0.24256 -0.35904,-0.40961 -6.28871,-14.60304 -8.94294,-21.40609 -4.05122,-10.38368 -9.97047,-27.204 -9.97047,-28.33238 0,-0.65242 0.40056,-0.7429 6.24,-1.40936 10.82947,-1.23598 23.50574,-2.04952 35.36,-2.26932 4.84,-0.0898 11.32,-0.2141 14.4,-0.27634 6.94833,-0.14042 29.0633,0.28403 29.34243,0.56316 0.11286,0.11286 0.046,0.52899 -0.1485,0.92472 -0.19454,0.39574 -0.43936,1.02747 -0.54406,1.40384 -0.10469,0.37638 -0.55603,1.0789 -1.00296,1.56115 -0.44694,0.48225 -0.69143,0.99801 -0.54332,1.14612 0.14811,0.14811 4.5144,0.63198 9.70285,1.07525 10.47647,0.89507 14.81381,1.36094 16.19175,1.73917 1.05586,0.28982 1.07398,0.77683 0.0998,2.68384 -0.33991,0.66542 -0.61802,1.47579 -0.61802,1.80082 0,0.32503 -0.216,0.77023 -0.48,0.98933 -0.264,0.2191 -0.48,0.86933 -0.48,1.44495 0,0.59234 -0.19079,1.11979 -0.43959,1.21527 -0.24178,0.0928 -0.53909,0.72018 -0.6607,1.39423 -0.1216,0.67405 -0.48003,1.80155 -0.79652,2.50555 -1.00108,2.22688 -1.94319,4.71087 -1.94319,5.12349 0,0.21898 -0.21925,0.58011 -0.48722,0.80251 -0.27542,0.22857 -0.40701,0.65709 -0.30271,0.98573 0.10149,0.31975 -0.10079,1.12742 -0.44951,1.79482 -1.32343,2.53287 -2.60056,5.47232 -2.60056,5.98547 0,0.29341 -0.288,1.098 -0.64,1.78798 -1.20901,2.36986 -1.2841,2.32894 5.28,2.87799 20.93764,1.75134 32.25274,3.15056 46.6246,5.76557 12.57491,2.28805 26.07987,5.50515 33.8483,8.06321 3.42808,1.12884 3.89205,1.35982 3.28,1.63293 -0.39797,0.17758 -0.7129,0.60453 -0.7129,0.96648 0,0.62121 -0.31641,1.82735 -1.02149,3.89382 -0.18015,0.528 -0.42196,1.464 -0.53734,2.08 -0.15043,0.8031 -0.38965,1.13608 -0.84548,1.17684 -0.34963,0.0312 -4.95569,-0.92311 -10.23569,-2.12081 z m 606.7675,0.47243 c -0.1,-0.25967 0.065,-0.61649 0.3658,-0.79414 0.4162,-0.24561 0.4512,-0.3858 0.1467,-0.58734 -0.3157,-0.20898 -0.3044,-0.39541 0.054,-0.88535 0.5072,-0.69363 0.7244,-0.60672 0.8457,0.33837 0.2106,1.64083 -0.9265,3.19381 -1.4121,1.92846 z M 757.18,439.34 c 0.077,-0.231 0.329,-0.483 0.56,-0.56 0.24,-0.08 0.36,0.04 0.28,0.28 -0.077,0.231 -0.329,0.483 -0.56,0.56 -0.24,0.08 -0.36,-0.04 -0.28,-0.28 z m 365.2068,-2.24129 c -0.116,-0.18771 -0.1307,-0.4215 -0.033,-0.51953 0.2632,-0.26325 1.1658,0.14768 1.1658,0.53078 0,0.43432 -0.8631,0.42575 -1.1332,-0.0113 z m -353.92578,-1.60942 c -0.28242,-0.45696 0.65204,-1.39023 1.10914,-1.10773 0.2473,0.15284 0.25307,0.40134 0.0195,0.83786 -0.37127,0.69373 -0.80285,0.79693 -1.12859,0.26987 z M 758.24,434.88 c 0.10877,-0.176 0.26127,-0.32 0.33889,-0.32 0.0776,0 0.14111,0.144 0.14111,0.32 0,0.176 -0.1525,0.32 -0.33889,0.32 -0.18638,0 -0.24988,-0.144 -0.14111,-0.32 z m 364.8576,-0.51478 c 0.1918,-0.4997 0.7913,-0.4585 0.9663,0.0664 0.057,0.17139 -0.1777,0.33282 -0.5218,0.35874 -0.4298,0.0324 -0.5689,-0.10077 -0.4445,-0.42513 z M 758.72,432.64 c 0,-0.176 0.144,-0.32 0.32,-0.32 0.176,0 0.32,0.144 0.32,0.32 0,0.176 -0.144,0.32 -0.32,0.32 -0.176,0 -0.32,-0.144 -0.32,-0.32 z m 12.85654,-1.1369 c 0.14472,-0.69508 0.71264,-0.73761 0.84254,-0.0631 0.0675,0.35027 -0.0895,0.56 -0.41908,0.56 -0.30743,0 -0.48383,-0.20699 -0.42346,-0.4969 z M 1130.72,419.84 c 0.1088,-0.176 0.2613,-0.32 0.3389,-0.32 0.078,0 0.1411,0.144 0.1411,0.32 0,0.176 -0.1525,0.32 -0.3389,0.32 -0.1864,0 -0.2499,-0.144 -0.1411,-0.32 z m -344.16,-4.77727 c 0,-0.53222 1.24033,-2.26273 1.62179,-2.26273 0.16402,0 0.29421,0.18 0.28932,0.4 -0.0118,0.53141 -1.91111,2.38263 -1.91111,1.86273 z m 2.56,-3.21098 c 0,-0.15849 0.45027,-0.60879 1.00059,-1.00066 l 1.0006,-0.71248 -0.53979,0.82382 c -0.55617,0.84882 -1.4614,1.39968 -1.4614,0.88932 z m 345.92,-1.71085 c 0,-0.25983 0.2265,-0.55933 0.5032,-0.66554 0.351,-0.13467 0.472,-0.032 0.4,0.33924 -0.1313,0.67734 -0.9032,0.95619 -0.9032,0.3263 z m 1.92,-3.9971 c 0,-0.46413 0.795,-1.97876 1.04,-1.9813 0.2887,-0.003 0.316,1.02722 0.046,1.73133 -0.1974,0.51423 -1.0858,0.71877 -1.0858,0.24997 z m 2.5952,-5.94134 c -0.2762,-0.33281 -0.2472,-0.53369 0.1209,-0.83919 0.2661,-0.2209 0.4839,-0.58344 0.4839,-0.80565 0,-0.22221 0.36,-0.63989 0.8,-0.92819 0.7407,-0.48533 0.8,-0.48535 0.8,-3.8e-4 0,0.60895 -1.2922,3.01095 -1.6197,3.01095 -0.1221,0 -0.3853,-0.19689 -0.5851,-0.43754 z m 1.408,-4.03724 c -0.236,-0.38188 0.064,-0.96522 0.4957,-0.96522 0.3894,0 0.3919,0.86612 0,1.10633 -0.1638,0.10126 -0.3883,0.0378 -0.4989,-0.14111 z m -749.8597,-29.248 c -6.67547,-7.05833 -15.66035,-27.67281 -20.17006,-46.27722 -3.51939,-14.51896 -5.0095,-29.80049 -4.27684,-43.86043 0.20387,-3.91243 0.43659,-7.17943 0.51716,-7.26 0.0806,-0.0806 1.64584,-0.22301 3.47839,-0.31653 l 3.33191,-0.17006 0.18338,1.36722 c 0.1079,0.80445 0.031,1.61118 -0.18675,1.9599 -0.30273,0.48476 -0.2459,0.71691 0.3121,1.27491 0.66172,0.66172 1.05104,0.69091 12.95472,0.97118 11.55299,0.27201 17.02282,0.59747 17.46453,1.03918 0.10556,0.10556 0.03,0.54739 -0.16799,0.98185 -0.19795,0.43446 -0.24078,0.86356 -0.0952,0.95355 0.37208,0.22996 0.68115,2.81488 0.38398,3.21146 -0.13508,0.18027 -0.43355,0.80141 -0.66325,1.3803 -0.3823,0.96347 -0.35579,1.11836 0.31334,1.83062 0.59257,0.63076 0.65694,0.8673 0.33996,1.24923 -0.23042,0.27765 -0.35727,1.19949 -0.30886,2.24461 0.0452,0.97541 -0.016,1.87161 -0.13595,1.99157 -0.37424,0.37424 -0.24067,1.29827 0.34189,2.36513 0.42346,0.7755 0.46247,1.0614 0.16,1.1726 -0.47099,0.17314 -0.53618,1.25178 -0.0922,1.52615 0.196,0.12114 0.1912,0.49683 -0.0132,1.03448 -0.17655,0.46435 -0.21561,1.28725 -0.0868,1.82867 0.1288,0.54143 0.19348,1.12841 0.14375,1.30441 -0.0497,0.176 -0.0908,0.824 -0.0912,1.44 -4.1e-4,0.616 -0.13684,1.28562 -0.30318,1.48804 -0.19153,0.23307 -0.16706,0.90567 0.0667,1.83409 0.20303,0.80634 0.28092,1.69599 0.17308,1.97702 -0.17757,0.46275 0.40021,0.48595 6.1235,0.24591 29.89762,-1.25398 53.21727,1.77835 78.31957,10.18415 6.7848,2.27197 9.51837,3.44499 9.30767,3.99407 -0.0944,0.24596 -0.26229,2.28084 -0.37313,4.52196 -0.11084,2.24112 -0.26111,4.13741 -0.33393,4.21399 -0.0728,0.0766 -2.54174,-0.55151 -5.4865,-1.39575 -25.14366,-7.20844 -38.25295,-9.60176 -57.27723,-10.45692 -10.94863,-0.49216 -30.42299,0.37502 -31.70456,1.41177 -1.25719,1.01703 -4.12065,8.01544 -5.47266,13.37541 -1.17483,4.65754 -1.42826,6.90777 -2.57657,22.87735 -0.5201,7.2331 -1.03697,13.3891 -1.1486,13.68 -0.36097,0.94068 -1.28625,0.56634 -2.95099,-1.19387 z m 682.9593,-65.8251 c -0.2793,-0.45185 0.3375,-1.06861 0.7893,-0.78935 0.1914,0.11825 0.3479,0.4225 0.3479,0.67612 0,0.53875 -0.8236,0.62075 -1.1372,0.11323 z m -3.8254,-6.13212 c 0.085,-1.628 0.2554,-3.896 0.3781,-5.04 0.1228,-1.144 0.2325,-3.88 0.2439,-6.08 0.021,-4.05139 0.5036,-5.68522 0.8331,-2.81977 0.095,0.82513 0.4247,1.77883 0.7328,2.11934 0.5361,0.59237 0.532,0.6265 -0.096,0.79063 -0.5693,0.14889 -0.6123,0.28612 -0.3259,1.03959 0.2055,0.5405 0.2174,1.00431 0.031,1.22913 -0.1642,0.1986 -0.309,0.72108 -0.3218,1.16108 -0.099,3.41898 -0.4286,7.0203 -0.7061,7.72149 -0.1831,0.46282 -0.3056,1.03882 -0.2722,1.28 0.1222,0.88157 -0.023,1.55851 -0.3338,1.55851 -0.1999,0 -0.261,-1.10387 -0.1638,-2.96 z m 5.4563,-1.49789 c -0.1013,-0.16384 -0.038,-0.38834 0.1411,-0.49888 0.1789,-0.11055 0.3252,0.0235 0.3252,0.29788 0,0.56209 -0.192,0.64486 -0.4663,0.201 z m -1.2672,-0.61916 c -0.1378,-0.22304 -0.1642,-0.49195 -0.059,-0.59757 0.2863,-0.28639 0.5986,0.13481 0.4439,0.59886 -0.1084,0.32517 -0.1837,0.32492 -0.3854,-0.001 z m 0.9502,-3.32295 c -0.4828,-1.56704 -0.4468,-2.03718 0.1859,-2.43234 0.7869,-0.49143 1.0888,-0.29105 0.751,0.49854 -0.135,0.31559 -0.2139,0.9698 -0.1754,1.4538 0.069,0.87296 -0.525,1.24768 -0.7615,0.48 z m -0.3708,-4.53339 c -0.2936,-0.76526 0.094,-1.48494 0.6789,-1.26049 0.5842,0.22418 0.5215,1.43581 -0.085,1.63543 -0.2199,0.0724 -0.4873,-0.0963 -0.5943,-0.37494 z M 1074.88,281.76 c 0.2191,-0.264 0.5202,-0.48 0.6691,-0.48 0.149,0 0.1879,0.216 0.087,0.48 -0.1013,0.264 -0.4024,0.48 -0.6691,0.48 -0.3948,0 -0.4109,-0.0892 -0.087,-0.48 z m -1.92,-0.44223 c 0,-0.352 0.144,-0.729 0.32,-0.83777 0.176,-0.10877 0.32,0.0902 0.32,0.44223 0,0.352 -0.144,0.729 -0.32,0.83777 -0.176,0.10877 -0.32,-0.0902 -0.32,-0.44223 z m 2.2449,-4.91777 c 0,-0.22 0.1287,-0.59537 0.28,-0.83416 0.3516,-0.55485 0.8147,0.0889 0.5535,0.76948 -0.2182,0.56871 -0.8403,0.61698 -0.8335,0.0647 z" transform="translate(-217.603436,-266.334707)"/>
</svg>