<svg xmlns="http://www.w3.org/2000/svg" width="997.051" height="892.098" viewBox="0 0 997.051 892.098"><path d="m718.658 1145.378.098-10.178 1.262-1.175c.694-.646 1.262-1.273 1.262-1.392s.396-.613.88-1.097c3.101-3.104 2.962-2.773 3.287-7.784.163-2.504.443-8.08.623-12.392.39-9.337.6-11.52 1.11-11.52.206 0 .864.36 1.46.8s1.356.8 1.688.8 1.22.504 1.971 1.12 1.64 1.13 1.974 1.143 1.039.3 1.567.637 1.176.698 1.44.803c.264.104 1.015.456 1.668.781l1.189.591 1.713-2.297c3.169-4.25 14.446-21.686 19.907-30.778 22.231-37.02 37.132-66.534 50.73-100.48 4.714-11.77 7.344-19.353 11.805-34.038 9.212-30.323 13.402-48.993 16.17-72.042 1.685-14.025 2.535-33.515 1.888-43.28l-.206-3.118-1.923-.961c-1.058-.529-2.1-.961-2.315-.961s-1.308-.628-2.429-1.394c-2.014-1.38-4.218-2.655-7.637-4.421-.968-.5-2.48-1.335-3.36-1.856-1.625-.962-4.995-2.644-5.981-2.987-1.027-.356-1.461-1.658-1.834-5.502-.205-2.112-.528-4.884-.718-6.16-.344-2.311-.348-2.32-1.346-2.322-.55-.001-1.374-.197-1.83-.435-.457-.238-1.364-.533-2.016-.655-.798-.15-1.274-.452-1.459-.925-.15-.387-.516-3.511-.811-6.943-.975-11.332-3.275-25.58-6.11-37.86-.602-2.607-1.095-4.922-1.095-5.144 0-.686 11.124-4.005 18.247-5.445 7.374-1.49 17.217-2.6 17.804-2.006 1.041 1.054 5.661 20.977 7.916 34.135 3.486 20.346 4.666 33.332 4.901 53.92.288 25.252-1.054 41.852-5.226 64.64-3.923 21.423-9.4 40.844-21.391 75.84-9.18 26.795-16.42 43.924-29.618 70.08-12.466 24.705-20.88 39.118-45.58 78.08-18.773 29.611-23.426 36.573-29.04 43.458l-.733.898zM702.56 1134.4c-.109-.176-.045-.32.141-.32s.339.144.339.32-.063.32-.141.32-.23-.144-.339-.32m.027-1.557c-.138-.223-.165-.492-.06-.598.287-.286.6.135.445.6-.109.324-.184.324-.386 0zm-149.383-23.163c-8.47-13.246-15.548-25.706-22.427-39.476-2.982-5.968-4.697-9.802-4.697-10.501 0-.405 3.776-1.78 5.522-2.012.661-.087 1.282-.287 1.379-.445.364-.59 1.045-.24 2.57 1.32l1.569 1.607 5.44-.188c2.992-.103 6.088-.236 6.88-.296s2.664-.194 4.16-.298 3.656-.27 4.8-.368c3.916-.336 6.56-.513 7.6-.511.572 0 1.04-.131 1.04-.295 0-.374 1.183-.392 1.412-.022.094.152.665.12 1.27-.069l1.1-.344-.601-1.179c-.33-.648-2.025-3.533-3.764-6.41-7.713-12.76-14.719-27.579-17.375-36.751-.716-2.474-.71-2.41-.185-1.974.229.19.7.271 1.047.18.348-.09 1.06.059 1.584.332s1.186.497 1.473.499c.286 0 .7.218.919.482s.65.48.956.48c.993 0 2.055 1.473 3.496 4.85 2.083 4.88 8.166 16.737 11.22 21.87 2.308 3.877 7.88 12.316 11.365 17.21l1.089 1.53-1.915 3.04c-1.054 1.672-1.823 3.19-1.71 3.374.233.377 7.094.147 11.819-.397 5.73-.66 15.424-3.215 18.791-4.955 1.225-.633 11.292-8.037 15.129-11.127 1.76-1.417 4.245-3.561 5.522-4.764 1.294-1.22 2.478-2.09 2.674-1.969 1.111.687-1.857 7.438-5.97 13.578-5.307 7.923-11.18 14.91-19.647 23.378-10.857 10.857-20.804 18.644-33.299 26.066-3.865 2.297-16.54 8.79-17.163 8.794-.199 0-1.582-1.906-3.073-4.238zm310.67 1.813c-.12-.311-.048-.458.186-.38.478.16.742.887.32.887-.17 0-.399-.228-.506-.507m-4.644-2.817c-.262-.315-.275-.524-.043-.668.186-.115.426.023.535.306.27.704-.027.923-.492.362m-2.8-1.01c-.104-.271-.1-.583.01-.692.31-.31 1.86.51 1.64.867-.307.496-1.438.375-1.65-.175m4.393-.279c-.239-.287-.34-.617-.223-.733.299-.3.938.413.784.873-.088.265-.261.222-.561-.14m-6.743-.636c0-.246-.432-.599-.96-.783-1.124-.392-1.338-1.184-.24-.89.396.106.972.195 1.28.198.408 0 .56.265.56.964 0 .528-.144.96-.32.96s-.32-.202-.32-.449m8.16-.831c-.109-.176.027-.32.301-.32s.499.144.499.32-.135.32-.301.32-.39-.144-.499-.32m-2.604-1.12c-.102-.264-.445-.48-.764-.48-.922 0-1.592-.351-1.592-.834 0-.643.482-.554 1.92.354.697.44 1.406.8 1.575.8s.396.144.505.32c.112.182-.16.32-.631.32-.456 0-.912-.216-1.013-.48m-9.876-1.76c-.61-.262-.607-.276.08-.297.396-.012.72.121.72.297s-.036.31-.08.298a16 16 0 0 1-.72-.298m5.76-.64c-.319-.352-.475-.64-.349-.64.457 0 1.469.67 1.469.971 0 .502-.5.355-1.12-.331m-2.973-2.092c-.534-.605-.05-.604.752 0 .468.354.503.47.141.468-.264 0-.666-.213-.893-.47zm-9.85-1.144c-.204-.332.361-.908.903-.92.29-.01.298.113.046.77-.227.59-.636.656-.948.15m7.543-.434c0-.286.188-.398.48-.286.264.102.48.313.48.47s-.216.286-.48.286a.476.476 0 0 1-.48-.47m-137.823-60.148c-5.43-4.082-14.223-15.112-21.806-27.353-2.9-4.68-5.336-8.757-5.416-9.06-.085-.323.408-1.248 1.194-2.24 1.269-1.601 7.912-9 11.37-12.664l1.601-1.696 2.018.471c1.11.26 2.19.614 2.4.788.489.405 1.103-.104 3.606-2.988 2.147-2.474 6.282-8.117 10.409-14.205 4.67-6.89 5.982-8.675 6.377-8.675.17 0 .564.252.874.56s.923.742 1.36.963c.438.222 1.228.686 1.756 1.03.528.345 1.392.829 1.92 1.076.528.246 1.31.827 1.736 1.29.426.462.978.841 1.226.841.462 0 2.735 1.717 4.338 3.276.821.798 4.638 3.124 5.128 3.124.698 0 11.74-25.354 14.106-32.389.786-2.338 3.462-11.307 5.946-19.931 4.86-16.875 6.259-21.52 6.677-22.182.192-.302.385-.122.684.64.23.584 1.13 1.803 2.003 2.708 2.563 2.659 2.54 2.92-1.724 19.634-3.273 12.83-5.326 20.597-6.255 23.656-.45 1.483-3.334 8.827-6.408 16.32-12.68 30.904-17.535 41.234-23.908 50.882-1.461 2.212-5.11 7.792-8.107 12.4-5.57 8.561-7.272 10.952-9.73 13.668l-1.397 1.542zM528.559 906.72c-1.777-14.181-1.912-31.266-.382-48.32 1.118-12.467 3.878-27.523 8.323-45.406 1.133-4.557 2.06-8.483 2.06-8.726 0-.463-1.904-.43-10.56.18-2.024.143-3.968.27-4.32.281s-1.7.175-2.997.362c-1.297.188-2.494.257-2.66.154-.167-.103-.618.075-1.003.395s-.52.378-.3.128c.22-.251.4-.718.4-1.037 0-.32.782-2.14 1.737-4.045 5.67-11.305 13.876-22.996 24.857-35.41 5.314-6.009 5.017-5.59 3.74-5.276-.58.142-1.624.56-2.322.929-.697.369-1.448.671-1.668.671-.43 0-3.048.811-4.104 1.271-.352.154-1.059.37-1.57.483-.857.187-.751.003 1.324-2.298 7.436-8.249 18.453-17.816 28.566-24.808 4.838-3.344 11.24-7.288 11.83-7.288.456 0 2.57 2.2 2.57 2.673 0 .083-1.674 3.151-3.721 6.819-2.047 3.667-5.615 10.484-7.93 15.148-25.408 51.192-36.438 98.592-34.48 148.16.185 4.664.235 8.578.113 8.697-.122.12-.87.1-1.662-.044a66 66 0 0 0-3.255-.477c-1.727-.205-1.82-.18-1.92.524-.058.407-.358-1.276-.666-3.74m249.3-23.78c-.82-1.134-3.108-2.977-3.758-3.026-.436-.033-.66-.272-.659-.702.003-.893.969-7.283 3.024-20.005.953-5.9 1.83-11.591 1.949-12.647.118-1.056.55-3.725.96-5.932 2.06-11.112 3.636-24.28 4.938-41.268 1.177-15.35 1.295-16.452 1.64-15.36.281.891 1.195 18.183 1.47 27.84.294 10.28-.748 28.93-2.169 38.82-.641 4.467-3.743 21.269-5.313 28.78-.863 4.132-1.209 4.712-2.083 3.5M614.724 828.9c.003-.142.144-.475.315-.739.267-.414.31-.405.315.061.003.298-.139.63-.315.739s-.318.081-.315-.061m.235-4.427c-.085-.444-.046-.874.087-.956s.304.281.382.807c.17 1.158-.25 1.291-.469.15m-.98-2.938c-.468-.12-.537-.343-.362-1.161.264-1.235.18-1.141 1.122-1.246.561-.063.744.048.653.393-.07.264-.143.828-.16 1.253-.035.824-.322.998-1.252.76m-1.989-4.173c.26-1.035.118-.9 1.232-1.168l.903-.217-.903 1.132c-1.083 1.357-1.532 1.45-1.232.253m2.409-2.447a.7.7 0 0 0-.418-.606c-.23-.088-.604-.787-.832-1.554-.229-.767-.63-1.8-.894-2.296-.62-1.168-.311-1.484.395-.406.299.456.814.828 1.146.828.422 0 .603.229.603.763 0 .866.727 2.415 1.3 2.77.21.13.283.396.162.591-.315.51-1.462.44-1.462-.09m-.77-10.011c-.431-2.029-.475-12.495-.06-14.07.227-.86.43-2.51.449-3.665s.165-2.448.323-2.874c.159-.426.316-1.818.35-3.094.058-2.179.02-2.32-.625-2.32-.418 0-.752.25-.854.64-.092.352-.355.64-.585.64-.605 0-.836-1.47-.604-3.846.111-1.14.25-3.01.307-4.154.238-4.734.993-9.683 1.536-10.08.727-.533.671-1.12-.107-1.12-.367 0-.64-.213-.64-.5q-.001-.501.72-.4c.709.098.721.041.79-3.74.094-5.174.084-5.046.386-5.425.146-.184.366-1.167.489-2.185.157-1.3.454-2.098 1-2.686 1.096-1.184 1.23-4.474.204-5.027-.747-.403-2.949-2.71-2.949-3.09 0-.51.824-.346 1.687.333.885.696 2.457.848 3.015.29.253-.253.554-.24 1.09.047 1.126.603 2.398.434 3.591-.475.593-.452 1.226-.822 1.408-.822s.515-.222.74-.494c.244-.293.527-.376.699-.204.337.337-.699 4.538-1.118 4.538-.151 0-.188.275-.08.612.106.337-.172 2.055-.62 3.818-.446 1.763-.812 3.564-.812 4.002 0 1.744-.604 2.23-1.623 1.307-.356-.322-.627-.382-.759-.168-.113.182.089.584.448.892.839.717.83 1.057-.029 1.057-1.076 0-3.154.706-2.967 1.008.093.15.43.134.747-.036.747-.4 1.02-.108.782.835-.12.478-.048.753.196.753.212 0 .46-.288.552-.64.111-.425.437-.64.968-.64.71 0 .776.098.586.88-.117.484-.202 1.348-.187 1.92.019.75-.116 1.04-.486 1.04-.377 0-.458.19-.309.72.143.508.113.59-.101.281-.167-.241-.5-.37-.741-.286-.24.085-.823-.116-1.295-.446-.826-.579-1.506-.348-1.068.362.106.17-.013.71-.264 1.2-.25.489-.558 2.056-.682 3.483-.193 2.214-.152 2.624.283 2.79.762.293.615 1.092-.313 1.7-.617.404-.776.72-.639 1.267.101.402.026.827-.166.945-.192.12-.272.511-.177.872.231.885-.262 1.719-1.148 1.942-.668.168-.728.36-.725 2.356.002 1.196-.129 2.36-.29 2.588-.185.26-.16.546.065.772.264.264.443.135.682-.494.437-1.15.805-1.072 1.213.256.262.856.232 1.422-.136 2.48-.261.755-.515 2.686-.563 4.293-.048 1.606-.189 3.084-.312 3.283s-.14.624-.039.944.03 3.307-.16 6.637-.387 6.885-.437 7.9c-.102 2.102-.356 2.62-.637 1.298m1.876-35.278c.015-2.485-.416-3.235-1.111-1.935-.28.522-.276.91.012 1.608.32.77.296 1.005-.144 1.445-.414.414-.444.622-.143.985.21.253.604.417.877.364.392-.076.498-.588.509-2.467m-.375-6.11c-.257-.984-.731-1.096-.731-.174 0 .49.18.819.45.819.294 0 .391-.224.281-.645m4.98-7.52c.248-.247-.341-.795-.85-.79-.816.007-1.453.515-1.187.945.204.331 1.662.22 2.037-.155m1.618-6.678c.283-.341.256-.485-.12-.63-.27-.103-.489-.131-.489-.063s-.087.351-.194.63c-.24.624.303.666.803.063M877.12 781.12a.32.32 0 0 1 .32-.32.32.32 0 0 1 .32.32.32.32 0 0 1-.32.32.32.32 0 0 1-.32-.32m-4.8-3.539c0-.186.144-.25.32-.141s.32.261.32.339c0 .077-.144.141-.32.141s-.32-.152-.32-.339m3.239-.414c-.34-.41-.185-.847.3-.847.359 0 .627.918.323 1.106-.148.092-.429-.025-.623-.259M615.04 775.84c0-.264.211-.48.47-.48.286 0 .398.188.286.48-.102.264-.313.48-.47.48s-.286-.216-.286-.48m256.24-.07c-.93-.14-1.133-.67-.5-1.302.292-.292.516-.255.98.164.517.468.64.479.895.075.495-.782.348-1.177-.678-1.826l-.982-.622.978-.028c1.443-.041 1.766-.347 1.118-1.063-.302-.334-.748-.608-.99-.608-.243 0-.53-.252-.639-.56s-.485-.88-.837-1.27c-.528-.588-.568-.796-.231-1.203.341-.411.271-.598-.433-1.152-.463-.364-.841-.867-.841-1.118 0-.501-.973-.62-1.456-.18-.167.153-.77.365-1.339.472-.994.185-1.066.126-1.84-1.509-.443-.936-.805-1.911-.805-2.167s-.173-.638-.384-.849c-.299-.299-.299-.47 0-.768.552-.552.473-.86-.177-.69-.723.19-1.803-1.553-1.518-2.45.139-.437.056-.636-.265-.636-.908 0-.818-.921.184-1.901.759-.742.914-1.073.636-1.351-.487-.487-1.356.203-1.356 1.078 0 1.17-.792.384-2.022-2.01-2.355-4.578-3.723-7.183-4.19-7.976-.259-.44-1.42-2.581-2.581-4.758-2.039-3.822-2.093-3.985-1.599-4.74.6-.916 1.315-.821 1.174.156-.074.512.169.79.992 1.134 1.14.476 2.306 1.835 2.512 2.928.066.352.411.682.767.733s.786.355.957.675c.932 1.751 2.152 3.217 3.18 3.824.657.387 1.304 1.092 1.489 1.621.179.515.532 1.015.783 1.111.252.097.458.525.458.952s.216.858.48.96c.683.262.594.809-.24 1.485-.862.699-.49 1.27.445.685.553-.345.752-.323 1.266.142.335.303.609.83.609 1.17 0 .341.489 1.191 1.086 1.89 1.739 2.03 2.107 5.78.578 5.888-.777.054-1.664.58-1.664.985 0 .356.304.452 1.196.378 1.031-.085 1.196-.208 1.2-.893.007-1.261 1.016-1.225 1.295.046.127.576.388 1.3.582 1.61.279.447.221.661-.281 1.044-.537.41-.562.528-.163.79.307.2.612.19.88-.033.55-.457 1.562.314 1.065.811-.392.392-.45 1.486-.078 1.486.14 0 .447-.18.681-.4.35-.329.39-.246.222.463-.13.555-.054.955.215 1.12.474.292 2.14 3.607 2.156 4.289.006.246.222.728.48 1.07.259.34.45.989.426 1.44-.04.752-.054.76-.182.098-.076-.396-.34-.72-.585-.72-.46 0-1.329 1.272-.88 1.29.138.006-.029.222-.37.48-.342.259-.702.448-.8.422a19 19 0 0 0-1.059-.181m-2.96-11.957c0-.249-.317-.498-.705-.553s-.793-.38-.901-.72c-.208-.654-.794-.86-.794-.28 0 .49 1.7 2.204 2.08 2.097.176-.05.32-.294.32-.544m-2.72-4.613c0-.264-.135-.48-.301-.48-.404 0-.693.5-.437.755.36.36.738.22.738-.275m.96-2.08c0-.352-.144-.64-.32-.64s-.32.288-.32.64.144.64.32.64.32-.288.32-.64m-2.88-4.48a.32.32 0 0 0-.32-.32.32.32 0 0 0-.32.32c0 .176.144.32.32.32a.32.32 0 0 0 .32-.32m4.06 18.49c-.297-.654-.54-1.256-.54-1.337s.503-.122 1.119-.09c1.162.06 1.453.341.664.644-.251.096-.512.58-.58 1.074l-.124.899zm1.54.39c.109-.176.261-.32.339-.32.077 0 .141.144.141.32s-.152.32-.339.32c-.186 0-.25-.144-.141-.32m-249.92-1.28c.109-.176.342-.32.518-.32s.23.144.122.32-.342.32-.518.32-.23-.144-.122-.32m247.343-1.628c-.33-.533.412-1.145.853-.704.37.37.138 1.052-.356 1.052-.155 0-.379-.157-.497-.348m1.51-.766c-1.393-.768-1.467-1.04-.426-1.579 1.277-.66 1.333-.648 1.333.274 0 .43.144.87.32.979.453.28.398.806-.08.769-.22-.018-.736-.217-1.147-.443m-249.36-1.996c-.27-.711-.228-.946.23-1.28.833-.61.925-.528.961.87.04 1.52-.675 1.767-1.19.41m246.907.55c-.109-.176-.045-.32.141-.32.187 0 .339.144.339.32s-.063.32-.141.32-.23-.144-.339-.32m-244.91-3.84c0-.44.073-.62.162-.4s.089.58 0 .8-.161.04-.161-.4m-1.65-.773c0-.25-.18-.518-.4-.597s-.29-.26-.157-.403c.134-.143.454.017.71.356q.828 1.096.167 1.097c-.176 0-.32-.204-.32-.453m-28.48-1.166c0-.186.144-.25.32-.141s.32.261.32.339c0 .077-.144.141-.32.141s-.32-.153-.32-.339m28.48-.64c0-.186.144-.25.32-.141s.32.261.32.339c0 .077-.144.141-.32.141s-.32-.153-.32-.339m-22.88-.941c-.109-.176.027-.32.301-.32.275 0 .499.144.499.32s-.135.32-.301.32-.39-.144-.499-.32m10.72-5.901c0-.275.144-.499.32-.499s.32.136.32.301c0 .166-.144.39-.32.499s-.32-.027-.32-.301m-3.936-.381c-.378-.378-.25-.758.256-.758.264 0 .48-.216.48-.48s.154-.48.341-.48c.535 0 .198 1.743-.357 1.848-.272.052-.596-.007-.72-.13m-14.123-.404c-.234-.378.117-1.314.493-1.314.379 0 .369 1.191-.012 1.426a.35.35 0 0 1-.48-.112m5.72-1.49c.342-.255.897-.464 1.234-.464.442 0 .556-.15.408-.534-.224-.584.297-1.053 1.177-1.061.62-.005.786 1.098.218 1.448a.52.52 0 0 0-.191.604c.106.278-.375.403-1.658.432-1.65.037-1.754 0-1.188-.424m7.699-.464c-.109-.176.035-.32.32-.32s.429.144.32.32-.253.32-.32.32-.211-.144-.32-.32m-1.757-.733c-.888-.45-1.12-1.104-.649-1.827.276-.423.43-.414 1.293.072.845.477 1.004.488 1.16.08.237-.617 1.073-.611 1.073.007 0 .264-.22.48-.488.48s-.625.36-.792.8c-.346.911-.492.947-1.597.388m6.307-.766c-.246-.417.133-2.341.46-2.341.17 0 .206.517.082 1.2-.244 1.35-.322 1.515-.542 1.141m3.823.005c-.368-.368-.233-.746.267-.746.725 0 .577-.503-.32-1.09-.932-.612-1.01-1.086-.27-1.628.491-.358.485-.45-.08-1.213-.335-.453-.84-.887-1.119-.964-.281-.077-.758-.91-1.065-1.862-.306-.948-.833-2.2-1.171-2.782s-.615-1.345-.615-1.696c0-.591.145-.622 2-.425 1.16.123 2.232.433 2.552.737.646.614 2.209 4.858 2.342 6.363.082.915-.002 1.04-.69 1.04-.972 0-1.324.8-.674 1.532.438.491.435.67-.036 1.748-.527 1.205-.726 1.38-1.12.986m.926-6.366c-.942-.698-1.14-.56-.761.527.319.915.382.95.863.46.479-.486.471-.562-.102-.987m-1.459-1.676c0-.332-.693-1.024-1.027-1.024-.142 0-.079.288.141.64.404.647.886.855.886.384m-16.16 6.976c.109-.176.261-.32.339-.32.077 0 .141.144.141.32s-.152.32-.339.32c-.186 0-.25-.144-.141-.32m19.76-.08c.073-.22.405-.453.736-.517.522-.101.546-.047.175.4-.508.612-1.101.688-.911.117m-24.03-.737c.06-.313.304-.634.54-.713.276-.092.391.062.32.427-.06.313-.304.634-.54.713-.276.092-.391-.062-.32-.427m11.79.013c0-.09.174-.443.386-.782.318-.51.279-.736-.227-1.296-.524-.578-.545-.72-.146-.973.718-.454.862-.382 1.404.704.619 1.241.624 1.476.046 2.054-.435.435-1.463.64-1.463.293m-3.977-.759c-.391-.633-3.082-1.604-4.793-1.73-2.03-.149-2.644-.53-2.261-1.405.14-.32.286-.972.324-1.448.12-1.463.462-2.494.83-2.494.212 0 .29.407.197 1.037-.104.71.006 1.153.352 1.405.43.315.44.446.065.897-.325.392-.345.621-.077.889.267.267.432.168.637-.387.272-.737.285-.739.89-.134.412.412.954.58 1.653.513.885-.086 1.09.032 1.377.786l.338.887.415-.787c.347-.657.34-.848-.046-1.162-.38-.31-.302-.394.448-.48.727-.083.929-.284 1.011-1.004.057-.495.473-1.43.924-2.08.592-.851.772-.98.647-.46-.096.396-.054.72.093.72.538 0 1.593-1.712 1.593-2.584 0-1.028.577-1.551.99-.897.152.243.272 1.017.266 1.721s.078 2.124.186 3.156c.29 2.749.05 3.077-1.229 1.68-1.176-1.284-1.976-1.534-1.653-.516.154.485.012.712-.587.94-.983.374-1.382.973-.861 1.295.312.193.312.397-.001.982-.361.675-.43.692-.788.2-.548-.748-.899-.674-.483.103.336.628-.086.958-.457.357m15.177.131c0-.083.424-.37.942-.639.987-.51 1.828-.06.939.502-.464.294-1.881.397-1.881.137m-22.4-.968c-.338-.407-.264-.48.48-.48s.818.073.48.48c-.22.264-.435.48-.48.48s-.26-.216-.48-.48m16.174-.88c-.07-.22-.223-1.12-.342-2-.118-.88-.325-1.816-.46-2.08-.134-.264-.337-1.088-.45-1.83-.172-1.125-.126-1.32.276-1.167.317.122.482.618.482 1.447 0 .694.209 1.665.464 2.158.255.494.463 1.17.462 1.505 0 .334.096 1.003.214 1.487.215.88-.38 1.323-.646.48m-12.654-5.19c0-.286-.431-.765-.958-1.065-1.07-.609-1.123-.84-.586-2.56l.376-1.206 1.864.01 1.863.011v.992c.001 1.49-.573 2.762-1.62 3.592-.774.614-.939.653-.939.226m349.5-5.287c-20.12-1.08-38.798-4.869-57.383-11.64-7.013-2.554-17.877-7.308-17.877-7.822 0-.146.218-1 .485-1.898l.485-1.633 1.995-.178c1.097-.098 4.227-.332 6.955-.52 17.628-1.22 37.534-4.036 58.756-8.31 5.862-1.181 6.39-1.24 6.684-.743.176.297.616.837.978 1.2.363.364.995 1.215 1.406 1.892l.747 1.231 1.794-.216c.987-.12 4.387-.782 7.555-1.471s6.44-1.344 7.273-1.455c1.393-.185 1.536-.14 1.808.576.374.986 2.097 3.582 3.423 5.157.561.668 1.196 1.82 1.412 2.56.215.741 1.42 3.363 2.678 5.827l2.286 4.48 2.24-.095c2.999-.127 11.616-1.469 17.042-2.653 18.848-4.114 42.289-12.894 59.355-22.23 15.036-8.225 28.126-17.386 45.203-31.634 17.58-14.667 32.183-29.43 45.135-45.628 8.533-10.671 22.143-29.122 28.535-38.684 7.527-11.261 16.73-27.015 16.73-28.64 0-.515-.189-.85-1.875-3.323-.393-.576-.632-1.18-.53-1.344.1-.163-.11-.453-.466-.644s-.649-.646-.649-1.01-.36-1.09-.8-1.613-.8-1.209-.8-1.523c0-.315-.288-.939-.64-1.386-.352-.448-.64-1.1-.64-1.45s-.188-.707-.418-.795-.831-1.147-1.337-2.354-1.47-3.032-2.143-4.057c-.672-1.024-1.222-1.974-1.222-2.11s-.288-.508-.64-.827-.64-.823-.64-1.12-.504-1.06-1.12-1.695c-.616-.634-1.13-1.484-1.143-1.89-.013-.404-.303-1.167-.644-1.695s-.708-1.212-.814-1.52c-.107-.308-.319-.56-.472-.56s-.498-.468-.765-1.04c-.427-.911-1.544-2.636-2.333-3.6-.144-.176-.358-.572-.475-.88-.18-.471-.025-.56.976-.56.654 0 2.319.216 3.698.48 3.805.728 3.802.729 3.084-.72-.326-.66-.903-1.992-1.281-2.96s-.757-1.925-.84-2.127c-.408-.974 12.076 3.41 20.272 7.119 7.625 3.45 19.62 10.063 19.615 10.813 0 .585-7.328 15.268-10.871 21.795-10.752 19.804-20.153 34.633-34.084 53.762-16.403 22.524-24.417 32.127-38.867 46.572-9.774 9.773-16.498 15.803-27.856 24.983-29.4 23.762-47.203 34.425-75.68 45.328-18.404 7.046-33.794 11.014-51.048 13.16-10.306 1.282-23.14 1.807-32.252 1.318m-469.18-.23c-20.968-.63-43.436-5.222-64.917-13.267-10.203-3.821-19.811-8.013-20.345-8.877-.105-.17.202-2.26.682-4.648.737-3.671.962-4.341 1.456-4.341.321 0 2.416.706 4.654 1.568 10.06 3.876 26.247 9.48 32.475 11.243 11.524 3.262 22.277 5.257 31.953 5.926 4.065.281 4.442.148 4.442-1.567 0-.741.233-1.68.517-2.086.339-.484.459-1.104.347-1.794-.103-.63.02-1.424.306-1.972.263-.505.54-1.422.615-2.038s.344-1.984.597-3.04a37 37 0 0 0 .665-3.84c.298-2.787.409-3.04 1.327-3.04.446 0 2.609.304 4.807.675 2.203.373 4.107.552 4.244.4.477-.531.95-3.12.64-3.494-.201-.241-.087-.56.339-.944.622-.563.869-.527 8.398 1.24 11.871 2.785 19.355 4.245 31.278 6.101 11.111 1.73 28.46 3.647 37.76 4.173 7.217.407 6.78.23 7.196 2.916l.202 1.306-5.542 2.595c-17.556 8.218-37.932 13.708-59.046 15.908-4.694.49-17.78 1.134-20.89 1.03-.968-.033-2.84-.093-4.16-.132m133.38-2.232c.231-.092.507-.08.613.026.107.106-.082.182-.42.168-.372-.016-.448-.091-.193-.194m202.14-19.301c.109-.176.333-.32.499-.32s.301.144.301.32-.224.32-.499.32c-.274 0-.41-.144-.301-.32m66.141-21.464c.063-.19.252-.344.419-.344s.356.155.419.344c.063.19-.126.344-.419.344s-.482-.155-.419-.344m1.859-.296c0-.176.153-.32.339-.32s.25.144.141.32-.261.32-.339.32c-.077 0-.141-.144-.141-.32m6.119-2.936c-.338-.902.148-1.318 1.003-.86.719.384.611 1.346-.167 1.496-.35.067-.662-.17-.836-.636m-98.078-1.818c-.063-.113-.586-1.646-1.162-3.406-5.898-18.02-15.346-39.725-24.793-56.96-6.81-12.424-15.248-25.771-24.173-38.234-1.825-2.55-3.299-4.89-3.275-5.2.023-.311-.077-.566-.224-.566-.51 0-.666-1.057-.23-1.566.722-.846.847-1.563.342-1.982-.261-.217-.394-.606-.295-.864s.014-.67-.19-.915c-.286-.345-.237-.592.222-1.099.506-.559.524-.695.124-.944-.372-.231-.39-.414-.09-.898.411-.665-.046-3.252-.576-3.252-.155 0-.276-.612-.269-1.36l.012-1.36 1.57 1.683c3.92 4.202 13.457 16.494 20.58 26.525 3.395 4.781 6.166 8.165 5.79 7.071-.285-.827.136-2.159.682-2.159.26 0 .474-.144.474-.32s.252-.331.56-.345c.335-.015.399-.09.16-.187-.473-.19-.546-2.348-.08-2.348.176 0 .324-.324.329-.72s.441-1.144.97-1.663.894-1.118.813-1.33c-.082-.213.13-.639.47-.947s.618-.882.618-1.276c0-.417.46-1.122 1.097-1.68.603-.53 1.02-1.041.925-1.135s.15-.624.543-1.176c.581-.817.679-1.268.521-2.419-.15-1.1-.093-1.414.26-1.414.303 0 .43-.296.377-.88-.045-.506.22-1.288.622-1.84 1.15-1.576 1.507-3.513.96-5.212-.287-.891-3.396-5.818-6.406-10.15-5.688-8.188-14.228-18.915-23.525-29.553-3.44-3.935-6.38-7.375-6.535-7.645-.19-.33-.125-.576.197-.756.263-.147.776-.955 1.14-1.796.365-.84.98-1.795 1.366-2.121.702-.593.705-.59 4.69 3.36 6.77 6.713 15.067 15.94 21.25 23.633 22.597 28.119 40.191 58.744 52.67 91.68 4.143 10.932 11.065 32.81 10.546 33.329-.247.247-9.058 2.984-15.418 4.789-8.874 2.519-23.436 5.973-23.64 5.608m-52.684-105.47c0-.078-.144-.23-.32-.339s-.32-.045-.32.141c0 .187.144.339.32.339s.32-.063.32-.141m156.138 104.965c.43-.457.63-.938.487-1.169-.412-.666.746-1.273 1.647-.862.813.37 1.056 1.207.35 1.207-.23 0-.906.36-1.502.8-1.382 1.02-1.93 1.033-.982.024m-1.253-.405c-.003-.386.139-.79.315-.899.407-.252.407.49 0 1.12-.252.39-.311.349-.315-.221m5.115-1.49c0-.29.223-.529.496-.529s.71-.51.97-1.133c.531-1.271 1.17-1.196.995.117-.072.536-.344.898-.728.969-.337.062-.865.337-1.173.61-.508.45-.56.447-.56-.033m4.745-2.77c-.496-.546-.496-.605-.008-.792.56-.215 1.45.68 1.154 1.16-.243.394-.539.299-1.146-.369zm4.375-1.599c-.114-.185.182-.318.701-.315.698.004.792.074.419.315-.615.397-.874.397-1.12 0m4.96-2.77c0-.826.018-.833.632-.277.672.608.593 1.127-.17 1.127-.287 0-.462-.323-.462-.85m6.08-2.68c0-.64.667-1.611.976-1.42.514.318.338 1.07-.336 1.43-.46.246-.64.243-.64-.01m2.72-1.91c-.522-.224-.54-.28-.099-.298.298-.012.63.122.739.298.227.368.216.368-.64 0m.977-1.893a.357.357 0 0 1 .116-.49.357.357 0 0 1 .49.116.357.357 0 0 1-.116.49.357.357 0 0 1-.49-.116m1.503.081c-.542-.219-.507-.959.057-1.175.544-.209 1.285.578.992 1.053-.22.356-.413.379-1.049.122m1.562-1.497c-.392-.472-.173-.851.491-.851.235 0 .427.288.427.64 0 .738-.403.83-.918.21m1.744.15c-.099-.158.035-.466.298-.684.387-.321.476-.302.476.105 0 .597-.522.988-.774.58m-291.706-1.607c0-.178.136-.655.302-1.059s.83-2.463 1.477-4.575c1.171-3.828 4.18-12.325 4.958-14.005l.41-.886.72.676.719.675.468-.75 1.63-2.6c.64-1.019 2.026-3.575 3.081-5.68 1.845-3.68 2.272-4.228 2.725-3.494.139.225.371.199.708-.08.444-.368 6.998-8.178 13.37-15.932 1.227-1.494 5.695-6.75 9.927-11.68a1992 1992 0 0 0 13.582-16.004 1376 1376 0 0 1 9.398-11.124l3.51-4.084 1.628.2c1.83.227 3.067.865 3.067 1.585 0 .265-1.193 1.81-2.65 3.433-19.85 22.1-44.346 52.407-63.222 78.22-5.05 6.908-5.808 7.842-5.808 7.164m293.653-.407c-.322-.352-.538-.671-.48-.709s.526-.249 1.038-.47c.754-.325.981-.322 1.195.016.428.674.315 1.171-.345 1.525-.754.403-.69.42-1.408-.362m2.607-1.766c.231-.092.507-.08.613.026.107.106-.082.182-.42.168-.372-.016-.448-.091-.193-.194m2.3-.894c0-.26 2.611-1.502 2.787-1.327.207.207-1.844 1.477-2.387 1.479-.22 0-.4-.068-.4-.152m3.2-1.927c0-.33.324-.477 1.04-.47.984.01 1.006.036.419.48-.8.605-1.459.6-1.459-.01m2.8-1.36c-.667-.151-.717-.511-.136-.993.307-.256.52-.256.775 0 .256.256.626.157 1.355-.363.981-.698 1.562-.71 1.136-.02-.344.557-2.52 1.513-3.13 1.376m5.087-3.203c-.261-.423.675-2.253 1.333-2.605.482-.258.727-.225 1.026.135.24.29.263.473.06.473-.184 0-.645.504-1.026 1.12-.68 1.1-1.094 1.36-1.393.877m3.425-2.013c-.234-.234-.181-.666.176-1.43.394-.84.71-1.096 1.373-1.104.474-.006.952-.156 1.062-.335.369-.597 2.773-1.642 3.306-1.437.45.172.411.29-.271.815-.439.337-.997.616-1.24.62-.244.004-1.152.727-2.018 1.607-1.67 1.696-1.857 1.795-2.388 1.264m6.416-4.913c-.332-.864.051-1.372.46-.61.246.462.264.768.05.9-.177.11-.407-.02-.51-.29m1.152-1.612c0-1.28.565-1.792 1.128-1.022.23.314.606.452.911.334.654-.25.681-.771.041-.771a.495.495 0 0 1-.48-.505c0-.384.212-.46.88-.319.752.16.988.02 1.624-.966.658-1.02.872-1.14 1.84-1.026.63.073 1.1-.015 1.104-.208.01-.427 2.232-1.55 2.232-1.13 0 .173-.166.314-.37.314-.202 0-.886.549-1.52 1.22-1.443 1.53-3.133 2.718-3.523 2.476-.164-.1-.615.262-1.003.807-.484.679-.894.941-1.305.834-.43-.113-.599.014-.599.453 0 .335-.216.61-.48.61-.334 0-.48-.336-.48-1.101M961 642c.242-.308.632-.682.867-.831.257-.163.353-.564.242-1.007-.25-1 .603-1.29 1.412-.481.483.483.536.7.232.948-1.836 1.501-2.459 1.931-2.798 1.931-.293 0-.282-.142.046-.56m3.8-3.22c0-.168.296-.383.658-.477.419-.11.613-.036.534.202-.153.46-1.192.7-1.192.276m1.92-2.618c0-.436 1.474-1.563 2.32-1.773.734-.182.88-.115.88.407 0 .898-.955 1.6-2.16 1.588-.572-.006-1.04-.106-1.04-.222m3.84-1.602c0-.176.225-.32.499-.32s.41.144.301.32-.333.32-.499.32-.301-.144-.301-.32m5.936-4.24c-.135-.31-.587-.56-1.01-.56-1.063 0-.957-.483.212-.967 1.184-.49 1.544-.167 1.256 1.127-.174.784-.258.857-.458.4m.677-1.733c-.4-.401-.213-.76.587-1.125.44-.2.8-.558.8-.793 0-.244.345-.429.8-.429.498 0 .8-.181.8-.48 0-.859 3.904-4.314 4.88-4.319.497-.002.213.873-.5 1.543-.408.383-.821.696-.919.696-.097 0-.816.612-1.597 1.36-3.984 3.814-4.33 4.067-4.85 3.547m8.668-7.624c.085-.442.28-.803.436-.803.438 0 .334.84-.153 1.244-.353.293-.407.209-.283-.441m1.199-1.123c-.295-.478.116-.96.819-.96.708 0 .797.336.237.896-.468.468-.794.488-1.056.064m1.76-1.753c0-.496.305-.992.816-1.327 1.21-.793 1.558-.154.589 1.084-.971 1.24-1.405 1.315-1.405.243m4.503-3.607c1.08-1.436 8.431-9.04 8.738-9.04.11 0 .199.196.199.436 0 .475-5.468 6.284-5.915 6.284-.151 0-.896.648-1.654 1.44-1.374 1.434-2.17 1.946-1.368.88m9.589-9.589c.01-.138.504-.826 1.106-1.53.851-.995 1.178-1.193 1.478-.893.453.453-.134 1.372-.875 1.372-.243 0-.441.139-.441.309s-.288.463-.64.651-.635.23-.628.091m3.828-3.867c0-.674.59-1.344 1.184-1.344.572 0 .523.808-.087 1.417-.665.665-1.097.637-1.097-.073m1.751-1.999c-.126-.203.075-.673.447-1.045.536-.537.756-.594 1.071-.279.292.292.305.542.05.948-.427.676-1.26.876-1.568.376m2.409-2.21c0-.168.648-.944 1.44-1.725.792-.78 1.44-1.535 1.44-1.676 0-.334 2.53-2.694 2.888-2.694.414 0 .618.467.37.85-.12.188-.686.58-1.258.874-.572.293-1.04.745-1.04 1.004 0 .26-.144.472-.32.472s-.32.199-.32.441c0 .243-.636.963-1.414 1.6-1.48 1.213-1.786 1.36-1.786.854m6.907-7.26c-.14-.366.06-.828.59-1.357l.802-.803-.07 1.259c-.075 1.355-.926 1.935-1.322.902zm2.373-2.64c0-.325.975-.767 1.198-.544.08.08.05.3-.065.488-.256.413-1.133.456-1.133.055zm1.419-1.67c-.33-.531 1.865-2.595 2.5-2.352.436.167.462.343.162 1.054-.622 1.47-2.108 2.195-2.662 1.299m6.141-5.98c-.087-.14-.038-.45.109-.687.36-.583 1.334-.181 1.091.45-.2.52-.935.666-1.2.237m1.205-2.041c-.126-.204.081-.617.464-.927.38-.308.691-.717.691-.908s.198-.349.441-.349.66-.324.93-.72c.65-.96 1.352-.386.915.748-.625 1.62-2.894 3.04-3.44 2.156m4.076-5.303c.241-.307.619-.75.839-.983s.4-.58.4-.77.263-.109.585.182c.322.292.776.53 1.01.53.298 0 .25.193-.165.651-.324.358-.774.58-1 .494s-.495-.02-.599.149-.486.306-.85.306c-.582 0-.608-.066-.22-.559m-790.826-1.594c-3.284-4.963-10.59-17.483-14.33-24.558-3.61-6.827-9.285-18.402-9.285-18.938 0-.462.343-.497 2.922-.302 1.607.121 4.031.43 5.387.688l2.465.467 4.453-2.133c5.402-2.589 11.973-5.258 11.973-4.865 0 .158-.346.446-.77.638-.613.28-.912.88-1.469 2.954-.384 1.43-.828 3.826-.985 5.322s-.435 3.224-.616 3.84c-.18.616-.32 1.408-.309 1.76s-.205 1.864-.481 3.36c-.462 2.505-.58 3.35-.95 6.815-.098.924.255 2.15 1.476 5.12 2.964 7.209 2.843 6.806 2.63 8.792-.108 1.008-.187 2.409-.174 3.113.012.704-.064 1.496-.169 1.76s-.231 1.704-.281 3.2-.219 3.057-.375 3.47c-.277.734-.3.724-1.112-.503m793.682-.804c-.368-.833-.343-1.042.215-1.793.348-.467.948-.897 1.334-.954.509-.076.652-.261.52-.675-.21-.66.614-1.53.944-.997.428.693 1.09.342 1.03-.544-.053-.78.04-.87.82-.788.625.066.88-.053.88-.41 0-.276-.216-.585-.48-.686-.68-.261-.598-.667.316-1.58.755-.756.835-.77 1.58-.282.826.54.794 1.606-.039 1.286-.327-.125-.407-.01-.277.398.123.387-.183.928-.94 1.66-.616.598-1.12 1.267-1.12 1.487s-.288.6-.64.847c-.352.246-1.334 1.241-2.183 2.211l-1.543 1.763zm7.423-9.415c-.22-.089-.396-.33-.39-.535.013-.574 1.852-2.466 2.306-2.374.231.046.404-.232.404-.649 0-.401.144-.833.32-.96.176-.126.479-.518.673-.87s.67-.687 1.058-.745c.571-.084.634-.192.328-.56-.446-.537.109-1.415.894-1.415.295 0 .404-.186.288-.49-.184-.478 3.165-4.95 3.707-4.95.139 0 .252-.187.252-.416s.17-.587.38-.796c.292-.292.504-.266.925.115.453.41.485.653.19 1.436-.196.518-.612 1.024-.925 1.123-.314.1-.57.454-.57.788s-.288.762-.64.95-.64.56-.64.826-.36.843-.8 1.283-.8.958-.8 1.152-.297.655-.66 1.025-1.175 1.466-1.802 2.434c-2.08 3.212-3.23 4.14-4.498 3.628m-767.626-15.546c-1.849-3.615-5.894-12.644-5.894-13.156 0-.481 4.171-6.277 6.603-9.176 2.93-3.493 6.36-6.71 10.33-9.69 5.61-4.213 6.96-4.87 13.177-6.429 9.64-2.415 20.342-4.023 20.889-3.138.28.453-.212.78-10.199 6.792-15.757 9.483-21.38 13.535-25.92 18.675-2.552 2.888-4.613 5.662-4.837 6.51-.112.424.22 1.772.828 3.36l1.014 2.65-.802 1.6c-.44.88-.998 2.032-1.239 2.56-.649 1.425-1.654 3.036-1.897 3.038-.117.001-1.04-1.617-2.053-3.596m781.158-2.187c-.31-.789.378-2.259 1.006-2.15.385.068.606-.205.76-.94.219-1.034 1.385-2.294 2.142-2.314q1.1-.029-.96 2.488a243 243 0 0 0-2.055 2.54c-.569.72-.731.79-.893.376m4.532-7.218c-.24-.24 1.438-2.677 1.844-2.677.195 0 .61-.432.921-.96s.775-.96 1.03-.96c.62 0 .594.118-.376 1.686-1.234 1.997-2.908 3.422-3.42 2.911m4.256-5.48c0-.31.288-.743.64-.963s.64-.581.64-.804c0-.222.405-.905.9-1.517a26 26 0 0 0 1.633-2.325c.589-.973.822-1.138 1.18-.84.73.604.532 1.07-1.154 2.722-.88.864-1.89 2.182-2.242 2.93-.644 1.369-1.597 1.844-1.597.797m81.435-2.618c-7.659-6.395-9.468-7.625-24.955-16.971-10.643-6.423-10.369-6.234-9.84-6.77.809-.82 10.669.758 21.2 3.392 4.983 1.247 6.384 1.92 10.88 5.23 3.638 2.68 6.546 5.336 9.583 8.754 2.469 2.779 5.322 6.908 4.998 7.232-.07.069-.498-.119-.953-.417-.767-.503-.907-.504-1.919-.024-1.074.51-2.109.42-2.109-.18 0-.337-.95-.115-2.317.542-2.07.994-2.529.914-4.568-.788m-360.742-4.12c.191-.468 3.74-3.54 6.112-5.29 3.174-2.344 12.463-8.524 14.736-9.805 1.665-.938 1.944-1.005 2.639-.633.894.478.627.582 10.563-4.112 9.292-4.39 18.53-8.222 23.649-9.811 5.461-1.696 16.871-4.542 19.368-4.831l1.76-.204.026 1.213c.023 1.023.262 1.426 1.52 2.566.822.743 1.494 1.497 1.494 1.674 0 .37-1.237.792-7.68 2.616-6.947 1.966-16.45 5.048-29.12 9.444-18.627 6.463-28.19 10.12-39.424 15.076-5.477 2.417-5.826 2.547-5.643 2.097m284.902-1.034c-.391-1.233.958-2.077 1.765-1.105.225.271.258.48.076.48-.177 0-.397.288-.49.64-.217.834-1.085.824-1.351-.015m-310.405-3.256c-.21-.546.69-13.556.968-14.006.113-.183 1.96-1.742 4.104-3.463 25.469-20.454 55.093-38.391 85.818-51.962 27.084-11.963 48.342-18.896 72.871-23.769 17.674-3.51 32.576-5.271 56.889-6.723 10.42-.622 12.508-.821 12.291-1.172-.167-.27-.554-13.285-.464-15.624.023-.61.144-1.187.268-1.28.328-.248.347-5.13.02-5.13-.152 0-.18-1.044-.06-2.32.266-2.849.194-4.439-.22-4.853-.515-.515-.362-1.101.42-1.613.517-.34 3.09-.679 8.72-1.15 4.391-.368 8.417-.776 8.945-.906.957-.236.96-.245 1.052-2.809l.092-2.571 4.068-.208c10.481-.534 32.418-.11 46.948.908 7.543.529 21.78 2 22.644 2.34.508.2.28 1.066-2.293 8.702-5.403 16.032-15.23 41.116-16.264 41.512-.24.092-3.49-.137-7.222-.51-21.87-2.185-43.101-2.926-66.305-2.313-20.662.546-32.447 1.268-45.12 2.765-37.014 4.372-69.8 14.192-104.106 31.184-29.26 14.492-56.902 32.56-80.054 52.325-3.62 3.09-3.795 3.206-4.01 2.646m314.41-.899c0-.62.8-1.216 1.156-.86.208.208-.579 1.51-.913 1.51-.134 0-.243-.293-.243-.65m1.045-2.571c-.464-.179-.648-.447-.525-.767.242-.63.887-.63 1.411.001.548.66.022 1.114-.886.766m1.572-2.119c-.324-.13-.278-.33.198-.854.341-.378.72-1.102.84-1.61.225-.947 1.626-3.035 2.343-3.492a.97.97 0 0 0 .402-.731c0-.605.94-2.089 1.664-2.624.306-.226.843-1.06 1.193-1.851.581-1.315.692-1.405 1.277-1.04.566.354.586.46.173.916-.257.284-.467.747-.467 1.03 0 .282-.427.816-.949 1.188-.54.385-1.081 1.157-1.257 1.793-.321 1.163-1.533 2.68-2.15 2.69-.204.002-.291.339-.206.788.1.525-.195 1.315-.898 2.4-1.02 1.575-1.287 1.747-2.163 1.397M746.7 503.6c-2.806-2.335-5.78-4.734-6.61-5.33-.831-.595-1.442-1.194-1.358-1.33.192-.31 6.153-1.69 9.703-2.247l2.676-.419 1.595 1.673c1.504 1.576 1.586 1.75 1.432 3.023-.09.743-.653 3.044-1.25 5.114l-1.088 3.762zm339.059-3.59c0-.646 1.28-3.049 1.624-3.049.154 0 .507-.44.784-.976.407-.787.642-.935 1.209-.76.387.118.759.265.826.326.19.17-.765 1.523-1.815 2.572-.518.519-1.043 1.261-1.166 1.65-.251.791-1.462.988-1.462.238m5.013-6.462c-.444-.445-.189-1.453.407-1.609.587-.154 1.3-1.568 1.3-2.58 0-.503 1.406-2.319 2.115-2.731.545-.317.337.281-.866 2.493a68 68 0 0 0-1.58 3.12c-.695 1.492-.95 1.733-1.376 1.307m-209.093-3.118c-.396-.418-.722-.883-.724-1.034s-.567-.882-1.256-1.623c-1.155-1.243-1.577-1.465-3.38-1.778-1.928-.334 12.864-2.992 27.84-5.002 26.553-3.563 34.512-4.052 71.2-4.377 12.056-.106 21.96-.232 22.008-.28.05-.047-1.22-1.365-2.82-2.93s-3.333-3.493-3.852-4.285-1.734-2.143-2.7-3.002c-.966-.86-1.756-1.703-1.756-1.875s-.684-1.063-1.52-1.98c-.836-.915-2.024-2.364-2.64-3.22-.616-.854-1.97-2.37-3.008-3.37-1.039-.998-1.759-1.893-1.6-1.987.705-.418 4.512-.896 12.128-1.523 5.877-.484 6.298-.576 5.914-1.295-.172-.32-.627-.63-1.011-.686-.447-.065-.86-.497-1.143-1.194l-.444-1.092 9.062.213c12.752.3 19.607.921 29.062 2.633 5.778 1.046 5.816 1.065 5.584 2.773-.848 6.245-2.515 11.46-5.754 18.005-2.535 5.12-5.154 9.02-8.646 12.876l-2.16 2.386-1.632-.19c-2.778-.32-16.539-1.11-26.257-1.506-16.25-.663-43.987-.145-62.575 1.168-12.368.873-38.313 3.558-46.24 4.785-.719.112-1.141-.042-1.68-.61m213.36-5.29c0-.649 1.031-1.441 1.398-1.074.362.362.216.653-.598 1.186-.76.498-.8.493-.8-.112m2.152-2.453c-.115-.116-.057-.495.129-.842.249-.465.433-.538.695-.276s.228.485-.129.842c-.267.267-.58.39-.695.276m-653.221-.566c-.271-.707.09-1.067.578-.579.289.289.29.468.005.753-.284.284-.423.243-.583-.174m655.149-1.862c.386-.386.799-.606.917-.488.311.311-.506 1.19-1.107 1.19-.412 0-.374-.138.19-.702m-658.16-.578c0-.176.271-.32.603-.32.333 0 .677-.286.77-.64.092-.352.34-.64.551-.64.22 0 .3.218.19.506a3.2 3.2 0 0 0-.194.96c0 .291-.345.454-.96.454-.528 0-.96-.144-.96-.32m252.641-4.067c-8.838-13.92-20.189-29.553-30.344-41.794-7.116-8.576-12.515-14.56-22.217-24.622-4.398-4.56-4.885-5.178-4.935-6.249-.07-1.527-.109-1.881-.376-3.428-.121-.704-.28-2.44-.353-3.858s-.23-2.966-.35-3.44c-.127-.51-.083-.862.108-.862.615 0 4.348 3.03 9.247 7.505 9.01 8.229 11.457 10.414 11.667 10.414.39.001.466-3.043.415-16.577l-.05-13.537-2.102-3.103c-2.44-3.603-8.176-10.834-11.79-14.863-1.383-1.54-2.867-3.34-3.3-4l-.787-1.199.455-3.016c.25-1.659.583-3.144.74-3.302.581-.58 10.29 8.912 16.77 16.398 25.904 29.917 41.25 68.237 42.699 106.628l.202 5.35-.77.29c-2.623.989-2.532 1.04-4.929-2.735m49.157 2.662-.763-.423.986-.344c.9-.313.97-.439.809-1.436-.187-1.15.527-2.964 1.426-3.622q.479-.35.274-1.164c-.134-.535-.041-.948.273-1.209.262-.217.477-.618.477-.891s.227-.746.504-1.052.612-1.36.745-2.34c.14-1.022.505-2.074.857-2.463.338-.374.567-.963.51-1.31-.069-.414.116-.686.542-.797.404-.106.682-.486.744-1.017.066-.568.256-.806.578-.723 1.624.418 1.92.41 1.92-.05 0-.263-.3-.558-.669-.654-.528-.138-.622-.33-.446-.918.123-.408.473-.958.78-1.222.305-.264.807-1.308 1.115-2.32s.675-1.84.816-1.84.121-.599-.043-1.33c-.363-1.616.128-2.412.869-1.409.252.342.458.899.458 1.237 0 .494.144.571.72.388a6.7 6.7 0 0 1 1.302-.266c.559-.036.559-.053.006-.458-.54-.394-.51-.483.458-1.388.569-.531 1.034-1.175 1.034-1.43 0-.529.82-.63 1.124-.139.11.18.335.243.498.141.522-.322.321-1.025-.342-1.199q-1.353-.354.32-2.467c.528-.667.96-1.371.96-1.566s.134-.354.297-.354c.343 0 .651-.306 2.46-2.444l2.134-2.516c.883-1.04 1.492-.955.824.114-.5.8-.314 1.04.62.796.422-.11.705-.434.705-.806 0-.342.147-.531.326-.42.178.11.252.318.163.462s.05.437.308.651c.259.215.692.835.963 1.379.434.87.437 1.045.023 1.459-.392.391-.556.4-.978.049-.28-.232-.467-.724-.417-1.093.073-.527-.08-.671-.708-.671-.723 0-.793.115-.73 1.2.089 1.499-.573 1.614-1.11.193-.33-.878-.446-.953-.894-.58-.376.311-.46.718-.311 1.511.172.918.102 1.112-.452 1.257-.36.095-.577.298-.482.452.317.514.37 4.464.062 4.655-.167.103-.716-.118-1.22-.49-.504-.373-1.062-.678-1.24-.678-.5 0 .02 1.054.842 1.705 1.489 1.178 1.518 1.691.19 3.335-1.835 2.274-2.636 2.946-3.24 2.72-.463-.173-.477-.128-.101.333.37.455.342.687-.187 1.58-.393.665-.824 1.01-1.181.947-.42-.076-.514.05-.372.496.104.329.005.85-.221 1.159-.378.516-.486.521-1.362.065-1.248-.651-1.824-.63-1.686.06.079.395.415.56 1.143.557 1.37-.004 1.334.554-.17 2.575-1.25 1.68-2.87 4.101-7.596 11.348-3.529 5.411-3.677 5.543-5.244 4.675m11.802-16.515a.32.32 0 0 0-.32-.32.32.32 0 0 0-.32.32c0 .176.144.32.32.32a.32.32 0 0 0 .32-.32m-.8-3.52c.109-.176.045-.32-.141-.32-.187 0-.339.144-.339.32s.064.32.141.32c.078 0 .23-.144.339-.32m3.04-1.749c0-.082-.324-.321-.72-.532-.653-.348-.68-.334-.28.149.408.495 1 .722 1 .383m-.384-2.795c.61-.61.447-.959-.336-.718-.925.284-.987.35-.733.76.274.445.595.432 1.069-.042m2.554-.527c.092-.275-.062-.39-.427-.32-.313.061-.634.305-.713.542-.092.275.062.39.427.32.313-.061.634-.305.713-.542m1.427-1.277c-.046-.214.134-.473.4-.575s.483-.46.483-.796c0-.335.176-.892.392-1.237.293-.47.3-.72.028-.992-.56-.56-1.138-.007-.917.876a1.9 1.9 0 0 1-.266 1.436l-.461.659-.36-.672c-.482-.9-.863-.845-1.116.163-.15.602-.049.957.365 1.274.67.514 1.572.43 1.452-.136m-.717-2.932c0-.176-.063-.32-.141-.32s-.23.144-.339.32-.045.32.141.32.339-.144.339-.32m3.84-3.04c.318-.383.318-.577 0-.96-.502-.605-.996-.626-.768-.032.094.246.018.542-.17.658-.188.117-.342.347-.342.513 0 .47.838.353 1.28-.179m-322.88 31.62c-1.6-.264-1.735-.38-1.164-1.012.579-.639.693-1.328.22-1.328-.167 0-.441.245-.61.545-.246.442-.394.47-.78.15-.448-.372-.568-.748-1.066-3.335-.11-.572-.31-1.184-.443-1.36s-.426-1.4-.65-2.72-.53-2.559-.678-2.752c-.147-.194-.36-1.026-.473-1.849s-.33-1.573-.48-1.667c-.543-.335-.29-2.038.364-2.446.352-.22.64-.529.64-.686 0-.409 1.525-1.769 1.74-1.553.325.324.188 1.353-.18 1.353-.249 0-.237.146.037.476.218.263.508.407.646.322.137-.085.342.085.454.378.113.293.02.65-.206.794-.304.193-.269.261.136.265.372.003.665.442.912 1.365.201.748.502 1.707.67 2.132s.393 1.72.5 2.88c.108 1.16.367 2.252.577 2.428s.605.9.876 1.607c.46 1.196.451 1.375-.114 2.537-.744 1.53-.768 2.096-.09 2.096.379 0 .476-.214.364-.8-.222-1.158.579-1.02.994.172.286.82.241 1.07-.288 1.6-.345.346-.736.608-.868.584s-.6-.103-1.04-.175m-.107-4.122c.27-.703-.463-1.409-.837-.804-.313.506-.1 1.306.348 1.306.163 0 .383-.226.489-.502m-.631-2.7c-.379-1.002-.683-1.186-1.03-.624-.26.419.737 1.988 1.114 1.755.152-.095.115-.603-.084-1.13m-.693-1.932c.113-.184.03-.546-.186-.806-.315-.38-.279-.596.182-1.106.518-.572.523-.634.045-.634-.292 0-.53.141-.53.314s-.36.404-.8.515c-.932.234-1.009.65-.27 1.466.59.652 1.246.758 1.559.251m-1.118-2.72c.497-.598.017-1.22-.722-.936-.305.117-.436.431-.336.81.195.748.51.786 1.058.126m664.531 8.29c-.296-.297.06-.756.587-.756.27 0 .377.193.267.48-.196.509-.517.613-.854.275m.989-1.44c-.195-.58.072-1.556.426-1.556.36 0 .359.985 0 1.556-.233.368-.299.368-.423 0zm1.669-4.116c0-.412.162-.64.4-.56.22.073.4.325.4.56a.63.63 0 0 1-.4.56c-.238.08-.4-.148-.4-.56m2.24-3.944c0-.257.377-.561.838-.677 1.514-.38 1.407.466-.118.927-.517.156-.72.086-.72-.25m1.68-2.295c-.519-.589-.506-1.173.041-1.922.39-.532.496-.547.915-.13.301.302.418.848.322 1.503-.16 1.093-.624 1.293-1.278.55m1.747-3.921c.113-.308.36-.664.55-.79.188-.127.343-.559.343-.96 0-1.158.943-.91 1.058.28.073.756-.085 1.136-.631 1.52-.975.682-1.582.66-1.32-.05m2.491-4.563c-.362-.585.19-1.592.983-1.791.745-.187 1.125-1.086.459-1.086-.176 0-.32-.122-.32-.271 0-.358 1.247-1.79 1.412-1.62.16.163.3 1.811.236 2.755-.097 1.408-2.2 2.936-2.77 2.013m-357.278-5.08c0-.175.144-.408.32-.517s.32-.054.32.122-.144.41-.32.518-.32.054-.32-.122m8-.037a.32.32 0 0 1 .32-.32.32.32 0 0 1 .32.32.32.32 0 0 1-.32.32.32.32 0 0 1-.32-.32m353.28.038c0-.176.144-.41.32-.518s.32-.054.32.122-.144.41-.32.518-.32.054-.32-.122m-362.766-.832c.113-.296.206-.599.206-.672s.216-.134.48-.134c.686 0 .592.416-.206.915-.608.38-.663.367-.48-.11m10.503-.983c.144-.695.712-.738.842-.063.068.35-.09.56-.419.56-.307 0-.484-.207-.423-.497m-9.282-1.134c-.478-.765-.312-1.096.411-.819.493.19.712 1.49.251 1.49-.134 0-.432-.302-.662-.671m361.774.431c-.07-.132-.036-.6.076-1.04.171-.668.24-.709.418-.245.136.355.403.481.742.351.454-.174.477-.105.161.485-.36.674-1.141.925-1.396.449zm-351.339-1.156c-.12-.626-.035-.728.49-.59.395.103.8-.058 1.068-.425.313-.428.43-.464.421-.13-.013.558-1.089 1.901-1.523 1.901-.171 0-.376-.34-.456-.756m352.747-2.444c.722-1.385.967-1.518 1.533-.836.291.35.16.619-.625 1.28-1.4 1.178-1.681 1.04-.908-.444m-351.877.64c-.109-.176-.045-.32.141-.32.187 0 .339.144.339.32s-.063.32-.141.32-.23-.144-.339-.32m-253.44-3.184c-31.967-7.251-56.403-9.99-93.44-10.47-21.518-.278-38.08.486-57.538 2.658-2.764.308-4.842.409-4.989.242-.359-.41-6.288-14.603-8.943-21.406-4.05-10.384-9.97-27.204-9.97-28.332 0-.653.4-.743 6.24-1.41 10.83-1.236 23.506-2.05 35.36-2.27 4.84-.089 11.32-.213 14.4-.275 6.948-.14 29.063.284 29.342.563.113.113.046.529-.148.924a10 10 0 0 0-.544 1.404c-.105.377-.556 1.08-1.003 1.561-.447.483-.692.998-.543 1.147.148.148 4.514.632 9.702 1.075 10.477.895 14.814 1.36 16.192 1.739 1.056.29 1.074.777.1 2.684-.34.665-.618 1.476-.618 1.8 0 .326-.216.77-.48.99s-.48.87-.48 1.445c0 .592-.19 1.12-.44 1.215-.241.093-.539.72-.66 1.394-.122.674-.48 1.802-.797 2.506-1 2.227-1.943 4.71-1.943 5.123 0 .22-.22.58-.487.803-.276.229-.407.657-.303.986.102.32-.1 1.127-.45 1.795-1.323 2.532-2.6 5.472-2.6 5.985 0 .293-.288 1.098-.64 1.788-1.209 2.37-1.284 2.329 5.28 2.878 20.938 1.751 32.253 3.15 46.625 5.766 12.574 2.288 26.08 5.505 33.848 8.063 3.428 1.129 3.892 1.36 3.28 1.633-.398.177-.713.604-.713.966 0 .621-.316 1.828-1.022 3.894-.18.528-.421 1.464-.537 2.08-.15.803-.39 1.136-.845 1.177-.35.031-4.956-.923-10.236-2.121m606.768.472c-.1-.26.065-.616.365-.794.417-.245.452-.385.147-.587-.316-.209-.304-.395.054-.885.507-.694.724-.607.846.338.21 1.64-.927 3.194-1.412 1.928M757.18 439.34a1 1 0 0 1 .56-.56c.24-.08.36.04.28.28a1 1 0 0 1-.56.56c-.24.08-.36-.04-.28-.28m365.207-2.241c-.116-.188-.13-.422-.033-.52.263-.263 1.166.148 1.166.531 0 .434-.863.426-1.134-.011zm-353.926-1.61c-.282-.457.652-1.39 1.11-1.107.246.152.252.4.019.837-.372.694-.803.797-1.129.27m-10.221-.609c.109-.176.261-.32.339-.32.077 0 .141.144.141.32s-.152.32-.339.32c-.186 0-.25-.144-.141-.32m364.858-.515c.191-.5.79-.458.966.067.057.171-.178.332-.522.358-.43.033-.569-.1-.444-.425M758.72 432.64a.32.32 0 0 1 .32-.32.32.32 0 0 1 .32.32.32.32 0 0 1-.32.32.32.32 0 0 1-.32-.32m12.857-1.137c.144-.695.712-.738.842-.063.068.35-.09.56-.419.56-.307 0-.484-.207-.423-.497m359.143-11.663c.109-.176.261-.32.339-.32s.141.144.141.32-.152.32-.339.32c-.186 0-.25-.144-.141-.32m-344.16-4.777c0-.532 1.24-2.263 1.622-2.263.164 0 .294.18.29.4-.013.531-1.912 2.383-1.912 1.863m2.56-3.211c0-.159.45-.609 1-1l1.001-.713-.54.823c-.556.85-1.461 1.4-1.461.89m345.92-1.711c0-.26.227-.56.503-.666.351-.134.472-.032.4.34-.131.677-.903.956-.903.326m1.92-3.997c0-.464.795-1.979 1.04-1.982.289-.002.316 1.028.046 1.732-.197.514-1.086.719-1.086.25m2.595-5.942c-.276-.332-.247-.533.121-.839.266-.22.484-.583.484-.805s.36-.64.8-.929c.74-.485.8-.485.8 0 0 .609-1.292 3.011-1.62 3.011-.122 0-.385-.197-.585-.438m1.408-4.037c-.236-.382.064-.965.496-.965.39 0 .392.866 0 1.106-.164.102-.388.038-.499-.14zm-749.86-29.248c-6.675-7.058-15.66-27.673-20.17-46.277-3.519-14.519-5.01-29.8-4.276-43.86.203-3.913.436-7.18.517-7.26.08-.081 1.646-.223 3.478-.317l3.332-.17.183 1.367c.108.805.031 1.611-.186 1.96-.303.485-.246.717.312 1.275.662.662 1.05.69 12.955.971 11.552.272 17.022.598 17.464 1.04.106.105.03.547-.168.981-.198.435-.24.864-.095.954.372.23.681 2.815.384 3.211-.135.18-.434.802-.663 1.38-.383.964-.356 1.119.313 1.831.592.63.657.867.34 1.25-.23.277-.357 1.199-.309 2.244.045.975-.016 1.872-.136 1.992-.374.374-.24 1.298.342 2.365.423.775.462 1.061.16 1.172-.471.173-.536 1.252-.092 1.526.196.122.191.497-.013 1.035-.177.464-.216 1.287-.087 1.829.129.541.193 1.128.144 1.304s-.091.824-.092 1.44c0 .616-.137 1.286-.303 1.488-.191.233-.167.906.067 1.834.203.806.28 1.696.173 1.977-.178.463.4.486 6.123.246 29.898-1.254 53.218 1.778 78.32 10.184 6.785 2.272 9.518 3.445 9.308 3.994-.095.246-.263 2.281-.373 4.522-.111 2.241-.262 4.138-.334 4.214s-2.542-.551-5.487-1.396c-25.144-7.208-38.253-9.601-57.277-10.456-10.949-.493-30.423.375-31.705 1.411-1.257 1.017-4.12 8.016-5.472 13.376-1.175 4.657-1.429 6.908-2.577 22.877-.52 7.233-1.037 13.39-1.149 13.68-.36.94-1.286.566-2.95-1.194m682.96-65.825c-.28-.452.337-1.068.79-.79.19.119.347.423.347.677 0 .539-.824.62-1.137.113m-3.826-6.132c.085-1.628.256-3.896.378-5.04.123-1.144.233-3.88.244-6.08.021-4.051.504-5.685.833-2.82.095.825.425 1.78.733 2.12.536.592.532.626-.096.79-.569.15-.612.286-.326 1.04.206.54.218 1.004.031 1.229-.164.199-.309.721-.321 1.161-.1 3.419-.429 7.02-.707 7.721-.183.463-.305 1.04-.272 1.28.122.882-.023 1.559-.334 1.559-.2 0-.26-1.104-.163-2.96m5.457-1.498c-.102-.164-.038-.388.14-.499.18-.11.326.024.326.298 0 .562-.192.645-.466.201m-1.267-.619c-.138-.223-.165-.492-.06-.598.287-.286.6.135.444.6-.108.324-.183.324-.385-.002zm.95-3.323c-.483-1.567-.447-2.037.186-2.432.786-.492 1.088-.291.75.498-.134.316-.213.97-.175 1.454.07.873-.525 1.248-.761.48m-.371-4.533c-.294-.766.094-1.485.679-1.26.584.223.521 1.435-.085 1.635-.22.072-.487-.097-.594-.375m-.126-3.227c.22-.264.52-.48.67-.48.148 0 .187.216.086.48s-.402.48-.669.48c-.395 0-.41-.09-.087-.48m-1.92-.442c0-.352.144-.73.32-.838.176-.109.32.09.32.442s-.144.73-.32.838c-.176.109-.32-.09-.32-.442m2.245-4.918c0-.22.129-.595.28-.834.352-.555.815.089.553.77-.218.568-.84.616-.833.064" style="fill:#50096d" transform="translate(-217.603 -266.335)"/></svg>